black.ufo
<glyph name="exclam" format="2">
  <advance height="1920" width="740"/>
  <unicode hex="0021"/>
  <outline>
    <contour>
      <point x="615.0" y="0.0" type="curve" smooth="yes"/>
      <point x="125.0" y="0.0" type="line" smooth="yes"/>
      <point x="118.0" y="0.0"/>
      <point x="115.0" y="3.0"/>
      <point x="115.0" y="10.0" type="curve" smooth="yes"/>
      <point x="115.0" y="450.0" type="line" smooth="yes"/>
      <point x="115.0" y="457.0"/>
      <point x="118.0" y="460.0"/>
      <point x="125.0" y="460.0" type="curve" smooth="yes"/>
      <point x="615.0" y="460.0" type="line" smooth="yes"/>
      <point x="622.0" y="460.0"/>
      <point x="625.0" y="457.0"/>
      <point x="625.0" y="450.0" type="curve" smooth="yes"/>
      <point x="625.0" y="10.0" type="line" smooth="yes"/>
      <point x="625.0" y="3.0"/>
      <point x="622.0" y="0.0"/>
    </contour>
    <contour>
      <point x="65.0" y="1050.0" type="curve" smooth="yes"/>
      <point x="65.0" y="1440.0" type="line" smooth="yes"/>
      <point x="65.0" y="1447.0"/>
      <point x="68.0" y="1450.0"/>
      <point x="75.0" y="1450.0" type="curve" smooth="yes"/>
      <point x="665.0" y="1450.0" type="line" smooth="yes"/>
      <point x="672.0" y="1450.0"/>
      <point x="675.0" y="1447.0"/>
      <point x="675.0" y="1440.0" type="curve" smooth="yes"/>
      <point x="675.0" y="1050.0" type="line" smooth="yes"/>
      <point x="675.0" y="1043.0"/>
      <point x="674.817382812" y="1036.90332031"/>
      <point x="674.0" y="1030.0" type="curve" smooth="yes"/>
      <point x="476.0" y="540.0" type="line" smooth="yes"/>
      <point x="475.182617188" y="533.096679688"/>
      <point x="472.0" y="530.0"/>
      <point x="465.0" y="530.0" type="curve" smooth="yes"/>
      <point x="275.0" y="530.0" type="line" smooth="yes"/>
      <point x="268.0" y="530.0"/>
      <point x="264.817382812" y="533.096679688"/>
      <point x="264.0" y="540.0" type="curve" smooth="yes"/>
      <point x="66.0" y="1030.0" type="line" smooth="yes"/>
      <point x="65.1826171875" y="1036.90332031"/>
      <point x="65.0" y="1043.0"/>
    </contour>
  </outline>
</glyph>
<glyph name="numbersign" format="2">
  <advance height="1920" width="1610"/>
  <unicode hex="0023"/>
  <outline>
    <contour>
      <point x="10.0" y="690.0" type="curve" smooth="yes"/>
      <point x="1520.0" y="690.0" type="line" smooth="yes"/>
      <point x="1527.0" y="690.0"/>
      <point x="1530.0" y="687.0"/>
      <point x="1530.0" y="680.0" type="curve" smooth="yes"/>
      <point x="1530.0" y="390.0" type="line" smooth="yes"/>
      <point x="1530.0" y="383.0"/>
      <point x="1528.0" y="380.0"/>
      <point x="1520.0" y="380.0" type="curve" smooth="yes"/>
      <point x="10.0" y="380.0" type="line" smooth="yes"/>
      <point x="3.0" y="380.0"/>
      <point x="0.0" y="383.0"/>
      <point x="0.0" y="390.0" type="curve" smooth="yes"/>
      <point x="0.0" y="680.0" type="line" smooth="yes"/>
      <point x="0.0" y="687.0"/>
      <point x="3.0" y="690.0"/>
    </contour>
    <contour>
      <point x="90.0" y="1100.0" type="curve" smooth="yes"/>
      <point x="1600.0" y="1100.0" type="line" smooth="yes"/>
      <point x="1607.0" y="1100.0"/>
      <point x="1610.0" y="1097.0"/>
      <point x="1610.0" y="1090.0" type="curve" smooth="yes"/>
      <point x="1610.0" y="800.0" type="line" smooth="yes"/>
      <point x="1610.0" y="793.0"/>
      <point x="1607.0" y="790.0"/>
      <point x="1600.0" y="790.0" type="curve" smooth="yes"/>
      <point x="90.0" y="790.0" type="line" smooth="yes"/>
      <point x="83.0" y="790.0"/>
      <point x="80.0" y="793.0"/>
      <point x="80.0" y="800.0" type="curve" smooth="yes"/>
      <point x="80.0" y="1090.0" type="line" smooth="yes"/>
      <point x="80.0" y="1097.0"/>
      <point x="83.0" y="1100.0"/>
    </contour>
    <contour>
      <point x="1030.0" y="1400.0" type="curve" smooth="yes"/>
      <point x="1460.0" y="1400.0" type="line" smooth="yes"/>
      <point x="1470.0" y="1400.0"/>
      <point x="1470.0" y="1397.0"/>
      <point x="1468.0" y="1390.0" type="curve" smooth="yes"/>
      <point x="1142.0" y="10.0" type="line" smooth="yes"/>
      <point x="1140.0" y="3.0"/>
      <point x="1140.0" y="0.0"/>
      <point x="1130.0" y="0.0" type="curve" smooth="yes"/>
      <point x="700.0" y="0.0" type="line" smooth="yes"/>
      <point x="690.0" y="0.0"/>
      <point x="690.0" y="3.0"/>
      <point x="692.0" y="10.0" type="curve" smooth="yes"/>
      <point x="1018.0" y="1390.0" type="line" smooth="yes"/>
      <point x="1020.0" y="1397.0"/>
      <point x="1020.0" y="1400.0"/>
    </contour>
    <contour>
      <point x="460.0" y="1400.0" type="curve" smooth="yes"/>
      <point x="890.0" y="1400.0" type="line" smooth="yes"/>
      <point x="897.0" y="1400.0"/>
      <point x="900.0" y="1397.0"/>
      <point x="898.0" y="1390.0" type="curve" smooth="yes"/>
      <point x="572.0" y="10.0" type="line" smooth="yes"/>
      <point x="570.0" y="3.0"/>
      <point x="567.0" y="0.0"/>
      <point x="560.0" y="0.0" type="curve" smooth="yes"/>
      <point x="130.0" y="0.0" type="line" smooth="yes"/>
      <point x="123.0" y="0.0"/>
      <point x="120.0" y="3.0"/>
      <point x="122.0" y="10.0" type="curve" smooth="yes"/>
      <point x="448.0" y="1390.0" type="line" smooth="yes"/>
      <point x="450.0" y="1397.0"/>
      <point x="453.0" y="1400.0"/>
    </contour>
  </outline>
</glyph>
<glyph name="dollar" format="2">
  <advance height="1920" width="1219"/>
  <unicode hex="0024"/>
  <outline>
    <contour>
      <point x="29.0" y="488.0" type="curve" smooth="yes"/>
      <point x="379.0" y="488.0" type="line" smooth="yes"/>
      <point x="381.7734375" y="488.0"/>
      <point x="389.0" y="487.0"/>
      <point x="389.0" y="480.0" type="curve" smooth="yes"/>
      <point x="389.0" y="440.0" type="line" smooth="yes"/>
      <point x="389.0" y="326.4140625"/>
      <point x="468.641601562" y="285.0"/>
      <point x="609.0" y="285.0" type="curve" smooth="yes"/>
      <point x="717.124023438" y="285.0"/>
      <point x="749.0" y="316.604492188"/>
      <point x="749.0" y="368.0" type="curve" smooth="yes"/>
      <point x="749.0" y="411.729492188"/>
      <point x="688.109375" y="435.2265625"/>
      <point x="587.0" y="464.35546875" type="curve" smooth="yes"/>
      <point x="290.890623337" y="549.662516416"/>
      <point x="69.0" y="614.966796875"/>
      <point x="69.0" y="973.0" type="curve" smooth="yes"/>
      <point x="69.0" y="1243.0"/>
      <point x="247.0" y="1435.0"/>
      <point x="609.0" y="1435.0" type="curve" smooth="yes"/>
      <point x="973.0" y="1435.0"/>
      <point x="1119.0" y="1236.0"/>
      <point x="1119.0" y="1021.0" type="curve" smooth="yes"/>
      <point x="1119.0" y="971.0" type="line" smooth="yes"/>
      <point x="1119.0" y="964.0"/>
      <point x="1114.14453125" y="963.0"/>
      <point x="1109.0" y="963.0" type="curve" smooth="yes"/>
      <point x="779.0" y="963.0" type="line" smooth="yes"/>
      <point x="773.85546875" y="963.0"/>
      <point x="769.0" y="964.0"/>
      <point x="769.0" y="971.0" type="curve" smooth="yes"/>
      <point x="769.0" y="1001.0" type="line" smooth="yes"/>
      <point x="769.0" y="1056.0"/>
      <point x="714.0" y="1135.0"/>
      <point x="599.0" y="1135.0" type="curve" smooth="yes"/>
      <point x="527.0" y="1135.0"/>
      <point x="499.0" y="1083.0"/>
      <point x="499.0" y="1043.0" type="curve" smooth="yes"/>
      <point x="499.0" y="991.723632812"/>
      <point x="546.459238462" y="960.106307986"/>
      <point x="677.0" y="932.26171875" type="curve" smooth="yes"/>
      <point x="1037.10253906" y="855.451171875"/>
      <point x="1189.0" y="756.510742188"/>
      <point x="1189.0" y="428.0" type="curve" smooth="yes"/>
      <point x="1189.0" y="110.7265625"/>
      <point x="1018.34179688" y="-35.0"/>
      <point x="579.27734375" y="-35.0" type="curve" smooth="yes"/>
      <point x="190.790039062" y="-35.0"/>
      <point x="20.0" y="122.553710938"/>
      <point x="20.0" y="399.0" type="curve" smooth="yes"/>
      <point x="20.0" y="479.0" type="line" smooth="yes"/>
      <point x="20.0" y="486.0"/>
      <point x="26.296875" y="488.0"/>
    </contour>
    <contour>
      <point x="590.0" y="1590.0" type="curve" smooth="yes"/>
      <point x="650.0" y="1590.0" type="line" smooth="yes"/>
      <point x="657.0" y="1590.0"/>
      <point x="660.0" y="1587.0"/>
      <point x="660.0" y="1580.0" type="curve" smooth="yes"/>
      <point x="660.0" y="-180.0" type="line" smooth="yes"/>
      <point x="660.0" y="-187.0"/>
      <point x="657.0" y="-190.0"/>
      <point x="650.0" y="-190.0" type="curve" smooth="yes"/>
      <point x="590.0" y="-190.0" type="line" smooth="yes"/>
      <point x="583.0" y="-190.0"/>
      <point x="580.0" y="-187.0"/>
      <point x="580.0" y="-180.0" type="curve" smooth="yes"/>
      <point x="580.0" y="1580.0" type="line" smooth="yes"/>
      <point x="580.0" y="1587.0"/>
      <point x="583.0" y="1590.0"/>
    </contour>
  </outline>
</glyph>
<glyph name="percent" format="2">
  <advance height="2048" width="1855"/>
  <unicode hex="0025"/>
  <outline>
    <contour>
      <point x="50.0" y="1083.0" type="curve" smooth="yes"/>
      <point x="50.0" y="1118.0" type="line" smooth="yes"/>
      <point x="50.0" y="1308.0"/>
      <point x="208.0" y="1435.0"/>
      <point x="485.0" y="1435.0" type="curve" smooth="yes"/>
      <point x="762.0" y="1435.0"/>
      <point x="930.0" y="1308.0"/>
      <point x="930.0" y="1118.0" type="curve" smooth="yes"/>
      <point x="930.0" y="1083.0" type="line" smooth="yes"/>
      <point x="930.0" y="893.0"/>
      <point x="762.0" y="765.0"/>
      <point x="485.0" y="765.0" type="curve" smooth="yes"/>
      <point x="208.0" y="765.0"/>
      <point x="50.0" y="893.0"/>
    </contour>
    <contour>
      <point x="425.0" y="1093.0" type="line" smooth="yes"/>
      <point x="425.0" y="1013.0"/>
      <point x="448.0" y="985.0"/>
      <point x="485.0" y="985.0" type="curve" smooth="yes"/>
      <point x="522.0" y="985.0"/>
      <point x="555.0" y="1013.0"/>
      <point x="555.0" y="1093.0" type="curve" smooth="yes"/>
      <point x="555.0" y="1108.0" type="line" smooth="yes"/>
      <point x="555.0" y="1188.0"/>
      <point x="522.0" y="1215.0"/>
      <point x="485.0" y="1215.0" type="curve" smooth="yes"/>
      <point x="448.0" y="1215.0"/>
      <point x="425.0" y="1188.0"/>
      <point x="425.0" y="1108.0" type="curve" smooth="yes"/>
    </contour>
    <contour>
      <point x="925.0" y="283.0" type="curve" smooth="yes"/>
      <point x="925.0" y="318.0" type="line" smooth="yes"/>
      <point x="925.0" y="508.0"/>
      <point x="1083.0" y="635.0"/>
      <point x="1360.0" y="635.0" type="curve" smooth="yes"/>
      <point x="1637.0" y="635.0"/>
      <point x="1805.0" y="508.0"/>
      <point x="1805.0" y="318.0" type="curve" smooth="yes"/>
      <point x="1805.0" y="283.0" type="line" smooth="yes"/>
      <point x="1805.0" y="93.0"/>
      <point x="1637.0" y="-35.0"/>
      <point x="1360.0" y="-35.0" type="curve" smooth="yes"/>
      <point x="1083.0" y="-35.0"/>
      <point x="925.0" y="93.0"/>
    </contour>
    <contour>
      <point x="1300.0" y="293.0" type="line" smooth="yes"/>
      <point x="1300.0" y="213.0"/>
      <point x="1323.0" y="185.0"/>
      <point x="1360.0" y="185.0" type="curve" smooth="yes"/>
      <point x="1397.0" y="185.0"/>
      <point x="1430.0" y="213.0"/>
      <point x="1430.0" y="293.0" type="curve" smooth="yes"/>
      <point x="1430.0" y="308.0" type="line" smooth="yes"/>
      <point x="1430.0" y="388.0"/>
      <point x="1397.0" y="415.0"/>
      <point x="1360.0" y="415.0" type="curve" smooth="yes"/>
      <point x="1323.0" y="415.0"/>
      <point x="1300.0" y="388.0"/>
      <point x="1300.0" y="308.0" type="curve" smooth="yes"/>
    </contour>
    <contour>
      <point x="1779.0" y="1390.0" type="curve" smooth="yes"/>
      <point x="436.0" y="10.0" type="line" smooth="yes"/>
      <point x="431.551757812" y="2.7177734375"/>
      <point x="427.0" y="0.0"/>
      <point x="420.0" y="0.0" type="curve" smooth="yes"/>
      <point x="80.0" y="0.0" type="line" smooth="yes"/>
      <point x="73.0" y="0.0"/>
      <point x="71.5517578125" y="2.7177734375"/>
      <point x="76.0" y="10.0" type="curve" smooth="yes"/>
      <point x="1419.0" y="1390.0" type="line" smooth="yes"/>
      <point x="1423.44824219" y="1397.28222656"/>
      <point x="1428.0" y="1400.0"/>
      <point x="1435.0" y="1400.0" type="curve" smooth="yes"/>
      <point x="1775.0" y="1400.0" type="line" smooth="yes"/>
      <point x="1782.0" y="1400.0"/>
      <point x="1783.44824219" y="1397.28222656"/>
    </contour>
  </outline>
</glyph>
<glyph name="ampersand" format="2">
  <advance height="1920" width="1701"/>
  <unicode hex="0026"/>
  <outline>
    <contour>
      <point x="1061.65039062" y="10.0" type="curve" smooth="yes"/>
      <point x="506.650390625" y="734.0" type="line" smooth="yes"/>
      <point x="382.650390625" y="919.0"/>
      <point x="338.650390625" y="1000.0"/>
      <point x="338.650390625" y="1113.0" type="curve" smooth="yes"/>
      <point x="338.650390625" y="1283.0"/>
      <point x="466.650390625" y="1435.0"/>
      <point x="873.650390625" y="1435.0" type="curve" smooth="yes"/>
      <point x="1210.65039062" y="1435.0"/>
      <point x="1408.65039062" y="1313.02636719"/>
      <point x="1408.65039062" y="1123.0" type="curve" smooth="yes"/>
      <point x="1408.65039062" y="875.0"/>
      <point x="1014.65039062" y="697.0"/>
      <point x="785.650390625" y="596.0" type="curve" smooth="yes"/>
      <point x="641.650390625" y="533.0"/>
      <point x="614.650390625" y="492.0"/>
      <point x="614.650390625" y="448.0" type="curve" smooth="yes"/>
      <point x="614.650390625" y="427.0"/>
      <point x="624.591796875" y="409.764648438"/>
      <point x="631.650390625" y="398.0" type="curve" smooth="yes"/>
      <point x="637.650390625" y="388.0" type="line" smooth="yes"/>
      <point x="648.415039062" y="370.05859375"/>
      <point x="680.650390625" y="355.0"/>
      <point x="715.650390625" y="355.0" type="curve" smooth="yes"/>
      <point x="957.650390625" y="355.0"/>
      <point x="1232.65039062" y="446.0"/>
      <point x="1310.65039062" y="640.0" type="curve" smooth="yes"/>
      <point x="1312.65917969" y="644.99609375"/>
      <point x="1316.65039062" y="648.0"/>
      <point x="1323.65039062" y="648.0" type="curve" smooth="yes"/>
      <point x="1693.65039062" y="648.0" type="line" smooth="yes"/>
      <point x="1700.65039062" y="648.0"/>
      <point x="1703.32009185" y="644.715782067"/>
      <point x="1699.65039062" y="637.0" type="curve" smooth="yes"/>
      <point x="1504.65039062" y="227.0"/>
      <point x="867.650390625" y="-35.0"/>
      <point x="559.650390625" y="-35.0" type="curve" smooth="yes"/>
      <point x="343.650390625" y="-35.0"/>
      <point x="215.822238464" y="24.9698650494"/>
      <point x="147.650390625" y="119.0" type="curve" smooth="yes"/>
      <point x="89.650390625" y="199.0" type="line" smooth="yes"/>
      <point x="33.0285143448" y="277.099139697"/>
      <point x="9.650390625" y="352.0"/>
      <point x="9.650390625" y="448.0" type="curve" smooth="yes"/>
      <point x="9.650390625" y="637.0"/>
      <point x="200.650390625" y="747.0"/>
      <point x="675.650390625" y="862.0" type="curve" smooth="yes"/>
      <point x="843.331054688" y="902.596679688"/>
      <point x="973.650390625" y="1032.0"/>
      <point x="973.650390625" y="1113.0" type="curve" smooth="yes"/>
      <point x="973.650390625" y="1133.0"/>
      <point x="950.650390625" y="1150.0"/>
      <point x="913.650390625" y="1150.0" type="curve" smooth="yes"/>
      <point x="876.650390625" y="1150.0"/>
      <point x="858.650390625" y="1132.0"/>
      <point x="858.650390625" y="1103.0" type="curve" smooth="yes"/>
      <point x="858.650390625" y="1054.0"/>
      <point x="929.650390625" y="973.0"/>
      <point x="995.650390625" y="876.0" type="curve" smooth="yes"/>
      <point x="1611.65039062" y="10.0" type="line" smooth="yes"/>
      <point x="1616.65039062" y="3.0"/>
      <point x="1615.65039062" y="0.0"/>
      <point x="1608.65039062" y="0.0" type="curve" smooth="yes"/>
      <point x="1078.65039062" y="0.0" type="line" smooth="yes"/>
      <point x="1071.65039062" y="0.0"/>
      <point x="1066.65039062" y="3.0"/>
    </contour>
  </outline>
</glyph>
<glyph name="quotesingle" format="2">
  <advance height="1920" width="610"/>
  <unicode hex="0027"/>
  <outline>
    <contour>
      <point x="400.0" y="830.0" type="curve" smooth="yes"/>
      <point x="200.0" y="830.0" type="line" smooth="yes"/>
      <point x="193.0" y="830.0"/>
      <point x="189.159179688" y="833.197265625"/>
      <point x="188.0" y="840.0" type="curve" smooth="yes"/>
      <point x="72.0" y="1160.0" type="line" smooth="yes"/>
      <point x="70.8408203125" y="1166.80273438"/>
      <point x="70.0" y="1173.0"/>
      <point x="70.0" y="1180.0" type="curve" smooth="yes"/>
      <point x="70.0" y="1410.0" type="line" smooth="yes"/>
      <point x="70.0" y="1417.0"/>
      <point x="73.0" y="1420.0"/>
      <point x="80.0" y="1420.0" type="curve" smooth="yes"/>
      <point x="530.0" y="1420.0" type="line" smooth="yes"/>
      <point x="537.0" y="1420.0"/>
      <point x="540.0" y="1417.0"/>
      <point x="540.0" y="1410.0" type="curve" smooth="yes"/>
      <point x="540.0" y="1180.0" type="line" smooth="yes"/>
      <point x="540.0" y="1173.0"/>
      <point x="539.159179688" y="1166.80273438"/>
      <point x="538.0" y="1160.0" type="curve" smooth="yes"/>
      <point x="412.0" y="840.0" type="line" smooth="yes"/>
      <point x="410.840820312" y="833.197265625"/>
      <point x="407.0" y="830.0"/>
    </contour>
  </outline>
</glyph>
<glyph name="parenleft" format="2">
  <advance height="2048" width="785"/>
  <unicode hex="0028"/>
  <outline>
    <contour>
      <point x="20.0" y="838.0" type="line" smooth="yes"/>
      <point x="20.0" y="1243.0"/>
      <point x="309.35546875" y="1561.42578125"/>
      <point x="739.315429688" y="1618.0" type="curve" smooth="yes"/>
      <point x="747.224609375" y="1619.04101562"/>
      <point x="750.0" y="1617.13964844"/>
      <point x="750.0" y="1610.0" type="curve" smooth="yes"/>
      <point x="750.0" y="1390.0" type="line" smooth="yes"/>
      <point x="750.0" y="1383.21679688"/>
      <point x="747.4375" y="1379.47753906"/>
      <point x="740.721679688" y="1376.0" type="curve" smooth="yes"/>
      <point x="642.015625" y="1324.88964844"/>
      <point x="495.0" y="1209.0"/>
      <point x="495.0" y="808.0" type="curve" smooth="yes"/>
      <point x="495.0" y="442.0" type="line" smooth="yes"/>
      <point x="495.0" y="41.0"/>
      <point x="642.015625" y="-74.8896484375"/>
      <point x="740.721679688" y="-126.0" type="curve" smooth="yes"/>
      <point x="747.4375" y="-129.477539062"/>
      <point x="750.0" y="-133.216796875"/>
      <point x="750.0" y="-140.0" type="curve" smooth="yes"/>
      <point x="750.0" y="-360.0" type="line" smooth="yes"/>
      <point x="750.0" y="-367.139648438"/>
      <point x="747.224609375" y="-369.041015625"/>
      <point x="739.315429688" y="-368.0" type="curve" smooth="yes"/>
      <point x="309.35546875" y="-311.42578125"/>
      <point x="20.0" y="7.0"/>
      <point x="20.0" y="412.0" type="curve" smooth="yes"/>
    </contour>
  </outline>
</glyph>
<glyph name="parenright" format="2">
  <advance height="2048" width="785"/>
  <unicode hex="0029"/>
  <outline>
    <contour>
      <point x="765.0" y="412.0" type="line" smooth="yes"/>
      <point x="765.0" y="7.0"/>
      <point x="475.64453125" y="-311.42578125"/>
      <point x="45.6845703125" y="-368.0" type="curve" smooth="yes"/>
      <point x="37.775390625" y="-369.041015625"/>
      <point x="35.0" y="-367.139648438"/>
      <point x="35.0" y="-360.0" type="curve" smooth="yes"/>
      <point x="35.0" y="-140.0" type="line" smooth="yes"/>
      <point x="35.0" y="-133.216796875"/>
      <point x="37.5625" y="-129.477539062"/>
      <point x="44.2783203125" y="-126.0" type="curve" smooth="yes"/>
      <point x="142.984375" y="-74.8896484375"/>
      <point x="290.0" y="41.0"/>
      <point x="290.0" y="442.0" type="curve" smooth="yes"/>
      <point x="290.0" y="808.0" type="line" smooth="yes"/>
      <point x="290.0" y="1209.0"/>
      <point x="142.984375" y="1324.88964844"/>
      <point x="44.2783203125" y="1376.0" type="curve" smooth="yes"/>
      <point x="37.5625" y="1379.47753906"/>
      <point x="35.0" y="1383.21679688"/>
      <point x="35.0" y="1390.0" type="curve" smooth="yes"/>
      <point x="35.0" y="1610.0" type="line" smooth="yes"/>
      <point x="35.0" y="1617.13964844"/>
      <point x="37.775390625" y="1619.04101562"/>
      <point x="45.6845703125" y="1618.0" type="curve" smooth="yes"/>
      <point x="475.64453125" y="1561.42578125"/>
      <point x="765.0" y="1243.0"/>
      <point x="765.0" y="838.0" type="curve" smooth="yes"/>
    </contour>
  </outline>
</glyph>
<glyph name="asterisk" format="2">
  <advance height="2048" width="1287"/>
  <unicode hex="002A"/>
  <outline>
    <contour>
      <point x="655.0" y="887.0" type="line"/>
      <point x="632.0" y="953.0" type="line"/>
      <point x="950.0" y="1266.0" type="line" smooth="yes"/>
      <point x="956.0" y="1269.0"/>
      <point x="963.0" y="1270.0"/>
      <point x="970.0" y="1271.0" type="curve" smooth="yes"/>
      <point x="1135.0" y="1318.0" type="line" smooth="yes"/>
      <point x="1142.0" y="1319.0"/>
      <point x="1146.0" y="1317.0"/>
      <point x="1148.0" y="1310.0" type="curve" smooth="yes"/>
      <point x="1281.0" y="901.0" type="line" smooth="yes"/>
      <point x="1283.0" y="894.0"/>
      <point x="1280.0" y="891.0"/>
      <point x="1274.0" y="888.0" type="curve" smooth="yes"/>
      <point x="1116.0" y="828.0" type="line" smooth="yes"/>
      <point x="1110.0" y="825.0"/>
      <point x="1102.0" y="823.0"/>
      <point x="1095.0" y="822.0" type="curve" smooth="yes"/>
    </contour>
    <contour>
      <point x="614.0" y="900.0" type="line"/>
      <point x="670.0" y="942.0" type="line"/>
      <point x="1066.0" y="736.0" type="line" smooth="yes"/>
      <point x="1071.0" y="731.0"/>
      <point x="1074.0" y="725.0"/>
      <point x="1077.0" y="719.0" type="curve" smooth="yes"/>
      <point x="1172.0" y="576.0" type="line" smooth="yes"/>
      <point x="1175.0" y="570.0"/>
      <point x="1175.0" y="566.0"/>
      <point x="1169.0" y="562.0" type="curve" smooth="yes"/>
      <point x="821.0" y="309.0" type="line" smooth="yes"/>
      <point x="815.0" y="305.0"/>
      <point x="811.0" y="306.0"/>
      <point x="806.0" y="311.0" type="curve" smooth="yes"/>
      <point x="700.0" y="443.0" type="line" smooth="yes"/>
      <point x="695.0" y="448.0"/>
      <point x="691.0" y="455.0"/>
      <point x="688.0" y="461.0" type="curve" smooth="yes"/>
    </contour>
    <contour>
      <point x="615.0" y="941.0" type="line"/>
      <point x="672.0" y="900.0" type="line"/>
      <point x="598.0" y="460.0" type="line" smooth="yes"/>
      <point x="595.0" y="454.0"/>
      <point x="591.0" y="449.0"/>
      <point x="586.0" y="444.0" type="curve" smooth="yes"/>
      <point x="479.0" y="310.0" type="line" smooth="yes"/>
      <point x="474.0" y="305.0"/>
      <point x="471.0" y="304.0"/>
      <point x="465.0" y="308.0" type="curve" smooth="yes"/>
      <point x="117.0" y="561.0" type="line" smooth="yes"/>
      <point x="111.0" y="565.0"/>
      <point x="111.0" y="570.0"/>
      <point x="114.0" y="576.0" type="curve" smooth="yes"/>
      <point x="207.0" y="718.0" type="line" smooth="yes"/>
      <point x="210.0" y="724.0"/>
      <point x="215.0" y="729.0"/>
      <point x="220.0" y="734.0" type="curve" smooth="yes"/>
    </contour>
    <contour>
      <point x="653.0" y="953.0" type="line"/>
      <point x="632.0" y="886.0" type="line"/>
      <point x="190.0" y="820.0" type="line" smooth="yes"/>
      <point x="183.0" y="821.0"/>
      <point x="177.0" y="824.0"/>
      <point x="171.0" y="827.0" type="curve" smooth="yes"/>
      <point x="11.0" y="887.0" type="line" smooth="yes"/>
      <point x="5.0" y="890.0"/>
      <point x="3.0" y="893.0"/>
      <point x="5.0" y="900.0" type="curve" smooth="yes"/>
      <point x="138.0" y="1309.0" type="line" smooth="yes"/>
      <point x="140.0" y="1316.0"/>
      <point x="144.0" y="1318.0"/>
      <point x="151.0" y="1317.0" type="curve" smooth="yes"/>
      <point x="315.0" y="1272.0" type="line" smooth="yes"/>
      <point x="322.0" y="1271.0"/>
      <point x="328.0" y="1268.0"/>
      <point x="334.0" y="1265.0" type="curve" smooth="yes"/>
    </contour>
    <contour>
      <point x="678.0" y="920.0" type="line"/>
      <point x="608.0" y="920.0" type="line"/>
      <point x="409.0" y="1320.0" type="line" smooth="yes"/>
      <point x="408.0" y="1327.0"/>
      <point x="408.0" y="1333.0"/>
      <point x="409.0" y="1340.0" type="curve" smooth="yes"/>
      <point x="417.0" y="1510.0" type="line" smooth="yes"/>
      <point x="418.0" y="1517.0"/>
      <point x="421.0" y="1520.0"/>
      <point x="428.0" y="1520.0" type="curve" smooth="yes"/>
      <point x="858.0" y="1520.0" type="line" smooth="yes"/>
      <point x="865.0" y="1520.0"/>
      <point x="868.0" y="1517.0"/>
      <point x="869.0" y="1510.0" type="curve" smooth="yes"/>
      <point x="877.0" y="1340.0" type="line" smooth="yes"/>
      <point x="878.0" y="1333.0"/>
      <point x="878.0" y="1327.0"/>
      <point x="877.0" y="1320.0" type="curve" smooth="yes"/>
    </contour>
  </outline>
</glyph>
<glyph name="plus" format="2">
  <advance height="1920" width="1040"/>
  <unicode hex="002B"/>
  <outline>
    <contour>
      <point x="45.0" y="525.0" type="curve" smooth="yes"/>
      <point x="45.0" y="860.0" type="line" smooth="yes"/>
      <point x="45.0" y="867.0"/>
      <point x="48.0" y="870.0"/>
      <point x="55.0" y="870.0" type="curve" smooth="yes"/>
      <point x="985.0" y="870.0" type="line" smooth="yes"/>
      <point x="992.0" y="870.0"/>
      <point x="995.0" y="867.0"/>
      <point x="995.0" y="860.0" type="curve" smooth="yes"/>
      <point x="995.0" y="525.0" type="line" smooth="yes"/>
      <point x="995.0" y="518.0"/>
      <point x="992.0" y="515.0"/>
      <point x="985.0" y="515.0" type="curve" smooth="yes"/>
      <point x="55.0" y="515.0" type="line" smooth="yes"/>
      <point x="48.0" y="515.0"/>
      <point x="45.0" y="518.0"/>
    </contour>
    <contour>
      <point x="355.0" y="1190.0" type="curve" smooth="yes"/>
      <point x="685.0" y="1190.0" type="line" smooth="yes"/>
      <point x="692.0" y="1190.0"/>
      <point x="695.0" y="1187.0"/>
      <point x="695.0" y="1180.0" type="curve" smooth="yes"/>
      <point x="695.0" y="180.0" type="line" smooth="yes"/>
      <point x="695.0" y="173.0"/>
      <point x="692.0" y="170.0"/>
      <point x="685.0" y="170.0" type="curve" smooth="yes"/>
      <point x="355.0" y="170.0" type="line" smooth="yes"/>
      <point x="348.0" y="170.0"/>
      <point x="345.0" y="173.0"/>
      <point x="345.0" y="180.0" type="curve" smooth="yes"/>
      <point x="345.0" y="1180.0" type="line" smooth="yes"/>
      <point x="345.0" y="1187.0"/>
      <point x="348.0" y="1190.0"/>
    </contour>
  </outline>
</glyph>
<glyph name="comma" format="2">
  <advance height="1920" width="740"/>
  <unicode hex="002C"/>
  <outline>
    <contour>
      <point x="193.0" y="-310.0" type="curve" smooth="yes"/>
      <point x="95.0" y="-310.0" type="line" smooth="yes"/>
      <point x="88.0" y="-310.0"/>
      <point x="85.375961116" y="-307.113905975"/>
      <point x="90.0" y="-300.0" type="curve" smooth="yes"/>
      <point x="285.0" y="0.0" type="line"/>
      <point x="125.0" y="0.0" type="line" smooth="yes"/>
      <point x="116.479492188" y="0.0"/>
      <point x="115.0" y="1.404296875"/>
      <point x="115.0" y="10.0" type="curve" smooth="yes"/>
      <point x="115.0" y="450.0" type="line" smooth="yes"/>
      <point x="115.0" y="457.0"/>
      <point x="118.0" y="460.0"/>
      <point x="125.0" y="460.0" type="curve" smooth="yes"/>
      <point x="615.0" y="460.0" type="line" smooth="yes"/>
      <point x="622.0" y="460.0"/>
      <point x="625.0" y="457.0"/>
      <point x="625.0" y="450.0" type="curve" smooth="yes"/>
      <point x="625.0" y="20.0" type="line" smooth="yes"/>
      <point x="625.0" y="13.0"/>
      <point x="623.3359375" y="8.5302734375"/>
      <point x="616.0" y="0.0" type="curve" smooth="yes"/>
      <point x="214.0" y="-300.0" type="line" smooth="yes"/>
      <point x="205.768703778" y="-306.142758375"/>
      <point x="201.0" y="-310.0"/>
    </contour>
  </outline>
</glyph>
<glyph name="hyphen" format="2">
  <advance height="1920" width="570"/>
  <unicode hex="002D"/>
  <outline>
    <contour>
      <point x="40.0" y="445.0" type="curve" smooth="yes"/>
      <point x="40.0" y="780.0" type="line" smooth="yes"/>
      <point x="40.0" y="787.0"/>
      <point x="43.0" y="790.0"/>
      <point x="50.0" y="790.0" type="curve" smooth="yes"/>
      <point x="520.0" y="790.0" type="line" smooth="yes"/>
      <point x="527.0" y="790.0"/>
      <point x="530.0" y="787.0"/>
      <point x="530.0" y="780.0" type="curve" smooth="yes"/>
      <point x="530.0" y="445.0" type="line" smooth="yes"/>
      <point x="530.0" y="438.0"/>
      <point x="527.0" y="435.0"/>
      <point x="520.0" y="435.0" type="curve" smooth="yes"/>
      <point x="50.0" y="435.0" type="line" smooth="yes"/>
      <point x="43.0" y="435.0"/>
      <point x="40.0" y="438.0"/>
    </contour>
  </outline>
</glyph>
<glyph name="period" format="2">
  <advance height="1920" width="740"/>
  <unicode hex="002E"/>
  <outline>
    <contour>
      <point x="615.0" y="0.0" type="curve" smooth="yes"/>
      <point x="125.0" y="0.0" type="line" smooth="yes"/>
      <point x="118.0" y="0.0"/>
      <point x="115.0" y="3.0"/>
      <point x="115.0" y="10.0" type="curve" smooth="yes"/>
      <point x="115.0" y="450.0" type="line" smooth="yes"/>
      <point x="115.0" y="457.0"/>
      <point x="118.0" y="460.0"/>
      <point x="125.0" y="460.0" type="curve" smooth="yes"/>
      <point x="615.0" y="460.0" type="line" smooth="yes"/>
      <point x="622.0" y="460.0"/>
      <point x="625.0" y="457.0"/>
      <point x="625.0" y="450.0" type="curve" smooth="yes"/>
      <point x="625.0" y="10.0" type="line" smooth="yes"/>
      <point x="625.0" y="3.0"/>
      <point x="622.0" y="0.0"/>
    </contour>
  </outline>
</glyph>
<glyph name="slash" format="2">
  <advance height="2048" width="1040"/>
  <unicode hex="002F"/>
  <outline>
    <contour>
      <point x="996.0" y="1390.0" type="curve" smooth="yes"/>
      <point x="379.0" y="-90.0" type="line" smooth="yes"/>
      <point x="375.448242188" y="-98.51953125"/>
      <point x="372.0" y="-100.0"/>
      <point x="365.0" y="-100.0" type="curve" smooth="yes"/>
      <point x="25.0" y="-100.0" type="line" smooth="yes"/>
      <point x="18.0" y="-100.0"/>
      <point x="15.4483532075" y="-98.5193472494"/>
      <point x="19.0" y="-90.0" type="curve" smooth="yes"/>
      <point x="636.0" y="1390.0" type="line" smooth="yes"/>
      <point x="639.551646792" y="1398.51934725"/>
      <point x="644.0" y="1400.0"/>
      <point x="650.0" y="1400.0" type="curve" smooth="yes"/>
      <point x="990.0" y="1400.0" type="line" smooth="yes"/>
      <point x="997.0" y="1400.0"/>
      <point x="999.551757812" y="1398.51953125"/>
    </contour>
  </outline>
</glyph>
<glyph name="one" format="2">
  <advance height="1920" width="640"/>
  <unicode hex="0031"/>
  <outline>
    <contour>
      <point x="86.0" y="1324.24902344" type="curve" smooth="yes"/>
      <point x="227.940429688" y="1326.59082031"/>
      <point x="277.987304688" y="1367.43554688"/>
      <point x="288.745117188" y="1440.0" type="curve" smooth="yes"/>
      <point x="289.842773438" y="1447.40527344"/>
      <point x="294.3984375" y="1450.0"/>
      <point x="301.0" y="1450.0" type="curve" smooth="yes"/>
      <point x="555.0" y="1450.0" type="line" smooth="yes"/>
      <point x="562.0" y="1450.0"/>
      <point x="565.0" y="1447.0"/>
      <point x="565.0" y="1440.0" type="curve" smooth="yes"/>
      <point x="565.0" y="10.0" type="line" smooth="yes"/>
      <point x="565.0" y="3.0"/>
      <point x="562.0" y="0.0"/>
      <point x="555.0" y="0.0" type="curve" smooth="yes"/>
      <point x="85.0" y="0.0" type="line" smooth="yes"/>
      <point x="78.0" y="0.0"/>
      <point x="75.0" y="3.0"/>
      <point x="75.0" y="10.0" type="curve" smooth="yes"/>
      <point x="75.0" y="1314.0" type="line" smooth="yes"/>
      <point x="75.0" y="1320.734375"/>
      <point x="77.9843174535" y="1324.11677711"/>
    </contour>
  </outline>
</glyph>
<glyph name="two" format="2">
  <advance height="1920" width="1280"/>
  <unicode hex="0032"/>
  <outline>
    <contour>
      <point x="30.0" y="60.0" type="line" smooth="yes"/>
      <point x="30.0" y="604.034179688"/>
      <point x="735.0" y="695.631835938"/>
      <point x="735.0" y="993.0" type="curve" smooth="yes"/>
      <point x="735.0" y="998.0" type="line" smooth="yes"/>
      <point x="735.0" y="1058.0"/>
      <point x="698.0" y="1085.0"/>
      <point x="641.0" y="1085.0" type="curve" smooth="yes"/>
      <point x="571.0" y="1085.0"/>
      <point x="535.0" y="1054.57617188"/>
      <point x="535.0" y="1002.0" type="curve" smooth="yes"/>
      <point x="535.0" y="912.0" type="line" smooth="yes"/>
      <point x="535.0" y="905.0"/>
      <point x="532.0" y="902.0"/>
      <point x="525.0" y="902.0" type="curve" smooth="yes"/>
      <point x="65.0" y="902.0" type="line" smooth="yes"/>
      <point x="58.0" y="902.0"/>
      <point x="55.0" y="905.0"/>
      <point x="55.0" y="912.0" type="curve" smooth="yes"/>
      <point x="55.0" y="1002.0" type="line" smooth="yes"/>
      <point x="55.0" y="1275.74121094"/>
      <point x="262.0" y="1435.0"/>
      <point x="659.0" y="1435.0" type="curve" smooth="yes"/>
      <point x="986.0" y="1435.0"/>
      <point x="1215.0" y="1303.0"/>
      <point x="1215.0" y="1043.0" type="curve" smooth="yes"/>
      <point x="1215.0" y="998.0" type="line" smooth="yes"/>
      <point x="1215.0" y="582.094726562"/>
      <point x="620.0" y="531.0"/>
      <point x="620.0" y="380.0" type="curve" smooth="yes"/>
      <point x="620.0" y="370.0" type="line"/>
      <point x="1240.0" y="370.0" type="line" smooth="yes"/>
      <point x="1247.0" y="370.0"/>
      <point x="1250.0" y="367.0"/>
      <point x="1250.0" y="360.0" type="curve" smooth="yes"/>
      <point x="1250.0" y="10.0" type="line" smooth="yes"/>
      <point x="1250.0" y="3.0"/>
      <point x="1247.0" y="0.0"/>
      <point x="1240.0" y="0.0" type="curve" smooth="yes"/>
      <point x="40.0" y="0.0" type="line" smooth="yes"/>
      <point x="33.0" y="0.0"/>
      <point x="30.0" y="3.0"/>
      <point x="30.0" y="10.0" type="curve" smooth="yes"/>
    </contour>
  </outline>
</glyph>
<glyph name="three" format="2">
  <advance height="1920" width="1300"/>
  <unicode hex="0033"/>
  <outline>
    <contour>
      <point x="40.0" y="507.0" type="curve" smooth="yes"/>
      <point x="510.0" y="507.0" type="line" smooth="yes"/>
      <point x="517.0" y="507.0"/>
      <point x="520.0" y="504.0"/>
      <point x="520.0" y="497.0" type="curve" smooth="yes"/>
      <point x="520.0" y="487.0" type="line" smooth="yes"/>
      <point x="520.0" y="367.036132812"/>
      <point x="561.0" y="315.0"/>
      <point x="640.0" y="315.0" type="curve" smooth="yes"/>
      <point x="727.0" y="315.0"/>
      <point x="775.0" y="352.0"/>
      <point x="775.0" y="422.0" type="curve" smooth="yes"/>
      <point x="775.0" y="447.0" type="line" smooth="yes"/>
      <point x="775.0" y="517.0"/>
      <point x="726.918945312" y="560.0"/>
      <point x="630.0" y="560.0" type="curve" smooth="yes"/>
      <point x="550.0" y="560.0" type="line" smooth="yes"/>
      <point x="543.0" y="560.0"/>
      <point x="540.0" y="563.0"/>
      <point x="540.0" y="570.0" type="curve" smooth="yes"/>
      <point x="540.0" y="900.0" type="line" smooth="yes"/>
      <point x="540.0" y="907.0"/>
      <point x="543.0" y="910.0"/>
      <point x="550.0" y="910.0" type="curve" smooth="yes"/>
      <point x="610.0" y="910.0" type="line" smooth="yes"/>
      <point x="676.885742188" y="910.0"/>
      <point x="720.0" y="933.0"/>
      <point x="720.0" y="993.0" type="curve" smooth="yes"/>
      <point x="720.0" y="1008.0" type="line" smooth="yes"/>
      <point x="720.0" y="1048.0"/>
      <point x="696.0" y="1085.0"/>
      <point x="639.0" y="1085.0" type="curve" smooth="yes"/>
      <point x="569.0" y="1085.0"/>
      <point x="545.0" y="1054.81445312"/>
      <point x="545.0" y="992.0" type="curve" smooth="yes"/>
      <point x="545.0" y="962.0" type="line" smooth="yes"/>
      <point x="545.0" y="955.0"/>
      <point x="542.0" y="952.0"/>
      <point x="535.0" y="952.0" type="curve" smooth="yes"/>
      <point x="75.0" y="952.0" type="line" smooth="yes"/>
      <point x="68.0" y="952.0"/>
      <point x="65.0" y="955.0"/>
      <point x="65.0" y="962.0" type="curve" smooth="yes"/>
      <point x="65.0" y="1052.0" type="line" smooth="yes"/>
      <point x="65.0" y="1286.0"/>
      <point x="297.0" y="1435.0"/>
      <point x="644.0" y="1435.0" type="curve" smooth="yes"/>
      <point x="991.0" y="1435.0"/>
      <point x="1215.0" y="1313.0"/>
      <point x="1215.0" y="1083.0" type="curve" smooth="yes"/>
      <point x="1215.0" y="1058.0" type="line" smooth="yes"/>
      <point x="1215.0" y="808.0"/>
      <point x="967.0" y="720.0"/>
      <point x="710.0" y="720.0" type="curve"/>
      <point x="730.0" y="770.0" type="line"/>
      <point x="987.0" y="770.0"/>
      <point x="1265.0" y="672.0"/>
      <point x="1265.0" y="422.0" type="curve" smooth="yes"/>
      <point x="1265.0" y="347.0" type="line" smooth="yes"/>
      <point x="1265.0" y="107.0"/>
      <point x="1027.0" y="-35.0"/>
      <point x="630.0" y="-35.0" type="curve" smooth="yes"/>
      <point x="278.0" y="-35.0"/>
      <point x="30.0" y="129.0"/>
      <point x="30.0" y="427.0" type="curve" smooth="yes"/>
      <point x="30.0" y="497.0" type="line" smooth="yes"/>
      <point x="30.0" y="504.0"/>
      <point x="33.0" y="507.0"/>
    </contour>
  </outline>
</glyph>
<glyph name="four" format="2">
  <advance height="1920" width="1310"/>
  <unicode hex="0034"/>
  <outline>
    <contour>
      <point x="1310.0" y="570.0" type="curve" smooth="yes"/>
      <point x="1310.0" y="240.0" type="line" smooth="yes"/>
      <point x="1310.0" y="233.0"/>
      <point x="1307.0" y="230.0"/>
      <point x="1300.0" y="230.0" type="curve" smooth="yes"/>
      <point x="1120.0" y="230.0" type="line"/>
      <point x="1120.0" y="10.0" type="line" smooth="yes"/>
      <point x="1120.0" y="3.0"/>
      <point x="1117.0" y="0.0"/>
      <point x="1110.0" y="0.0" type="curve" smooth="yes"/>
      <point x="640.0" y="0.0" type="line" smooth="yes"/>
      <point x="633.0" y="0.0"/>
      <point x="630.0" y="3.0"/>
      <point x="630.0" y="10.0" type="curve" smooth="yes"/>
      <point x="630.0" y="230.0" type="line"/>
      <point x="30.0" y="230.0" type="line" smooth="yes"/>
      <point x="23.0" y="230.0"/>
      <point x="20.0" y="233.0"/>
      <point x="20.0" y="240.0" type="curve" smooth="yes"/>
      <point x="20.0" y="690.0" type="line" smooth="yes"/>
      <point x="20.0" y="697.0"/>
      <point x="21.6259765625" y="702.678710938"/>
      <point x="27.0" y="710.0" type="curve" smooth="yes"/>
      <point x="603.0" y="1390.0" type="line" smooth="yes"/>
      <point x="606.83984375" y="1395.16015625"/>
      <point x="612.5078125" y="1400.0"/>
      <point x="620.0" y="1400.0" type="curve" smooth="yes"/>
      <point x="1110.0" y="1400.0" type="line" smooth="yes"/>
      <point x="1117.0" y="1400.0"/>
      <point x="1120.0" y="1397.0"/>
      <point x="1120.0" y="1390.0" type="curve" smooth="yes"/>
      <point x="1120.0" y="580.0" type="line"/>
      <point x="1300.0" y="580.0" type="line" smooth="yes"/>
      <point x="1307.0" y="580.0"/>
      <point x="1310.0" y="577.0"/>
    </contour>
    <contour>
      <point x="640.0" y="580.0" type="line"/>
      <point x="640.0" y="980.833007812" type="line"/>
      <point x="305.0" y="580.0" type="line"/>
    </contour>
  </outline>
</glyph>
<glyph name="five" format="2">
  <advance height="1920" width="1300"/>
  <unicode hex="0035"/>
  <outline>
    <contour>
      <point x="70.0" y="418.0" type="curve" smooth="yes"/>
      <point x="520.0" y="418.0" type="line" smooth="yes"/>
      <point x="526.907226562" y="418.0"/>
      <point x="529.617527224" y="414.956850353"/>
      <point x="530.643554688" y="409.0" type="curve" smooth="yes"/>
      <point x="543.91015625" y="331.977539062"/>
      <point x="597.780273438" y="305.0"/>
      <point x="645.0" y="305.0" type="curve" smooth="yes"/>
      <point x="714.0" y="305.0"/>
      <point x="760.0" y="355.0"/>
      <point x="760.0" y="448.0" type="curve" smooth="yes"/>
      <point x="760.0" y="473.0" type="line" smooth="yes"/>
      <point x="760.0" y="573.0"/>
      <point x="729.0" y="605.0"/>
      <point x="665.0" y="605.0" type="curve" smooth="yes"/>
      <point x="613.91015625" y="605.0"/>
      <point x="575.405273438" y="564.098632812"/>
      <point x="556.0" y="513.57421875" type="curve" smooth="yes"/>
      <point x="552.481621785" y="504.413616179"/>
      <point x="546.759765625" y="503.0"/>
      <point x="540.0" y="503.0" type="curve" smooth="yes"/>
      <point x="90.0" y="503.0" type="line" smooth="yes"/>
      <point x="83.0" y="503.0"/>
      <point x="79.7822265625" y="504.877929688"/>
      <point x="81.0" y="513.0" type="curve" smooth="yes"/>
      <point x="190.0" y="1390.0" type="line" smooth="yes"/>
      <point x="191.026367188" y="1396.84570312"/>
      <point x="194.0" y="1400.0"/>
      <point x="201.0" y="1400.0" type="curve" smooth="yes"/>
      <point x="1181.0" y="1400.0" type="line" smooth="yes"/>
      <point x="1188.0" y="1400.0"/>
      <point x="1191.0" y="1397.0"/>
      <point x="1191.0" y="1390.0" type="curve" smooth="yes"/>
      <point x="1191.0" y="1245.0" type="line" smooth="yes"/>
      <point x="1191.0" y="1125.0"/>
      <point x="1141.0" y="1050.0"/>
      <point x="921.0" y="1050.0" type="curve" smooth="yes"/>
      <point x="556.0" y="1050.0" type="line"/>
      <point x="492.328125" y="745.357421875" type="line"/>
      <point x="469.328125" y="745.357421875" type="line"/>
      <point x="523.97265625" y="868.810546875"/>
      <point x="699.609375" y="955.0"/>
      <point x="860.0" y="955.0" type="curve" smooth="yes"/>
      <point x="1100.0" y="955.0"/>
      <point x="1250.0" y="840.0"/>
      <point x="1250.0" y="513.0" type="curve" smooth="yes"/>
      <point x="1250.0" y="448.0" type="line" smooth="yes"/>
      <point x="1250.0" y="121.0"/>
      <point x="1045.0" y="-35.0"/>
      <point x="635.0" y="-35.0" type="curve" smooth="yes"/>
      <point x="301.010742188" y="-35.0"/>
      <point x="76.26953125" y="101.000976562"/>
      <point x="60.5361328125" y="408.0" type="curve" smooth="yes"/>
      <point x="60.1764402488" y="415.018525987"/>
      <point x="62.9169921875" y="418.0"/>
    </contour>
  </outline>
</glyph>
<glyph name="six" format="2">
  <advance height="1920" width="1429"/>
  <unicode hex="0036"/>
  <outline>
    <contour>
      <point x="730.0" y="640.0" type="curve" smooth="yes"/>
      <point x="620.0" y="640.0"/>
      <point x="560.0" y="585.0"/>
      <point x="560.0" y="502.0" type="curve" smooth="yes"/>
      <point x="560.0" y="442.0" type="line"/>
      <point x="470.0" y="522.0" type="line"/>
      <point x="470.0" y="786.0"/>
      <point x="603.0" y="890.0"/>
      <point x="900.0" y="890.0" type="curve" smooth="yes"/>
      <point x="1227.0" y="890.0"/>
      <point x="1369.0" y="731.0"/>
      <point x="1369.0" y="457.0" type="curve" smooth="yes"/>
      <point x="1369.0" y="407.0" type="line" smooth="yes"/>
      <point x="1369.0" y="129.0"/>
      <point x="1121.0" y="-35.0"/>
      <point x="729.0" y="-35.0" type="curve" smooth="yes"/>
      <point x="252.0" y="-35.0"/>
      <point x="75.0" y="167.0"/>
      <point x="75.0" y="527.0" type="curve" smooth="yes"/>
      <point x="75.0" y="843.0" type="line" smooth="yes"/>
      <point x="75.0" y="1223.0"/>
      <point x="293.0" y="1435.0"/>
      <point x="720.0" y="1435.0" type="curve" smooth="yes"/>
      <point x="1117.0" y="1435.0"/>
      <point x="1314.0" y="1215.83496094"/>
      <point x="1314.0" y="1032.0" type="curve" smooth="yes"/>
      <point x="1314.0" y="1002.0" type="line" smooth="yes"/>
      <point x="1314.0" y="995.0"/>
      <point x="1311.0" y="992.0"/>
      <point x="1304.0" y="992.0" type="curve" smooth="yes"/>
      <point x="854.0" y="992.0" type="line" smooth="yes"/>
      <point x="847.0" y="992.0"/>
      <point x="844.0" y="995.0"/>
      <point x="844.0" y="1002.0" type="curve" smooth="yes"/>
      <point x="844.0" y="1012.0" type="line" smooth="yes"/>
      <point x="844.0" y="1044.91113281"/>
      <point x="820.0" y="1085.0"/>
      <point x="740.0" y="1085.0" type="curve" smooth="yes"/>
      <point x="613.0" y="1085.0"/>
      <point x="560.0" y="988.0"/>
      <point x="560.0" y="838.0" type="curve" smooth="yes"/>
      <point x="560.0" y="462.0" type="line" smooth="yes"/>
      <point x="560.0" y="372.0"/>
      <point x="612.0" y="315.0"/>
      <point x="719.0" y="315.0" type="curve" smooth="yes"/>
      <point x="838.0" y="315.0"/>
      <point x="879.0" y="377.0"/>
      <point x="879.0" y="457.0" type="curve" smooth="yes"/>
      <point x="879.0" y="477.0" type="line" smooth="yes"/>
      <point x="879.0" y="560.0"/>
      <point x="840.0" y="640.0"/>
    </contour>
  </outline>
</glyph>
<glyph name="nine" format="2">
  <advance height="1920" width="1429"/>
  <unicode hex="0039"/>
  <outline>
    <contour>
      <point x="699.0" y="760.0" type="curve" smooth="yes"/>
      <point x="809.0" y="760.0"/>
      <point x="869.0" y="815.0"/>
      <point x="869.0" y="898.0" type="curve" smooth="yes"/>
      <point x="869.0" y="958.0" type="line"/>
      <point x="959.0" y="878.0" type="line"/>
      <point x="959.0" y="614.0"/>
      <point x="826.0" y="510.0"/>
      <point x="529.0" y="510.0" type="curve" smooth="yes"/>
      <point x="202.0" y="510.0"/>
      <point x="60.0" y="669.0"/>
      <point x="60.0" y="943.0" type="curve" smooth="yes"/>
      <point x="60.0" y="993.0" type="line" smooth="yes"/>
      <point x="60.0" y="1271.0"/>
      <point x="308.0" y="1435.0"/>
      <point x="700.0" y="1435.0" type="curve" smooth="yes"/>
      <point x="1177.0" y="1435.0"/>
      <point x="1354.0" y="1233.0"/>
      <point x="1354.0" y="873.0" type="curve" smooth="yes"/>
      <point x="1354.0" y="557.0" type="line" smooth="yes"/>
      <point x="1354.0" y="177.0"/>
      <point x="1116.0" y="-35.0"/>
      <point x="679.0" y="-35.0" type="curve" smooth="yes"/>
      <point x="252.0" y="-35.0"/>
      <point x="55.0" y="154.165039062"/>
      <point x="55.0" y="368.0" type="curve" smooth="yes"/>
      <point x="55.0" y="398.0" type="line" smooth="yes"/>
      <point x="55.0" y="405.0"/>
      <point x="58.0" y="408.0"/>
      <point x="65.0" y="408.0" type="curve" smooth="yes"/>
      <point x="515.0" y="408.0" type="line" smooth="yes"/>
      <point x="522.0" y="408.0"/>
      <point x="525.0" y="405.0"/>
      <point x="525.0" y="398.0" type="curve" smooth="yes"/>
      <point x="525.0" y="388.0" type="line" smooth="yes"/>
      <point x="525.0" y="345.088867188"/>
      <point x="579.0" y="315.0"/>
      <point x="659.0" y="315.0" type="curve" smooth="yes"/>
      <point x="786.0" y="315.0"/>
      <point x="869.0" y="392.0"/>
      <point x="869.0" y="562.0" type="curve" smooth="yes"/>
      <point x="869.0" y="938.0" type="line" smooth="yes"/>
      <point x="869.0" y="1028.0"/>
      <point x="817.0" y="1085.0"/>
      <point x="710.0" y="1085.0" type="curve" smooth="yes"/>
      <point x="591.0" y="1085.0"/>
      <point x="550.0" y="1023.0"/>
      <point x="550.0" y="943.0" type="curve" smooth="yes"/>
      <point x="550.0" y="923.0" type="line" smooth="yes"/>
      <point x="550.0" y="840.0"/>
      <point x="589.0" y="760.0"/>
    </contour>
  </outline>
</glyph>
<glyph name="less" format="2">
  <advance height="1920" width="1010"/>
  <unicode hex="003C"/>
  <outline>
    <contour>
      <point x="850.0" y="86.0" type="curve" smooth="yes"/>
      <point x="80.0" y="444.0" type="line" smooth="yes"/>
      <point x="72.61328125" y="448.393554688"/>
      <point x="70.0" y="453.0"/>
      <point x="70.0" y="460.0" type="curve" smooth="yes"/>
      <point x="70.0" y="740.0" type="line" smooth="yes"/>
      <point x="70.0" y="747.0"/>
      <point x="72.61328125" y="751.606445312"/>
      <point x="80.0" y="756.0" type="curve" smooth="yes"/>
      <point x="850.0" y="1114.0" type="line" smooth="yes"/>
      <point x="857.386652447" y="1118.39361925"/>
      <point x="860.0" y="1117.0"/>
      <point x="860.0" y="1110.0" type="curve" smooth="yes"/>
      <point x="860.0" y="750.0" type="line" smooth="yes"/>
      <point x="860.0" y="743.0"/>
      <point x="857.579101562" y="738.283203125"/>
      <point x="850.0" y="734.0" type="curve" smooth="yes"/>
      <point x="409.01953125" y="600.0" type="line"/>
      <point x="850.0" y="466.0" type="line" smooth="yes"/>
      <point x="857.579101562" y="461.716796875"/>
      <point x="860.0" y="457.0"/>
      <point x="860.0" y="450.0" type="curve" smooth="yes"/>
      <point x="860.0" y="90.0" type="line" smooth="yes"/>
      <point x="860.0" y="83.0"/>
      <point x="857.386652447" y="81.6063807521"/>
    </contour>
  </outline>
</glyph>
<glyph name="equal" format="2">
  <advance height="1920" width="1180"/>
  <unicode hex="003D"/>
  <outline>
    <contour>
      <point x="150.0" y="95.0" type="curve" smooth="yes"/>
      <point x="150.0" y="430.0" type="line" smooth="yes"/>
      <point x="150.0" y="437.0"/>
      <point x="153.0" y="440.0"/>
      <point x="160.0" y="440.0" type="curve" smooth="yes"/>
      <point x="1020.0" y="440.0" type="line" smooth="yes"/>
      <point x="1027.0" y="440.0"/>
      <point x="1030.0" y="437.0"/>
      <point x="1030.0" y="430.0" type="curve" smooth="yes"/>
      <point x="1030.0" y="95.0" type="line" smooth="yes"/>
      <point x="1030.0" y="88.0"/>
      <point x="1027.0" y="85.0"/>
      <point x="1020.0" y="85.0" type="curve" smooth="yes"/>
      <point x="160.0" y="85.0" type="line" smooth="yes"/>
      <point x="153.0" y="85.0"/>
      <point x="150.0" y="88.0"/>
    </contour>
    <contour>
      <point x="150.0" y="565.0" type="curve" smooth="yes"/>
      <point x="150.0" y="900.0" type="line" smooth="yes"/>
      <point x="150.0" y="907.0"/>
      <point x="153.0" y="910.0"/>
      <point x="160.0" y="910.0" type="curve" smooth="yes"/>
      <point x="1020.0" y="910.0" type="line" smooth="yes"/>
      <point x="1027.0" y="910.0"/>
      <point x="1030.0" y="907.0"/>
      <point x="1030.0" y="900.0" type="curve" smooth="yes"/>
      <point x="1030.0" y="565.0" type="line" smooth="yes"/>
      <point x="1030.0" y="558.0"/>
      <point x="1027.0" y="555.0"/>
      <point x="1020.0" y="555.0" type="curve" smooth="yes"/>
      <point x="160.0" y="555.0" type="line" smooth="yes"/>
      <point x="153.0" y="555.0"/>
      <point x="150.0" y="558.0"/>
    </contour>
  </outline>
</glyph>
<glyph name="greater" format="2">
  <advance height="1920" width="1010"/>
  <unicode hex="003E"/>
  <outline>
    <contour>
      <point x="160.0" y="1114.0" type="curve" smooth="yes"/>
      <point x="930.0" y="756.0" type="line" smooth="yes"/>
      <point x="937.38671875" y="751.606445312"/>
      <point x="940.0" y="747.0"/>
      <point x="940.0" y="740.0" type="curve" smooth="yes"/>
      <point x="940.0" y="460.0" type="line" smooth="yes"/>
      <point x="940.0" y="453.0"/>
      <point x="937.38671875" y="448.393554688"/>
      <point x="930.0" y="444.0" type="curve" smooth="yes"/>
      <point x="160.0" y="86.0" type="line" smooth="yes"/>
      <point x="152.61328125" y="81.6064453125"/>
      <point x="150.0" y="83.0"/>
      <point x="150.0" y="90.0" type="curve" smooth="yes"/>
      <point x="150.0" y="450.0" type="line" smooth="yes"/>
      <point x="150.0" y="457.0"/>
      <point x="152.420898438" y="461.716796875"/>
      <point x="160.0" y="466.0" type="curve" smooth="yes"/>
      <point x="600.98046875" y="600.0" type="line"/>
      <point x="160.0" y="734.0" type="line" smooth="yes"/>
      <point x="152.420898438" y="738.283203125"/>
      <point x="150.0" y="743.0"/>
      <point x="150.0" y="750.0" type="curve" smooth="yes"/>
      <point x="150.0" y="1110.0" type="line" smooth="yes"/>
      <point x="150.0" y="1117.0"/>
      <point x="152.61328125" y="1118.39355469"/>
    </contour>
  </outline>
</glyph>
<glyph name="question" format="2">
  <advance height="1920" width="1320"/>
  <unicode hex="003F"/>
  <outline>
    <contour>
      <point x="875.0" y="0.0" type="curve" smooth="yes"/>
      <point x="385.0" y="0.0" type="line" smooth="yes"/>
      <point x="378.0" y="0.0"/>
      <point x="375.0" y="3.0"/>
      <point x="375.0" y="10.0" type="curve" smooth="yes"/>
      <point x="375.0" y="450.0" type="line" smooth="yes"/>
      <point x="375.0" y="457.0"/>
      <point x="378.0" y="460.0"/>
      <point x="385.0" y="460.0" type="curve" smooth="yes"/>
      <point x="875.0" y="460.0" type="line" smooth="yes"/>
      <point x="882.0" y="460.0"/>
      <point x="885.0" y="457.0"/>
      <point x="885.0" y="450.0" type="curve" smooth="yes"/>
      <point x="885.0" y="10.0" type="line" smooth="yes"/>
      <point x="885.0" y="3.0"/>
      <point x="882.0" y="0.0"/>
    </contour>
    <contour>
      <point x="770.0" y="530.0" type="curve" smooth="yes"/>
      <point x="480.0" y="530.0" type="line" smooth="yes"/>
      <point x="472.912109375" y="530.0"/>
      <point x="469.69140625" y="532.961914062"/>
      <point x="468.740234375" y="539.0" type="curve" smooth="yes"/>
      <point x="425.885742188" y="810.931640625"/>
      <point x="725.0" y="858.14453125"/>
      <point x="725.0" y="1013.0" type="curve" smooth="yes"/>
      <point x="725.0" y="1028.0" type="line" smooth="yes"/>
      <point x="725.0" y="1098.0"/>
      <point x="696.0" y="1135.0"/>
      <point x="639.0" y="1135.0" type="curve" smooth="yes"/>
      <point x="579.0" y="1135.0"/>
      <point x="545.0" y="1074.77148438"/>
      <point x="545.0" y="982.0" type="curve" smooth="yes"/>
      <point x="545.0" y="962.0" type="line" smooth="yes"/>
      <point x="545.0" y="955.0"/>
      <point x="542.0" y="952.0"/>
      <point x="535.0" y="952.0" type="curve" smooth="yes"/>
      <point x="75.0" y="952.0" type="line" smooth="yes"/>
      <point x="68.0" y="952.0"/>
      <point x="65.0" y="955.0"/>
      <point x="65.0" y="962.0" type="curve" smooth="yes"/>
      <point x="65.0" y="1052.0" type="line" smooth="yes"/>
      <point x="65.0" y="1276.0"/>
      <point x="262.0" y="1485.0"/>
      <point x="659.0" y="1485.0" type="curve" smooth="yes"/>
      <point x="1056.0" y="1485.0"/>
      <point x="1285.0" y="1323.0"/>
      <point x="1285.0" y="1103.0" type="curve" smooth="yes"/>
      <point x="1285.0" y="1078.0" type="line" smooth="yes"/>
      <point x="1285.0" y="714.727539062"/>
      <point x="869.930664062" y="773.434570312"/>
      <point x="781.556640625" y="538.0" type="curve" smooth="yes"/>
      <point x="779.708984375" y="533.078125"/>
      <point x="776.930664062" y="530.0"/>
    </contour>
  </outline>
</glyph>
<glyph name="at" format="2">
  <advance height="1920" width="1990"/>
  <unicode hex="0040"/>
  <outline>
    <contour>
      <point x="1165.0" y="472.0" type="line"/>
      <point x="1165.0" y="182.0"/>
      <point x="1068.0" y="40.0"/>
      <point x="801.0" y="40.0" type="curve" smooth="yes"/>
      <point x="584.0" y="40.0"/>
      <point x="415.0" y="157.0"/>
      <point x="415.0" y="497.0" type="curve" smooth="yes"/>
      <point x="415.0" y="528.0" type="line" smooth="yes"/>
      <point x="415.0" y="848.0"/>
      <point x="594.0" y="985.0"/>
      <point x="831.0" y="985.0" type="curve" smooth="yes"/>
      <point x="1088.0" y="985.0"/>
      <point x="1225.0" y="843.0"/>
      <point x="1225.0" y="553.0" type="curve"/>
      <point x="1075.0" y="533.0" type="line"/>
      <point x="1075.0" y="633.0"/>
      <point x="1043.0" y="695.0"/>
      <point x="966.0" y="695.0" type="curve" smooth="yes"/>
      <point x="899.0" y="695.0"/>
      <point x="855.0" y="653.0"/>
      <point x="855.0" y="553.0" type="curve" smooth="yes"/>
      <point x="855.0" y="472.0" type="line" smooth="yes"/>
      <point x="855.0" y="372.0"/>
      <point x="899.0" y="330.0"/>
      <point x="966.0" y="330.0" type="curve" smooth="yes"/>
      <point x="1043.0" y="330.0"/>
      <point x="1075.0" y="392.0"/>
      <point x="1075.0" y="492.0" type="curve"/>
    </contour>
    <contour>
      <point x="1332.00000472" y="-254.827238957" type="curve" smooth="yes"/>
      <point x="1264.32137181" y="-314.503652472"/>
      <point x="1144.91626673" y="-360.0"/>
      <point x="985.0" y="-360.0" type="curve" smooth="yes"/>
      <point x="428.0" y="-360.0"/>
      <point x="100.0" y="13.0"/>
      <point x="100.0" y="493.0" type="curve" smooth="yes"/>
      <point x="100.0" y="583.0" type="line" smooth="yes"/>
      <point x="100.0" y="1093.0"/>
      <point x="488.0" y="1435.0"/>
      <point x="1025.0" y="1435.0" type="curve" smooth="yes"/>
      <point x="1632.0" y="1435.0"/>
      <point x="1890.0" y="1024.0"/>
      <point x="1890.0" y="633.0" type="curve" smooth="yes"/>
      <point x="1890.0" y="543.0" type="line" smooth="yes"/>
      <point x="1890.0" y="183.0"/>
      <point x="1717.0" y="40.0"/>
      <point x="1490.0" y="40.0" type="curve" smooth="yes"/>
      <point x="1283.0" y="40.0"/>
      <point x="1075.0" y="185.0"/>
      <point x="1075.0" y="405.0" type="curve" smooth="yes"/>
      <point x="1075.0" y="775.0" type="line"/>
      <point x="1358.0" y="975.0" type="line" smooth="yes"/>
      <point x="1361.83984375" y="980.16015625"/>
      <point x="1368.0" y="985.0"/>
      <point x="1375.0" y="985.0" type="curve" smooth="yes"/>
      <point x="1505.0" y="985.0" type="line" smooth="yes"/>
      <point x="1512.0" y="985.0"/>
      <point x="1515.0" y="982.0"/>
      <point x="1515.0" y="975.0" type="curve" smooth="yes"/>
      <point x="1515.0" y="535.0" type="line" smooth="yes"/>
      <point x="1515.0" y="341.000976562"/>
      <point x="1543.0" y="280.0"/>
      <point x="1610.0" y="280.0" type="curve" smooth="yes"/>
      <point x="1667.0" y="280.0"/>
      <point x="1710.0" y="343.0"/>
      <point x="1710.0" y="543.0" type="curve" smooth="yes"/>
      <point x="1710.0" y="633.0" type="line" smooth="yes"/>
      <point x="1710.0" y="973.0"/>
      <point x="1472.0" y="1295.0"/>
      <point x="1025.0" y="1295.0" type="curve" smooth="yes"/>
      <point x="618.0" y="1295.0"/>
      <point x="290.0" y="1013.0"/>
      <point x="290.0" y="593.0" type="curve" smooth="yes"/>
      <point x="290.0" y="483.0" type="line" smooth="yes"/>
      <point x="290.0" y="103.0"/>
      <point x="548.0" y="-220.0"/>
      <point x="985.0" y="-220.0" type="curve" smooth="yes"/>
      <point x="1097.12312814" y="-220.0"/>
      <point x="1208.64729519" y="-181.401905932"/>
      <point x="1280.99999687" y="-124.412387155" type="curve" smooth="yes"/>
      <point x="1288.40396194" y="-118.580560615"/>
      <point x="1291.24150507" y="-119.775370421"/>
      <point x="1294.0" y="-127.0" type="curve" smooth="yes"/>
      <point x="1336.0" y="-237.0" type="line" smooth="yes"/>
      <point x="1338.95422969" y="-244.737268223"/>
      <point x="1338.71353661" y="-248.907504943"/>
    </contour>
  </outline>
</glyph>
<glyph name="A" format="2">
  <advance height="1920" width="1445"/>
  <unicode hex="0041"/>
  <anchor x="662.741" y="0.0" name="bottom"/>
  <anchor x="1167.74" y="0.0" name="ogonek"/>
  <anchor x="711.741" y="1400.0" name="top"/>
  <outline>
    <contour>
      <point x="347.7421875" y="520.0" type="line"/>
      <point x="977.7421875" y="520.0" type="line"/>
      <point x="977.7421875" y="270.0" type="line"/>
      <point x="347.7421875" y="270.0" type="line"/>
    </contour>
    <contour>
      <point x="659.7421875" y="978.0" type="line"/>
      <point x="360.7421875" y="10.0" type="line" smooth="yes"/>
      <point x="359.413085938" y="5.6962890625"/>
      <point x="356.079101562" y="0.0"/>
      <point x="347.7421875" y="0.0" type="curve" smooth="yes"/>
      <point x="-12.2578125" y="0.0" type="line" smooth="yes"/>
      <point x="-15.462890625" y="0.0"/>
      <point x="-22.3837890625" y="0.9931640625"/>
      <point x="-19.2578125" y="10.0" type="curve" smooth="yes"/>
      <point x="459.7421875" y="1390.0" type="line" smooth="yes"/>
      <point x="462.743164062" y="1398.64550781"/>
      <point x="468.342773438" y="1400.0"/>
      <point x="472.7421875" y="1400.0" type="curve" smooth="yes"/>
      <point x="972.7421875" y="1400.0" type="line" smooth="yes"/>
      <point x="978.819335938" y="1400.0"/>
      <point x="983.173828125" y="1397.24902344"/>
      <point x="985.7421875" y="1390.0" type="curve" smooth="yes"/>
      <point x="1474.7421875" y="10.0" type="line" smooth="yes"/>
      <point x="1475.70996094" y="7.26953125"/>
      <point x="1477.38085938" y="0.0"/>
      <point x="1467.7421875" y="0.0" type="curve" smooth="yes"/>
      <point x="987.7421875" y="0.0" type="line" smooth="yes"/>
      <point x="984.689453125" y="0.0"/>
      <point x="977.983398438" y="0.0400390625"/>
      <point x="974.7421875" y="10.0" type="curve" smooth="yes"/>
    </contour>
  </outline>
</glyph>
<glyph name="C" format="2">
  <advance height="1920" width="1440"/>
  <unicode hex="0043"/>
  <anchor x="735.0" y="0.0" name="bottom"/>
  <anchor x="754.0" y="1400.0" name="top"/>
  <outline>
    <contour>
      <point x="1420.0" y="598.0" type="curve" smooth="yes"/>
      <point x="1415.0" y="526.0"/>
      <point x="1403.0" y="456.0"/>
      <point x="1381.0" y="389.0" type="curve" smooth="yes"/>
      <point x="1304.0" y="150.0"/>
      <point x="1110.0" y="-35.0"/>
      <point x="745.0" y="-35.0" type="curve" smooth="yes"/>
      <point x="258.0" y="-35.0"/>
      <point x="50.0" y="238.0"/>
      <point x="50.0" y="618.0" type="curve" smooth="yes"/>
      <point x="50.0" y="783.0" type="line" smooth="yes"/>
      <point x="50.0" y="1163.0"/>
      <point x="258.0" y="1435.0"/>
      <point x="745.0" y="1435.0" type="curve" smooth="yes"/>
      <point x="1101.0" y="1435.0"/>
      <point x="1284.0" y="1267.0"/>
      <point x="1355.0" y="1066.0" type="curve" smooth="yes"/>
      <point x="1377.0" y="1003.0"/>
      <point x="1388.0" y="938.0"/>
      <point x="1390.0" y="873.0" type="curve" smooth="yes"/>
      <point x="1390.0" y="864.0"/>
      <point x="1387.0" y="863.0"/>
      <point x="1380.0" y="863.0" type="curve" smooth="yes"/>
      <point x="1031.0" y="863.0" type="line" smooth="yes"/>
      <point x="1024.0" y="863.0"/>
      <point x="1020.0" y="864.0"/>
      <point x="1020.0" y="873.0" type="curve" smooth="yes"/>
      <point x="1018.0" y="999.0"/>
      <point x="942.0" y="1095.0"/>
      <point x="795.0" y="1095.0" type="curve" smooth="yes"/>
      <point x="648.0" y="1095.0"/>
      <point x="550.0" y="1003.0"/>
      <point x="550.0" y="793.0" type="curve" smooth="yes"/>
      <point x="550.0" y="608.0" type="line" smooth="yes"/>
      <point x="550.0" y="388.0"/>
      <point x="638.0" y="305.0"/>
      <point x="805.0" y="305.0" type="curve" smooth="yes"/>
      <point x="972.0" y="305.0"/>
      <point x="1053.0" y="415.0"/>
      <point x="1050.0" y="598.0" type="curve" smooth="yes"/>
      <point x="1050.0" y="607.0"/>
      <point x="1053.0" y="608.0"/>
      <point x="1060.0" y="608.0" type="curve" smooth="yes"/>
      <point x="1410.0" y="608.0" type="line" smooth="yes"/>
      <point x="1417.0" y="608.0"/>
      <point x="1421.0" y="607.0"/>
    </contour>
  </outline>
</glyph>
<glyph name="E" format="2">
  <advance height="1920" width="1310"/>
  <unicode hex="0045"/>
  <anchor x="685.0" y="0.0" name="bottom"/>
  <anchor x="1100.0" y="0.0" name="ogonek"/>
  <anchor x="684.0" y="1400.0" name="top"/>
  <outline>
    <contour>
      <point x="560.0" y="840.0" type="line"/>
      <point x="950.0" y="840.0" type="line" smooth="yes"/>
      <point x="957.0" y="840.0"/>
      <point x="960.0" y="837.0"/>
      <point x="960.0" y="830.0" type="curve" smooth="yes"/>
      <point x="960.0" y="600.0" type="line" smooth="yes"/>
      <point x="960.0" y="593.0"/>
      <point x="957.0" y="590.0"/>
      <point x="950.0" y="590.0" type="curve" smooth="yes"/>
      <point x="560.0" y="590.0" type="line"/>
      <point x="560.0" y="350.0" type="line"/>
      <point x="1270.0" y="350.0" type="line" smooth="yes"/>
      <point x="1277.0" y="350.0"/>
      <point x="1280.0" y="347.0"/>
      <point x="1280.0" y="340.0" type="curve" smooth="yes"/>
      <point x="1280.0" y="10.0" type="line" smooth="yes"/>
      <point x="1280.0" y="3.0"/>
      <point x="1277.0" y="0.0"/>
      <point x="1270.0" y="0.0" type="curve" smooth="yes"/>
      <point x="80.0" y="0.0" type="line" smooth="yes"/>
      <point x="73.0" y="0.0"/>
      <point x="70.0" y="3.0"/>
      <point x="70.0" y="10.0" type="curve" smooth="yes"/>
      <point x="70.0" y="1390.0" type="line" smooth="yes"/>
      <point x="70.0" y="1397.0"/>
      <point x="73.0" y="1400.0"/>
      <point x="80.0" y="1400.0" type="curve" smooth="yes"/>
      <point x="1250.0" y="1400.0" type="line" smooth="yes"/>
      <point x="1257.0" y="1400.0"/>
      <point x="1260.0" y="1397.0"/>
      <point x="1260.0" y="1390.0" type="curve" smooth="yes"/>
      <point x="1260.0" y="1060.0" type="line" smooth="yes"/>
      <point x="1260.0" y="1053.0"/>
      <point x="1256.99902344" y="1050.0"/>
      <point x="1250.0" y="1050.0" type="curve" smooth="yes"/>
      <point x="560.0" y="1050.0" type="line"/>
    </contour>
  </outline>
</glyph>
<glyph name="F" format="2">
  <advance height="1920" width="1220"/>
  <unicode hex="0046"/>
  <anchor x="645.0" y="0.0" name="bottom"/>
  <anchor x="644.0" y="1400.0" name="top"/>
  <outline>
    <contour>
      <point x="560.0" y="790.0" type="line"/>
      <point x="960.0" y="790.0" type="line" smooth="yes"/>
      <point x="968.518554688" y="790.0"/>
      <point x="970.0" y="788.595703125"/>
      <point x="970.0" y="780.0" type="curve" smooth="yes"/>
      <point x="970.0" y="550.0" type="line" smooth="yes"/>
      <point x="970.0" y="541.479492188"/>
      <point x="968.595703125" y="540.0"/>
      <point x="960.0" y="540.0" type="curve" smooth="yes"/>
      <point x="560.0" y="540.0" type="line"/>
      <point x="560.0" y="10.0" type="line" smooth="yes"/>
      <point x="560.0" y="1.4794921875"/>
      <point x="558.595703125" y="0.0"/>
      <point x="550.0" y="0.0" type="curve" smooth="yes"/>
      <point x="80.0" y="0.0" type="line" smooth="yes"/>
      <point x="71.4794921875" y="0.0"/>
      <point x="70.0" y="1.404296875"/>
      <point x="70.0" y="10.0" type="curve" smooth="yes"/>
      <point x="70.0" y="1390.0" type="line" smooth="yes"/>
      <point x="70.0" y="1397.0"/>
      <point x="73.0" y="1400.0"/>
      <point x="80.0" y="1400.0" type="curve" smooth="yes"/>
      <point x="1200.0" y="1400.0" type="line" smooth="yes"/>
      <point x="1207.0" y="1400.0"/>
      <point x="1210.0" y="1397.0"/>
      <point x="1210.0" y="1390.0" type="curve" smooth="yes"/>
      <point x="1210.0" y="1060.0" type="line" smooth="yes"/>
      <point x="1210.0" y="1053.0"/>
      <point x="1206.99902344" y="1050.09472656"/>
      <point x="1200.0" y="1050.0" type="curve" smooth="yes"/>
      <point x="560.0" y="1050.0" type="line"/>
    </contour>
  </outline>
</glyph>
<glyph name="G" format="2">
  <advance height="1920" width="1485"/>
  <unicode hex="0047"/>
  <anchor x="745.0" y="0.0" name="bottom"/>
  <anchor x="744.0" y="1400.0" name="top"/>
  <outline>
    <contour>
      <point x="800.0" y="525.0" type="curve" smooth="yes"/>
      <point x="800.0" y="750.0" type="line" smooth="yes"/>
      <point x="800.0" y="757.0"/>
      <point x="803.0" y="760.0"/>
      <point x="810.0" y="760.0" type="curve" smooth="yes"/>
      <point x="1410.0" y="760.0" type="line" smooth="yes"/>
      <point x="1417.0" y="760.0"/>
      <point x="1420.0" y="757.0"/>
      <point x="1420.0" y="750.0" type="curve" smooth="yes"/>
      <point x="1420.0" y="10.0" type="line" smooth="yes"/>
      <point x="1420.0" y="3.0"/>
      <point x="1417.0" y="0.0"/>
      <point x="1410.0" y="0.0" type="curve" smooth="yes"/>
      <point x="1220.0" y="0.0" type="line" smooth="yes"/>
      <point x="1213.0" y="0.0"/>
      <point x="1210.0" y="3.0"/>
      <point x="1208.0" y="10.0" type="curve" smooth="yes"/>
      <point x="1130.0" y="320.0" type="line"/>
      <point x="1320.0" y="620.0" type="line"/>
      <point x="1300.0" y="230.0"/>
      <point x="1052.0" y="-35.0"/>
      <point x="725.0" y="-35.0" type="curve" smooth="yes"/>
      <point x="248.0" y="-35.0"/>
      <point x="50.0" y="238.0"/>
      <point x="50.0" y="618.0" type="curve" smooth="yes"/>
      <point x="50.0" y="783.0" type="line" smooth="yes"/>
      <point x="50.0" y="1163.0"/>
      <point x="258.0" y="1435.0"/>
      <point x="745.0" y="1435.0" type="curve" smooth="yes"/>
      <point x="1063.0" y="1435.0"/>
      <point x="1241.0" y="1285.0"/>
      <point x="1326.0" y="1114.0" type="curve" smooth="yes"/>
      <point x="1366.0" y="1034.0"/>
      <point x="1386.0" y="949.0"/>
      <point x="1390.0" y="873.0" type="curve" smooth="yes"/>
      <point x="1390.0" y="864.0"/>
      <point x="1387.0" y="863.0"/>
      <point x="1380.0" y="863.0" type="curve" smooth="yes"/>
      <point x="1030.0" y="863.0" type="line" smooth="yes"/>
      <point x="1023.0" y="863.0"/>
      <point x="1021.0" y="864.0"/>
      <point x="1020.0" y="873.0" type="curve" smooth="yes"/>
      <point x="1011.0" y="1010.0"/>
      <point x="932.0" y="1095.0"/>
      <point x="795.0" y="1095.0" type="curve" smooth="yes"/>
      <point x="648.0" y="1095.0"/>
      <point x="550.0" y="1003.0"/>
      <point x="550.0" y="793.0" type="curve" smooth="yes"/>
      <point x="550.0" y="608.0" type="line" smooth="yes"/>
      <point x="550.0" y="388.0"/>
      <point x="628.0" y="305.0"/>
      <point x="805.0" y="305.0" type="curve" smooth="yes"/>
      <point x="941.0" y="305.0"/>
      <point x="1031.0" y="402.0"/>
      <point x="1046.0" y="615.0" type="curve"/>
      <point x="1168.0" y="515.0" type="line"/>
      <point x="810.0" y="515.0" type="line" smooth="yes"/>
      <point x="803.0" y="515.0"/>
      <point x="800.0" y="518.0"/>
    </contour>
  </outline>
</glyph>
<glyph name="H" format="2">
  <advance height="1920" width="1420"/>
  <unicode hex="0048"/>
  <anchor x="705.0" y="0.0" name="bottom"/>
  <anchor x="704.0" y="1400.0" name="top"/>
  <outline>
    <contour>
      <point x="870.0" y="1400.0" type="curve" smooth="yes"/>
      <point x="1340.0" y="1400.0" type="line" smooth="yes"/>
      <point x="1347.0" y="1400.0"/>
      <point x="1350.0" y="1397.0"/>
      <point x="1350.0" y="1390.0" type="curve" smooth="yes"/>
      <point x="1350.0" y="10.0" type="line" smooth="yes"/>
      <point x="1350.0" y="3.0"/>
      <point x="1347.0" y="0.0"/>
      <point x="1340.0" y="0.0" type="curve" smooth="yes"/>
      <point x="870.0" y="0.0" type="line" smooth="yes"/>
      <point x="863.0" y="0.0"/>
      <point x="860.0" y="3.0"/>
      <point x="860.0" y="10.0" type="curve" smooth="yes"/>
      <point x="860.0" y="540.0" type="line"/>
      <point x="560.0" y="540.0" type="line"/>
      <point x="560.0" y="10.0" type="line" smooth="yes"/>
      <point x="560.0" y="3.0"/>
      <point x="557.0" y="0.0"/>
      <point x="550.0" y="0.0" type="curve" smooth="yes"/>
      <point x="80.0" y="0.0" type="line" smooth="yes"/>
      <point x="73.0" y="0.0"/>
      <point x="70.0" y="3.0"/>
      <point x="70.0" y="10.0" type="curve" smooth="yes"/>
      <point x="70.0" y="1390.0" type="line" smooth="yes"/>
      <point x="70.0" y="1397.0"/>
      <point x="73.0" y="1400.0"/>
      <point x="80.0" y="1400.0" type="curve" smooth="yes"/>
      <point x="550.0" y="1400.0" type="line" smooth="yes"/>
      <point x="557.0" y="1400.0"/>
      <point x="560.0" y="1397.0"/>
      <point x="560.0" y="1390.0" type="curve" smooth="yes"/>
      <point x="560.0" y="890.0" type="line"/>
      <point x="860.0" y="890.0" type="line"/>
      <point x="860.0" y="1390.0" type="line" smooth="yes"/>
      <point x="860.0" y="1397.0"/>
      <point x="863.0" y="1400.0"/>
    </contour>
  </outline>
</glyph>
<glyph name="I" format="2">
  <advance height="1920" width="630"/>
  <unicode hex="0049"/>
  <anchor x="320.0" y="0.0" name="bottom"/>
  <anchor x="320.0" y="0.0" name="ogonek"/>
  <anchor x="319.0" y="1400.0" name="top"/>
  <outline>
    <contour>
      <point x="80.0" y="1400.0" type="curve" smooth="yes"/>
      <point x="550.0" y="1400.0" type="line" smooth="yes"/>
      <point x="557.0" y="1400.0"/>
      <point x="560.0" y="1397.0"/>
      <point x="560.0" y="1390.0" type="curve" smooth="yes"/>
      <point x="560.0" y="10.0" type="line" smooth="yes"/>
      <point x="560.0" y="3.0"/>
      <point x="557.0" y="0.0"/>
      <point x="550.0" y="0.0" type="curve" smooth="yes"/>
      <point x="80.0" y="0.0" type="line" smooth="yes"/>
      <point x="73.0" y="0.0"/>
      <point x="70.0" y="3.0"/>
      <point x="70.0" y="10.0" type="curve" smooth="yes"/>
      <point x="70.0" y="1390.0" type="line" smooth="yes"/>
      <point x="70.0" y="1397.0"/>
      <point x="73.0" y="1400.0"/>
    </contour>
  </outline>
</glyph>
<glyph name="J" format="2">
  <advance height="1920" width="1240"/>
  <unicode hex="004A"/>
  <anchor x="577.0" y="0.0" name="bottom"/>
  <anchor x="976.0" y="1400.0" name="top"/>
  <outline>
    <contour>
      <point x="680.0" y="1400.0" type="curve" smooth="yes"/>
      <point x="1160.0" y="1400.0" type="line" smooth="yes"/>
      <point x="1167.0" y="1400.0"/>
      <point x="1170.0" y="1397.0"/>
      <point x="1170.0" y="1390.0" type="curve" smooth="yes"/>
      <point x="1170.0" y="538.0" type="line" smooth="yes"/>
      <point x="1170.0" y="152.475585938"/>
      <point x="1020.64941406" y="-35.0"/>
      <point x="575.575195312" y="-35.0" type="curve" smooth="yes"/>
      <point x="179.5703125" y="-35.0"/>
      <point x="20.0" y="154.524414062"/>
      <point x="20.0" y="478.0" type="curve" smooth="yes"/>
      <point x="20.0" y="653.0" type="line" smooth="yes"/>
      <point x="20.0" y="660.0"/>
      <point x="23.0" y="663.0"/>
      <point x="30.0" y="663.0" type="curve" smooth="yes"/>
      <point x="380.0" y="663.0" type="line" smooth="yes"/>
      <point x="387.0" y="663.0"/>
      <point x="390.0" y="660.0"/>
      <point x="390.0" y="653.0" type="curve" smooth="yes"/>
      <point x="390.0" y="488.0" type="line" smooth="yes"/>
      <point x="390.0" y="376.828125"/>
      <point x="439.043945312" y="325.0"/>
      <point x="532.811523438" y="325.0" type="curve" smooth="yes"/>
      <point x="627.5859375" y="325.0"/>
      <point x="670.0" y="368.626953125"/>
      <point x="670.0" y="508.0" type="curve" smooth="yes"/>
      <point x="670.0" y="1390.0" type="line" smooth="yes"/>
      <point x="670.0" y="1397.0"/>
      <point x="673.0" y="1400.0"/>
    </contour>
  </outline>
</glyph>
<glyph name="K" format="2">
  <advance height="1920" width="1460"/>
  <unicode hex="004B"/>
  <anchor x="645.0" y="0.0" name="bottom"/>
  <anchor x="644.0" y="1400.0" name="top"/>
  <outline>
    <contour>
      <point x="80.0" y="1400.0" type="curve" smooth="yes"/>
      <point x="550.0" y="1400.0" type="line" smooth="yes"/>
      <point x="557.0" y="1400.0"/>
      <point x="560.0" y="1397.0"/>
      <point x="560.0" y="1390.0" type="curve" smooth="yes"/>
      <point x="560.0" y="10.0" type="line" smooth="yes"/>
      <point x="560.0" y="3.0"/>
      <point x="557.0" y="0.0"/>
      <point x="550.0" y="0.0" type="curve" smooth="yes"/>
      <point x="80.0" y="0.0" type="line" smooth="yes"/>
      <point x="73.0" y="0.0"/>
      <point x="70.0" y="3.0"/>
      <point x="70.0" y="10.0" type="curve" smooth="yes"/>
      <point x="70.0" y="1390.0" type="line" smooth="yes"/>
      <point x="70.0" y="1397.0"/>
      <point x="73.0" y="1400.0"/>
    </contour>
    <contour>
      <point x="550.0" y="710.0" type="line"/>
      <point x="890.0" y="960.0" type="line"/>
      <point x="1553.0" y="10.0" type="line" smooth="yes"/>
      <point x="1558.87988281" y="1.5283203125"/>
      <point x="1557.0" y="0.0"/>
      <point x="1550.0" y="0.0" type="curve" smooth="yes"/>
      <point x="970.0" y="0.0" type="line" smooth="yes"/>
      <point x="963.0" y="0.0"/>
      <point x="958.485351562" y="1.9658203125"/>
      <point x="953.0" y="10.0" type="curve" smooth="yes"/>
    </contour>
    <contour>
      <point x="1000.0" y="1390.0" type="line" smooth="yes"/>
      <point x="1005.45703125" y="1394.54296875"/>
      <point x="1010.0" y="1400.0"/>
      <point x="1020.0" y="1400.0" type="curve" smooth="yes"/>
      <point x="1504.0" y="1400.0" type="line" smooth="yes"/>
      <point x="1517.0" y="1400.0"/>
      <point x="1517.15039062" y="1397.07617188"/>
      <point x="1510.0" y="1390.0" type="curve" smooth="yes"/>
      <point x="835.801980198" y="688.0" type="line"/>
      <point x="782.01980198" y="632.0" type="line"/>
      <point x="540.0" y="380.0" type="line"/>
      <point x="230.0" y="510.0" type="line"/>
    </contour>
  </outline>
</glyph>
<glyph name="L" format="2">
  <advance height="1920" width="1135"/>
  <unicode hex="004C"/>
  <anchor x="645.0" y="0.0" name="bottom"/>
  <anchor x="284.0" y="1400.0" name="top"/>
  <outline>
    <contour>
      <point x="80.0" y="1400.0" type="curve" smooth="yes"/>
      <point x="550.0" y="1400.0" type="line" smooth="yes"/>
      <point x="557.0" y="1400.0"/>
      <point x="560.0" y="1397.0"/>
      <point x="560.0" y="1390.0" type="curve" smooth="yes"/>
      <point x="560.0" y="350.0" type="line"/>
      <point x="1110.0" y="350.0" type="line" smooth="yes"/>
      <point x="1117.0" y="350.0"/>
      <point x="1120.0" y="347.0"/>
      <point x="1120.0" y="340.0" type="curve" smooth="yes"/>
      <point x="1120.0" y="10.0" type="line" smooth="yes"/>
      <point x="1120.0" y="3.0"/>
      <point x="1117.0" y="0.0"/>
      <point x="1110.0" y="0.0" type="curve" smooth="yes"/>
      <point x="80.0" y="0.0" type="line" smooth="yes"/>
      <point x="73.0" y="0.0"/>
      <point x="70.0" y="3.0"/>
      <point x="70.0" y="10.0" type="curve" smooth="yes"/>
      <point x="70.0" y="1390.0" type="line" smooth="yes"/>
      <point x="70.0" y="1397.0"/>
      <point x="73.0" y="1400.0"/>
    </contour>
  </outline>
</glyph>
<glyph name="M" format="2">
  <advance height="1920" width="1840"/>
  <unicode hex="004D"/>
  <anchor x="865.0" y="0.0" name="bottom"/>
  <anchor x="864.0" y="1400.0" name="top"/>
  <outline>
    <contour>
      <point x="400.0" y="830.0" type="line"/>
      <point x="400.0" y="10.0" type="line" smooth="yes"/>
      <point x="400.0" y="3.0"/>
      <point x="397.0" y="0.0"/>
      <point x="390.0" y="0.0" type="curve" smooth="yes"/>
      <point x="60.0" y="0.0" type="line" smooth="yes"/>
      <point x="53.0" y="0.0"/>
      <point x="50.0" y="3.0"/>
      <point x="50.0" y="10.0" type="curve" smooth="yes"/>
      <point x="50.0" y="1390.0" type="line" smooth="yes"/>
      <point x="50.0" y="1397.0"/>
      <point x="53.0" y="1400.0"/>
      <point x="60.0" y="1400.0" type="curve" smooth="yes"/>
      <point x="660.0" y="1400.0" type="line" smooth="yes"/>
      <point x="667.0" y="1400.0"/>
      <point x="671.0" y="1397.0"/>
      <point x="674.0" y="1390.0" type="curve" smooth="yes"/>
      <point x="910.0" y="689.0" type="line"/>
      <point x="1176.0" y="1390.0" type="line" smooth="yes"/>
      <point x="1179.0" y="1397.0"/>
      <point x="1183.0" y="1400.0"/>
      <point x="1190.0" y="1400.0" type="curve" smooth="yes"/>
      <point x="1760.0" y="1400.0" type="line" smooth="yes"/>
      <point x="1767.0" y="1400.0"/>
      <point x="1770.0" y="1397.0"/>
      <point x="1770.0" y="1390.0" type="curve" smooth="yes"/>
      <point x="1770.0" y="10.0" type="line" smooth="yes"/>
      <point x="1770.0" y="3.0"/>
      <point x="1767.0" y="0.0"/>
      <point x="1760.0" y="0.0" type="curve" smooth="yes"/>
      <point x="1310.0" y="0.0" type="line" smooth="yes"/>
      <point x="1303.0" y="0.0"/>
      <point x="1300.0" y="3.0"/>
      <point x="1300.0" y="10.0" type="curve" smooth="yes"/>
      <point x="1300.0" y="830.0" type="line"/>
      <point x="1004.0" y="10.0" type="line" smooth="yes"/>
      <point x="1001.0" y="3.0"/>
      <point x="997.0" y="0.0"/>
      <point x="990.0" y="0.0" type="curve" smooth="yes"/>
      <point x="730.0" y="0.0" type="line" smooth="yes"/>
      <point x="723.0" y="0.0"/>
      <point x="719.0" y="3.0"/>
      <point x="716.0" y="10.0" type="curve" smooth="yes"/>
    </contour>
  </outline>
</glyph>
<glyph name="N" format="2">
  <advance height="1920" width="1380"/>
  <unicode hex="004E"/>
  <anchor x="685.0" y="0.0" name="bottom"/>
  <anchor x="694.0" y="1400.0" name="top"/>
  <outline>
    <contour>
      <point x="970.0" y="1400.0" type="curve" smooth="yes"/>
      <point x="1320.0" y="1400.0" type="line" smooth="yes"/>
      <point x="1327.0" y="1400.0"/>
      <point x="1330.0" y="1397.0"/>
      <point x="1330.0" y="1390.0" type="curve" smooth="yes"/>
      <point x="1330.0" y="10.0" type="line" smooth="yes"/>
      <point x="1330.0" y="3.0"/>
      <point x="1327.0" y="0.0"/>
      <point x="1320.0" y="0.0" type="curve" smooth="yes"/>
      <point x="830.0" y="0.0" type="line" smooth="yes"/>
      <point x="823.0" y="0.0"/>
      <point x="816.821798778" y="1.24356300084"/>
      <point x="813.0" y="10.0" type="curve" smooth="yes"/>
      <point x="400.0" y="956.434570312" type="line"/>
      <point x="420.0" y="956.434570312" type="line"/>
      <point x="420.0" y="10.0" type="line" smooth="yes"/>
      <point x="420.0" y="3.0"/>
      <point x="417.0" y="0.0"/>
      <point x="410.0" y="0.0" type="curve" smooth="yes"/>
      <point x="60.0" y="0.0" type="line" smooth="yes"/>
      <point x="53.0" y="0.0"/>
      <point x="50.0" y="3.0"/>
      <point x="50.0" y="10.0" type="curve" smooth="yes"/>
      <point x="50.0" y="1390.0" type="line" smooth="yes"/>
      <point x="50.0" y="1397.0"/>
      <point x="53.0" y="1400.0"/>
      <point x="60.0" y="1400.0" type="curve" smooth="yes"/>
      <point x="650.0" y="1400.0" type="line" smooth="yes"/>
      <point x="658.0" y="1400.0"/>
      <point x="663.42753896" y="1399.03626701"/>
      <point x="667.0" y="1390.0" type="curve" smooth="yes"/>
      <point x="980.0" y="597.87890625" type="line"/>
      <point x="960.0" y="597.87890625" type="line"/>
      <point x="960.0" y="1390.0" type="line" smooth="yes"/>
      <point x="960.0" y="1397.0"/>
      <point x="963.0" y="1400.0"/>
    </contour>
  </outline>
</glyph>
<glyph name="O" format="2">
  <advance height="1920" width="1590"/>
  <unicode hex="004F"/>
  <anchor x="795.0" y="0.0" name="bottom"/>
  <anchor x="794.0" y="1400.0" name="top"/>
  <outline>
    <contour>
      <point x="50.0" y="618.0" type="curve" smooth="yes"/>
      <point x="50.0" y="783.0" type="line" smooth="yes"/>
      <point x="50.0" y="1168.79492188"/>
      <point x="313.346679688" y="1435.0"/>
      <point x="795.0" y="1435.0" type="curve" smooth="yes"/>
      <point x="1276.65332031" y="1435.0"/>
      <point x="1540.0" y="1168.79492188"/>
      <point x="1540.0" y="783.0" type="curve" smooth="yes"/>
      <point x="1540.0" y="618.0" type="line" smooth="yes"/>
      <point x="1540.0" y="231.891601562"/>
      <point x="1276.37792969" y="-35.0"/>
      <point x="795.0" y="-35.0" type="curve" smooth="yes"/>
      <point x="313.622070312" y="-35.0"/>
      <point x="50.0" y="231.891601562"/>
    </contour>
    <contour>
      <point x="550.0" y="608.0" type="line" smooth="yes"/>
      <point x="550.0" y="409.787109375"/>
      <point x="631.172851562" y="305.0"/>
      <point x="795.0" y="305.0" type="curve" smooth="yes"/>
      <point x="958.827148438" y="305.0"/>
      <point x="1040.0" y="409.787109375"/>
      <point x="1040.0" y="608.0" type="curve" smooth="yes"/>
      <point x="1040.0" y="793.0" type="line" smooth="yes"/>
      <point x="1040.0" y="990.875"/>
      <point x="959.051757812" y="1095.0"/>
      <point x="795.0" y="1095.0" type="curve" smooth="yes"/>
      <point x="630.948242188" y="1095.0"/>
      <point x="550.0" y="990.875"/>
      <point x="550.0" y="793.0" type="curve" smooth="yes"/>
    </contour>
  </outline>
</glyph>
<glyph name="P" format="2">
  <advance height="1920" width="1330"/>
  <unicode hex="0050"/>
  <anchor x="275.0" y="0.0" name="bottom"/>
  <anchor x="624.0" y="1400.0" name="top"/>
  <outline>
    <contour>
      <point x="560.0" y="1050.0" type="line"/>
      <point x="560.0" y="750.0" type="line"/>
      <point x="670.0" y="750.0" type="line" smooth="yes"/>
      <point x="787.0" y="750.0"/>
      <point x="825.0" y="798.0"/>
      <point x="825.0" y="888.0" type="curve" smooth="yes"/>
      <point x="825.0" y="912.0" type="line" smooth="yes"/>
      <point x="825.0" y="1002.0"/>
      <point x="787.0" y="1050.0"/>
      <point x="670.0" y="1050.0" type="curve" smooth="yes"/>
    </contour>
    <contour>
      <point x="720.0" y="1400.0" type="line" smooth="yes"/>
      <point x="1106.87988281" y="1400.0"/>
      <point x="1275.0" y="1252.0"/>
      <point x="1275.0" y="982.0" type="curve" smooth="yes"/>
      <point x="1275.0" y="918.0" type="line" smooth="yes"/>
      <point x="1275.0" y="648.0"/>
      <point x="1107.0" y="500.0"/>
      <point x="720.0" y="500.0" type="curve" smooth="yes"/>
      <point x="560.0" y="500.0" type="line"/>
      <point x="560.0" y="10.0" type="line" smooth="yes"/>
      <point x="560.0" y="3.0"/>
      <point x="557.0" y="0.0"/>
      <point x="550.0" y="0.0" type="curve" smooth="yes"/>
      <point x="80.0" y="0.0" type="line" smooth="yes"/>
      <point x="73.0" y="0.0"/>
      <point x="70.0" y="3.0"/>
      <point x="70.0" y="10.0" type="curve" smooth="yes"/>
      <point x="70.0" y="1390.0" type="line" smooth="yes"/>
      <point x="70.0" y="1397.0"/>
      <point x="73.0" y="1400.0"/>
      <point x="80.0" y="1400.0" type="curve" smooth="yes"/>
    </contour>
  </outline>
</glyph>
<glyph name="Q" format="2">
  <advance height="1920" width="1660"/>
  <unicode hex="0051"/>
  <anchor x="765.0" y="0.0" name="bottom"/>
  <anchor x="764.0" y="1400.0" name="top"/>
  <outline>
    <contour>
      <point x="1635.0" y="410.0" type="curve" smooth="yes"/>
      <point x="1635.0" y="10.0" type="line" smooth="yes"/>
      <point x="1635.0" y="2.8271484375"/>
      <point x="1635.18261719" y="-1.0556640625"/>
      <point x="1623.53417969" y="-3.0" type="curve" smooth="yes"/>
      <point x="1313.84667969" y="-54.705078125"/>
      <point x="1160.0" y="92.7939453125"/>
      <point x="1160.0" y="358.0" type="curve"/>
      <point x="1270.0" y="588.0" type="line"/>
      <point x="1270.0" y="238.0"/>
      <point x="1222.0" y="-35.0"/>
      <point x="745.0" y="-35.0" type="curve" smooth="yes"/>
      <point x="268.0" y="-35.0"/>
      <point x="70.0" y="258.0"/>
      <point x="70.0" y="608.0" type="curve" smooth="yes"/>
      <point x="70.0" y="793.0" type="line" smooth="yes"/>
      <point x="70.0" y="1143.0"/>
      <point x="278.0" y="1435.0"/>
      <point x="765.0" y="1435.0" type="curve" smooth="yes"/>
      <point x="1252.0" y="1435.0"/>
      <point x="1460.0" y="1143.0"/>
      <point x="1460.0" y="793.0" type="curve" smooth="yes"/>
      <point x="1460.0" y="578.0" type="line" smooth="yes"/>
      <point x="1460.0" y="464.23828125"/>
      <point x="1531.64648438" y="424.983398438"/>
      <point x="1623.0" y="420.303710938" type="curve" smooth="yes"/>
      <point x="1635.0" y="419.688476562"/>
      <point x="1635.0" y="416.688476562"/>
    </contour>
    <contour>
      <point x="960.0" y="608.0" type="curve" smooth="yes"/>
      <point x="960.0" y="793.0" type="line" smooth="yes"/>
      <point x="960.0" y="963.0"/>
      <point x="922.0" y="1095.0"/>
      <point x="765.0" y="1095.0" type="curve" smooth="yes"/>
      <point x="608.0" y="1095.0"/>
      <point x="570.0" y="963.0"/>
      <point x="570.0" y="793.0" type="curve" smooth="yes"/>
      <point x="570.0" y="608.0" type="line" smooth="yes"/>
      <point x="570.0" y="428.0"/>
      <point x="608.0" y="305.0"/>
      <point x="765.0" y="305.0" type="curve" smooth="yes"/>
      <point x="922.0" y="305.0"/>
      <point x="960.0" y="428.0"/>
    </contour>
  </outline>
</glyph>
<glyph name="R" format="2">
  <advance height="1920" width="1410"/>
  <unicode hex="0052"/>
  <anchor x="675.0" y="0.0" name="bottom"/>
  <anchor x="674.0" y="1400.0" name="top"/>
  <outline>
    <contour>
      <point x="560.0" y="1050.0" type="line"/>
      <point x="560.0" y="740.0" type="line"/>
      <point x="660.0" y="740.0" type="line" smooth="yes"/>
      <point x="787.0" y="740.0"/>
      <point x="815.0" y="803.0"/>
      <point x="815.0" y="893.0" type="curve" smooth="yes"/>
      <point x="815.0" y="897.0" type="line" smooth="yes"/>
      <point x="815.0" y="977.0"/>
      <point x="787.0" y="1050.0"/>
      <point x="660.0" y="1050.0" type="curve" smooth="yes"/>
    </contour>
    <contour>
      <point x="760.0" y="1400.0" type="line" smooth="yes"/>
      <point x="1166.99707031" y="1400.0"/>
      <point x="1315.0" y="1212.0"/>
      <point x="1315.0" y="982.0" type="curve" smooth="yes"/>
      <point x="1315.0" y="958.0" type="line" smooth="yes"/>
      <point x="1315.0" y="718.0"/>
      <point x="1087.0" y="580.0"/>
      <point x="760.0" y="580.0" type="curve"/>
      <point x="760.0" y="640.0" type="line"/>
      <point x="1117.0" y="640.0"/>
      <point x="1325.0" y="612.0"/>
      <point x="1325.0" y="372.0" type="curve" smooth="yes"/>
      <point x="1325.0" y="328.0" type="line" smooth="yes"/>
      <point x="1325.0" y="214.202148438"/>
      <point x="1356.47558594" y="129.181640625"/>
      <point x="1402.37011719" y="61.0" type="curve" smooth="yes"/>
      <point x="1410.0" y="49.6650390625"/>
      <point x="1410.0" y="46.6650390625"/>
      <point x="1410.0" y="40.0" type="curve" smooth="yes"/>
      <point x="1410.0" y="10.0" type="line" smooth="yes"/>
      <point x="1410.0" y="3.0"/>
      <point x="1407.0" y="0.0"/>
      <point x="1400.0" y="0.0" type="curve" smooth="yes"/>
      <point x="900.0" y="0.0" type="line" smooth="yes"/>
      <point x="892.829101562" y="0.0"/>
      <point x="889.829101562" y="0.0"/>
      <point x="884.77734375" y="9.0" type="curve" smooth="yes"/>
      <point x="829.123046875" y="108.147460938"/>
      <point x="815.0" y="240.670898438"/>
      <point x="815.0" y="328.0" type="curve" smooth="yes"/>
      <point x="815.0" y="372.0" type="line" smooth="yes"/>
      <point x="815.0" y="452.0"/>
      <point x="787.0" y="490.0"/>
      <point x="680.0" y="490.0" type="curve" smooth="yes"/>
      <point x="560.0" y="490.0" type="line"/>
      <point x="560.0" y="10.0" type="line" smooth="yes"/>
      <point x="560.0" y="3.0"/>
      <point x="557.0" y="0.0"/>
      <point x="550.0" y="0.0" type="curve" smooth="yes"/>
      <point x="80.0" y="0.0" type="line" smooth="yes"/>
      <point x="73.0" y="0.0"/>
      <point x="70.0" y="3.0"/>
      <point x="70.0" y="10.0" type="curve" smooth="yes"/>
      <point x="70.0" y="1390.0" type="line" smooth="yes"/>
      <point x="70.0" y="1397.0"/>
      <point x="73.0" y="1400.0"/>
      <point x="80.0" y="1400.0" type="curve" smooth="yes"/>
    </contour>
  </outline>
</glyph>
<glyph name="S" format="2">
  <advance height="1920" width="1359"/>
  <unicode hex="0053"/>
  <anchor x="654.0" y="0.0" name="bottom"/>
  <anchor x="653.0" y="1400.0" name="top"/>
  <outline>
    <contour>
      <point x="29.0" y="488.0" type="curve" smooth="yes"/>
      <point x="379.0" y="488.0" type="line" smooth="yes"/>
      <point x="382.0" y="488.0"/>
      <point x="389.0" y="487.0"/>
      <point x="389.0" y="480.0" type="curve" smooth="yes"/>
      <point x="389.0" y="455.0"/>
      <point x="390.0" y="445.0"/>
      <point x="390.0" y="431.0" type="curve" smooth="yes"/>
      <point x="394.0" y="324.0"/>
      <point x="494.0" y="285.0"/>
      <point x="669.0" y="285.0" type="curve" smooth="yes"/>
      <point x="827.0" y="285.0"/>
      <point x="889.0" y="317.0"/>
      <point x="889.0" y="368.0" type="curve" smooth="yes"/>
      <point x="889.0" y="420.539530524"/>
      <point x="794.358296311" y="433.60615154"/>
      <point x="671.425466018" y="462.212344638" type="curve" smooth="yes"/>
      <point x="428.496172235" y="518.741444884"/>
      <point x="69.0" y="577.597008474"/>
      <point x="69.0" y="973.0" type="curve" smooth="yes"/>
      <point x="69.0" y="1243.0"/>
      <point x="267.0" y="1435.0"/>
      <point x="679.0" y="1435.0" type="curve" smooth="yes"/>
      <point x="1093.0" y="1435.0"/>
      <point x="1259.0" y="1236.0"/>
      <point x="1259.0" y="1021.0" type="curve" smooth="yes"/>
      <point x="1259.0" y="971.0" type="line" smooth="yes"/>
      <point x="1259.0" y="964.0"/>
      <point x="1254.0" y="963.0"/>
      <point x="1249.0" y="963.0" type="curve" smooth="yes"/>
      <point x="919.0" y="963.0" type="line" smooth="yes"/>
      <point x="914.0" y="963.0"/>
      <point x="909.0" y="964.0"/>
      <point x="909.0" y="971.0" type="curve" smooth="yes"/>
      <point x="909.0" y="985.0"/>
      <point x="909.0" y="1005.0"/>
      <point x="908.0" y="1009.0" type="curve" smooth="yes"/>
      <point x="901.0" y="1063.0"/>
      <point x="826.0" y="1135.0"/>
      <point x="689.0" y="1135.0" type="curve" smooth="yes"/>
      <point x="567.0" y="1135.0"/>
      <point x="499.0" y="1093.0"/>
      <point x="499.0" y="1043.0" type="curve" smooth="yes"/>
      <point x="499.0" y="981.707709744"/>
      <point x="603.362672321" y="951.817637032"/>
      <point x="740.26067373" y="925.523687106" type="curve" smooth="yes"/>
      <point x="985.315488277" y="878.456096955"/>
      <point x="1329.0" y="788.419934872"/>
      <point x="1329.0" y="428.0" type="curve" smooth="yes"/>
      <point x="1329.0" y="111.0"/>
      <point x="1088.0" y="-35.0"/>
      <point x="649.0" y="-35.0" type="curve" smooth="yes"/>
      <point x="261.0" y="-35.0"/>
      <point x="20.0" y="123.0"/>
      <point x="20.0" y="399.0" type="curve" smooth="yes"/>
      <point x="20.0" y="479.0" type="line" smooth="yes"/>
      <point x="20.0" y="486.0"/>
      <point x="26.0" y="488.0"/>
    </contour>
  </outline>
</glyph>
<glyph name="T" format="2">
  <advance height="1920" width="1350"/>
  <unicode hex="0054"/>
  <anchor x="635.0" y="0.0" name="bottom"/>
  <anchor x="674.0" y="1400.0" name="top"/>
  <outline>
    <contour>
      <point x="40.0" y="1400.0" type="curve" smooth="yes"/>
      <point x="1310.0" y="1400.0" type="line" smooth="yes"/>
      <point x="1317.0" y="1400.0"/>
      <point x="1320.0" y="1397.0"/>
      <point x="1320.0" y="1390.0" type="curve" smooth="yes"/>
      <point x="1320.0" y="1060.0" type="line" smooth="yes"/>
      <point x="1320.0" y="1053.0"/>
      <point x="1317.0" y="1050.0"/>
      <point x="1310.0" y="1050.0" type="curve" smooth="yes"/>
      <point x="920.0" y="1050.0" type="line"/>
      <point x="920.0" y="10.0" type="line" smooth="yes"/>
      <point x="920.0" y="3.0"/>
      <point x="917.0" y="0.0"/>
      <point x="910.0" y="0.0" type="curve" smooth="yes"/>
      <point x="440.0" y="0.0" type="line" smooth="yes"/>
      <point x="433.0" y="0.0"/>
      <point x="430.0" y="3.0"/>
      <point x="430.0" y="10.0" type="curve" smooth="yes"/>
      <point x="430.0" y="1050.0" type="line"/>
      <point x="40.0" y="1050.0" type="line" smooth="yes"/>
      <point x="33.0" y="1050.0"/>
      <point x="30.0" y="1053.0"/>
      <point x="30.0" y="1060.0" type="curve" smooth="yes"/>
      <point x="30.0" y="1390.0" type="line" smooth="yes"/>
      <point x="30.0" y="1397.0"/>
      <point x="33.0" y="1400.0"/>
    </contour>
  </outline>
</glyph>
<glyph name="U" format="2">
  <advance height="1920" width="1370"/>
  <unicode hex="0055"/>
  <anchor x="700.0" y="0.0" name="bottom"/>
  <anchor x="795.0" y="0.0" name="ogonek"/>
  <anchor x="699.0" y="1400.0" name="top"/>
  <outline>
    <contour>
      <point x="950.0" y="588.0" type="curve" smooth="yes"/>
      <point x="950.0" y="1390.0" type="line" smooth="yes"/>
      <point x="950.0" y="1397.0"/>
      <point x="953.0" y="1400.0"/>
      <point x="960.0" y="1400.0" type="curve" smooth="yes"/>
      <point x="1310.0" y="1400.0" type="line" smooth="yes"/>
      <point x="1317.0" y="1400.0"/>
      <point x="1320.0" y="1397.0"/>
      <point x="1320.0" y="1390.0" type="curve" smooth="yes"/>
      <point x="1320.0" y="498.0" type="line" smooth="yes"/>
      <point x="1320.0" y="178.043945312"/>
      <point x="1192.0" y="-35.0"/>
      <point x="695.0" y="-35.0" type="curve" smooth="yes"/>
      <point x="138.0" y="-35.0"/>
      <point x="60.0" y="208.009765625"/>
      <point x="60.0" y="588.0" type="curve" smooth="yes"/>
      <point x="60.0" y="1390.0" type="line" smooth="yes"/>
      <point x="60.0" y="1397.0"/>
      <point x="63.0" y="1400.0"/>
      <point x="70.0" y="1400.0" type="curve" smooth="yes"/>
      <point x="550.0" y="1400.0" type="line" smooth="yes"/>
      <point x="557.0" y="1400.0"/>
      <point x="560.0" y="1397.0"/>
      <point x="560.0" y="1390.0" type="curve" smooth="yes"/>
      <point x="560.0" y="658.0" type="line" smooth="yes"/>
      <point x="560.0" y="408.067382812"/>
      <point x="598.0" y="305.0"/>
      <point x="765.0" y="305.0" type="curve" smooth="yes"/>
      <point x="892.0" y="305.0"/>
      <point x="950.0" y="378.01171875"/>
    </contour>
  </outline>
</glyph>
<glyph name="V" format="2">
  <advance height="1920" width="1445"/>
  <unicode hex="0056"/>
  <anchor x="782.265" y="0.0" name="bottom"/>
  <anchor x="781.265" y="1400.0" name="top"/>
  <outline>
    <contour>
      <point x="785.264648438" y="422.0" type="line"/>
      <point x="1084.26464844" y="1390.0" type="line" smooth="yes"/>
      <point x="1086.21679688" y="1395.99414062"/>
      <point x="1090.26464844" y="1400.0"/>
      <point x="1097.26464844" y="1400.0" type="curve" smooth="yes"/>
      <point x="1457.26464844" y="1400.0" type="line" smooth="yes"/>
      <point x="1464.26464844" y="1400.0"/>
      <point x="1466.26464844" y="1396.0"/>
      <point x="1464.26464844" y="1390.0" type="curve" smooth="yes"/>
      <point x="985.264648438" y="10.0" type="line" smooth="yes"/>
      <point x="983.264648438" y="4.0"/>
      <point x="979.264648438" y="0.0"/>
      <point x="972.264648438" y="0.0" type="curve" smooth="yes"/>
      <point x="472.264648438" y="0.0" type="line" smooth="yes"/>
      <point x="465.264648438" y="0.0"/>
      <point x="461.264648438" y="4.0"/>
      <point x="459.264648438" y="10.0" type="curve" smooth="yes"/>
      <point x="-29.7353515625" y="1390.0" type="line" smooth="yes"/>
      <point x="-31.7353515625" y="1396.0"/>
      <point x="-29.7353515625" y="1400.0"/>
      <point x="-22.7353515625" y="1400.0" type="curve" smooth="yes"/>
      <point x="457.264648438" y="1400.0" type="line" smooth="yes"/>
      <point x="464.264648438" y="1400.0"/>
      <point x="467.903320312" y="1396.8828125"/>
      <point x="470.264648438" y="1390.0" type="curve" smooth="yes"/>
    </contour>
  </outline>
</glyph>
<glyph name="W" format="2">
  <advance height="1920" width="1834"/>
  <unicode hex="0057"/>
  <anchor x="932.613" y="0.0" name="bottom"/>
  <anchor x="931.613" y="1400.0" name="top"/>
  <outline>
    <contour>
      <point x="577.544921875" y="690.13671875" type="line"/>
      <point x="774.61328125" y="1390.0" type="line" smooth="yes"/>
      <point x="776.461914062" y="1396.47167969"/>
      <point x="780.61328125" y="1400.0"/>
      <point x="787.61328125" y="1400.0" type="curve" smooth="yes"/>
      <point x="1137.61328125" y="1400.0" type="line" smooth="yes"/>
      <point x="1144.61328125" y="1400.0"/>
      <point x="1148.84375" y="1396.51953125"/>
      <point x="1150.61328125" y="1390.0" type="curve" smooth="yes"/>
      <point x="1365.32128906" y="653.888671875" type="line"/>
      <point x="1514.61328125" y="1390.0" type="line" smooth="yes"/>
      <point x="1516.21289062" y="1396.61328125"/>
      <point x="1520.61328125" y="1400.0"/>
      <point x="1527.61328125" y="1400.0" type="curve" smooth="yes"/>
      <point x="1887.61328125" y="1400.0" type="line" smooth="yes"/>
      <point x="1894.61328125" y="1400.0"/>
      <point x="1896.36035156" y="1396.53320312"/>
      <point x="1894.61328125" y="1390.0" type="curve" smooth="yes"/>
      <point x="1565.61328125" y="10.0" type="line" smooth="yes"/>
      <point x="1563.73339844" y="2.9677734375"/>
      <point x="1559.64160156" y="0.0"/>
      <point x="1552.61328125" y="0.0" type="curve" smooth="yes"/>
      <point x="1102.61328125" y="0.0" type="line" smooth="yes"/>
      <point x="1095.64746094" y="0.0"/>
      <point x="1091.5625" y="2.71875"/>
      <point x="1089.61328125" y="10.0" type="curve" smooth="yes"/>
      <point x="900.915039062" y="650.9921875" type="line"/>
      <point x="695.61328125" y="10.0" type="line" smooth="yes"/>
      <point x="693.689453125" y="2.9794921875"/>
      <point x="689.641601562" y="0.0"/>
      <point x="682.61328125" y="0.0" type="curve" smooth="yes"/>
      <point x="287.61328125" y="0.0" type="line" smooth="yes"/>
      <point x="280.61328125" y="0.0"/>
      <point x="276.5625" y="2.5068359375"/>
      <point x="274.61328125" y="10.0" type="curve" smooth="yes"/>
      <point x="-44.38671875" y="1390.0" type="line" smooth="yes"/>
      <point x="-46.0927734375" y="1396.55664062"/>
      <point x="-44.38671875" y="1400.0"/>
      <point x="-37.38671875" y="1400.0" type="curve" smooth="yes"/>
      <point x="437.61328125" y="1400.0" type="line" smooth="yes"/>
      <point x="444.61328125" y="1400.0"/>
      <point x="449.005859375" y="1396.609375"/>
      <point x="450.61328125" y="1390.0" type="curve" smooth="yes"/>
    </contour>
  </outline>
</glyph>
<glyph name="X" format="2">
  <advance height="1920" width="1433"/>
  <unicode hex="0058"/>
  <anchor x="732.0" y="0.0" name="bottom"/>
  <anchor x="731.0" y="1400.0" name="top"/>
  <outline>
    <contour>
      <point x="942.0" y="1400.0" type="curve" smooth="yes"/>
      <point x="1417.0" y="1400.0" type="line" smooth="yes"/>
      <point x="1424.0" y="1400.0"/>
      <point x="1425.0" y="1398.0"/>
      <point x="1420.0" y="1390.0" type="curve" smooth="yes"/>
      <point x="978.0" y="755.0" type="line"/>
      <point x="1470.0" y="10.0" type="line" smooth="yes"/>
      <point x="1475.0" y="2.0"/>
      <point x="1474.0" y="0.0"/>
      <point x="1467.0" y="0.0" type="curve" smooth="yes"/>
      <point x="867.0" y="0.0" type="line" smooth="yes"/>
      <point x="860.0" y="0.0"/>
      <point x="856.0" y="2.0"/>
      <point x="851.0" y="10.0" type="curve" smooth="yes"/>
      <point x="676.0" y="363.0" type="line"/>
      <point x="459.0" y="10.0" type="line" smooth="yes"/>
      <point x="453.0" y="2.0"/>
      <point x="449.0" y="0.0"/>
      <point x="442.0" y="0.0" type="curve" smooth="yes"/>
      <point x="-33.0" y="0.0" type="line" smooth="yes"/>
      <point x="-40.0" y="0.0"/>
      <point x="-42.0" y="2.0"/>
      <point x="-36.0" y="10.0" type="curve" smooth="yes"/>
      <point x="476.0" y="659.0" type="line"/>
      <point x="-6.0" y="1390.0" type="line" smooth="yes"/>
      <point x="-11.0" y="1398.0"/>
      <point x="-10.0" y="1400.0"/>
      <point x="-3.0" y="1400.0" type="curve" smooth="yes"/>
      <point x="607.0" y="1400.0" type="line" smooth="yes"/>
      <point x="615.0" y="1400.0"/>
      <point x="619.0" y="1398.0"/>
      <point x="624.0" y="1390.0" type="curve" smooth="yes"/>
      <point x="758.0" y="1062.0" type="line"/>
      <point x="925.0" y="1390.0" type="line" smooth="yes"/>
      <point x="930.0" y="1398.0"/>
      <point x="935.0" y="1400.0"/>
    </contour>
  </outline>
</glyph>
<glyph name="Y" format="2">
  <advance height="1920" width="1490"/>
  <unicode hex="0059"/>
  <anchor x="750.039" y="0.0" name="bottom"/>
  <anchor x="779.039" y="1400.0" name="top"/>
  <outline>
    <contour>
      <point x="1100.0390625" y="1400.0" type="curve" smooth="yes"/>
      <point x="1485.0390625" y="1400.0" type="line" smooth="yes"/>
      <point x="1492.0390625" y="1400.0"/>
      <point x="1493.32128906" y="1397.20898438"/>
      <point x="1489.0390625" y="1390.0" type="curve" smooth="yes"/>
      <point x="990.0390625" y="550.0" type="line"/>
      <point x="990.0390625" y="10.0" type="line" smooth="yes"/>
      <point x="990.0390625" y="3.0"/>
      <point x="987.0390625" y="0.0"/>
      <point x="980.0390625" y="0.0" type="curve" smooth="yes"/>
      <point x="510.0390625" y="0.0" type="line" smooth="yes"/>
      <point x="503.0390625" y="0.0"/>
      <point x="500.0390625" y="3.0"/>
      <point x="500.0390625" y="10.0" type="curve" smooth="yes"/>
      <point x="500.0390625" y="550.0" type="line"/>
      <point x="1.0390625" y="1390.0" type="line" smooth="yes"/>
      <point x="-3.599609375" y="1397.80859375"/>
      <point x="-1.9609375" y="1400.0"/>
      <point x="5.0390625" y="1400.0" type="curve" smooth="yes"/>
      <point x="560.0390625" y="1400.0" type="line" smooth="yes"/>
      <point x="567.09765625" y="1400.0"/>
      <point x="571.661132812" y="1397.36914062"/>
      <point x="576.0390625" y="1390.0" type="curve" smooth="yes"/>
      <point x="830.0390625" y="899.901367188" type="line"/>
      <point x="1084.0390625" y="1390.0" type="line" smooth="yes"/>
      <point x="1088.41699219" y="1397.36914062"/>
      <point x="1092.9296875" y="1400.0"/>
    </contour>
  </outline>
</glyph>
<glyph name="Z" format="2">
  <advance height="1920" width="1270"/>
  <unicode hex="005A"/>
  <anchor x="667.66" y="0.0" name="bottom"/>
  <anchor x="666.66" y="1400.0" name="top"/>
  <outline>
    <contour>
      <point x="-70.33984375" y="10.0" type="curve" smooth="yes"/>
      <point x="608.731445312" y="1050.0" type="line"/>
      <point x="72.66015625" y="1050.0" type="line" smooth="yes"/>
      <point x="65.66015625" y="1050.0"/>
      <point x="62.66015625" y="1053.0"/>
      <point x="62.66015625" y="1060.0" type="curve" smooth="yes"/>
      <point x="62.66015625" y="1390.0" type="line" smooth="yes"/>
      <point x="62.66015625" y="1397.0"/>
      <point x="65.66015625" y="1400.0"/>
      <point x="72.66015625" y="1400.0" type="curve" smooth="yes"/>
      <point x="1302.66015625" y="1400.0" type="line" smooth="yes"/>
      <point x="1309.66015625" y="1400.0"/>
      <point x="1311.16699219" y="1397.76757812"/>
      <point x="1305.66015625" y="1390.0" type="curve" smooth="yes"/>
      <point x="626.588867188" y="350.0" type="line"/>
      <point x="1242.66015625" y="350.0" type="line" smooth="yes"/>
      <point x="1249.66015625" y="350.0"/>
      <point x="1252.66015625" y="347.0"/>
      <point x="1252.66015625" y="340.0" type="curve" smooth="yes"/>
      <point x="1252.66015625" y="10.0" type="line" smooth="yes"/>
      <point x="1252.66015625" y="3.0"/>
      <point x="1249.66015625" y="0.0"/>
      <point x="1242.66015625" y="0.0" type="curve" smooth="yes"/>
      <point x="-67.33984375" y="0.0" type="line" smooth="yes"/>
      <point x="-74.33984375" y="0.0"/>
      <point x="-75.9833984375" y="2.0390625"/>
    </contour>
  </outline>
</glyph>
<glyph name="bracketleft" format="2">
  <advance height="1920" width="760"/>
  <unicode hex="005B"/>
  <outline>
    <contour>
      <point x="470.0" y="1350.0" type="line"/>
      <point x="470.0" y="-110.0" type="line"/>
      <point x="700.0" y="-110.0" type="line" smooth="yes"/>
      <point x="707.0" y="-110.0"/>
      <point x="710.0" y="-113.0"/>
      <point x="710.0" y="-120.0" type="curve" smooth="yes"/>
      <point x="710.0" y="-350.0" type="line" smooth="yes"/>
      <point x="710.0" y="-357.0"/>
      <point x="707.0" y="-360.0"/>
      <point x="700.0" y="-360.0" type="curve" smooth="yes"/>
      <point x="80.0" y="-360.0" type="line" smooth="yes"/>
      <point x="73.0" y="-360.0"/>
      <point x="70.0" y="-357.0"/>
      <point x="70.0" y="-350.0" type="curve" smooth="yes"/>
      <point x="70.0" y="1590.0" type="line" smooth="yes"/>
      <point x="70.0" y="1597.0"/>
      <point x="73.0" y="1600.0"/>
      <point x="80.0" y="1600.0" type="curve" smooth="yes"/>
      <point x="700.0" y="1600.0" type="line" smooth="yes"/>
      <point x="707.0" y="1600.0"/>
      <point x="710.0" y="1597.0"/>
      <point x="710.0" y="1590.0" type="curve" smooth="yes"/>
      <point x="710.0" y="1360.0" type="line" smooth="yes"/>
      <point x="710.0" y="1353.0"/>
      <point x="707.0" y="1350.0"/>
      <point x="700.0" y="1350.0" type="curve" smooth="yes"/>
    </contour>
  </outline>
</glyph>
<glyph name="backslash" format="2">
  <advance height="2048" width="1040"/>
  <unicode hex="005C"/>
  <outline>
    <contour>
      <point x="1021.0" y="-90.0" type="line" smooth="yes"/>
      <point x="1024.55175781" y="-98.51953125"/>
      <point x="1022.0" y="-100.0"/>
      <point x="1015.0" y="-100.0" type="curve" smooth="yes"/>
      <point x="675.0" y="-100.0" type="line" smooth="yes"/>
      <point x="669.0" y="-100.0"/>
      <point x="664.551757812" y="-98.51953125"/>
      <point x="661.0" y="-90.0" type="curve" smooth="yes"/>
      <point x="44.0" y="1390.0" type="line" smooth="yes"/>
      <point x="40.4482421875" y="1398.51953125"/>
      <point x="43.0" y="1400.0"/>
      <point x="50.0" y="1400.0" type="curve" smooth="yes"/>
      <point x="390.0" y="1400.0" type="line" smooth="yes"/>
      <point x="397.0" y="1400.0"/>
      <point x="400.448242188" y="1398.51953125"/>
      <point x="404.0" y="1390.0" type="curve" smooth="yes"/>
    </contour>
  </outline>
</glyph>
<glyph name="bracketright" format="2">
  <advance height="1920" width="750"/>
  <unicode hex="005D"/>
  <outline>
    <contour>
      <point x="290.0" y="-110.0" type="line"/>
      <point x="290.0" y="1350.0" type="line"/>
      <point x="60.0" y="1350.0" type="line" smooth="yes"/>
      <point x="53.0" y="1350.0"/>
      <point x="50.0" y="1353.0"/>
      <point x="50.0" y="1360.0" type="curve" smooth="yes"/>
      <point x="50.0" y="1590.0" type="line" smooth="yes"/>
      <point x="50.0" y="1597.0"/>
      <point x="53.0" y="1600.0"/>
      <point x="60.0" y="1600.0" type="curve" smooth="yes"/>
      <point x="670.0" y="1600.0" type="line" smooth="yes"/>
      <point x="677.0" y="1600.0"/>
      <point x="680.0" y="1597.0"/>
      <point x="680.0" y="1590.0" type="curve" smooth="yes"/>
      <point x="680.0" y="-350.0" type="line" smooth="yes"/>
      <point x="680.0" y="-357.0"/>
      <point x="677.0" y="-360.0"/>
      <point x="670.0" y="-360.0" type="curve" smooth="yes"/>
      <point x="60.0" y="-360.0" type="line" smooth="yes"/>
      <point x="53.0" y="-360.0"/>
      <point x="50.0" y="-357.0"/>
      <point x="50.0" y="-350.0" type="curve" smooth="yes"/>
      <point x="50.0" y="-120.0" type="line" smooth="yes"/>
      <point x="50.0" y="-113.0"/>
      <point x="53.0" y="-110.0"/>
      <point x="60.0" y="-110.0" type="curve" smooth="yes"/>
    </contour>
  </outline>
</glyph>
<glyph name="asciicircum" format="2">
  <advance height="1920" width="820"/>
  <unicode hex="005E"/>
  <outline>
    <contour>
      <point x="410.0" y="991.481445312" type="line"/>
      <point x="354.0" y="740.0" type="line" smooth="yes"/>
      <point x="351.668945312" y="734.021484375"/>
      <point x="347.0" y="730.0"/>
      <point x="340.0" y="730.0" type="curve" smooth="yes"/>
      <point x="-30.0" y="730.0" type="line" smooth="yes"/>
      <point x="-37.0" y="730.0"/>
      <point x="-38.6982421875" y="733.552734375"/>
      <point x="-36.0" y="740.0" type="curve" smooth="yes"/>
      <point x="236.0" y="1390.0" type="line" smooth="yes"/>
      <point x="239.561523438" y="1398.50976562"/>
      <point x="243.0" y="1400.0"/>
      <point x="250.0" y="1400.0" type="curve" smooth="yes"/>
      <point x="570.0" y="1400.0" type="line" smooth="yes"/>
      <point x="577.0" y="1400.0"/>
      <point x="580.438476562" y="1398.50976562"/>
      <point x="584.0" y="1390.0" type="curve" smooth="yes"/>
      <point x="856.0" y="740.0" type="line" smooth="yes"/>
      <point x="859.1171875" y="733.82421875"/>
      <point x="862.494140625" y="730.0"/>
      <point x="850.0" y="730.0" type="curve" smooth="yes"/>
      <point x="480.0" y="730.0" type="line" smooth="yes"/>
      <point x="469.571289062" y="730.0"/>
      <point x="467.76953125" y="733.76953125"/>
      <point x="466.0" y="740.0" type="curve" smooth="yes"/>
    </contour>
  </outline>
</glyph>
<glyph name="grave" format="2">
  <advance width="773"/>
  <unicode hex="0060"/>
  <outline>
    <contour>
      <point x="706.0" y="1104.0" type="curve" smooth="yes"/>
      <point x="456.0" y="1104.0" type="line" smooth="yes"/>
      <point x="449.0" y="1104.0"/>
      <point x="441.0" y="1109.0"/>
      <point x="436.0" y="1114.0" type="curve" smooth="yes"/>
      <point x="61.0" y="1390.0" type="line" smooth="yes"/>
      <point x="56.0" y="1395.0"/>
      <point x="54.0" y="1400.0"/>
      <point x="61.0" y="1400.0" type="curve" smooth="yes"/>
      <point x="621.0" y="1400.0" type="line" smooth="yes"/>
      <point x="628.0" y="1400.0"/>
      <point x="633.0" y="1397.0"/>
      <point x="637.0" y="1390.0" type="curve" smooth="yes"/>
      <point x="710.0" y="1114.0" type="line" smooth="yes"/>
      <point x="714.0" y="1107.0"/>
      <point x="713.0" y="1104.0"/>
    </contour>
  </outline>
</glyph>
<glyph name="a" format="2">
  <advance height="1920" width="1290"/>
  <unicode hex="0061"/>
  <anchor x="631.04" y="0.0" name="bottom"/>
  <anchor x="1036.04" y="0.0" name="ogonek"/>
  <anchor x="660.04" y="1050.0" name="top"/>
  <outline>
    <contour>
      <point x="516.040039062" y="320.0" type="curve" smooth="yes"/>
      <point x="516.040039062" y="256.396484375"/>
      <point x="548.221679688" y="235.0"/>
      <point x="596.040039062" y="235.0" type="curve" smooth="yes"/>
      <point x="680.040039062" y="235.0"/>
      <point x="734.040039062" y="292.0"/>
      <point x="734.040039062" y="438.0" type="curve"/>
      <point x="864.040039062" y="328.0" type="line"/>
      <point x="864.040039062" y="125.0"/>
      <point x="693.040039062" y="-35.0"/>
      <point x="412.040039062" y="-35.0" type="curve" smooth="yes"/>
      <point x="172.776367188" y="-35.0"/>
      <point x="26.0400390625" y="55.109375"/>
      <point x="26.0400390625" y="270.0" type="curve" smooth="yes"/>
      <point x="26.0400390625" y="461.0078125"/>
      <point x="144.599609375" y="575.212890625"/>
      <point x="485.040039062" y="615.0" type="curve" smooth="yes"/>
      <point x="669.09765625" y="636.510742188"/>
      <point x="734.040039062" y="675.0"/>
      <point x="734.040039062" y="718.0" type="curve"/>
      <point x="774.040039062" y="538.0" type="line"/>
      <point x="774.040039062" y="475.0"/>
      <point x="706.123046875" y="453.532226562"/>
      <point x="642.040039062" y="440.0" type="curve" smooth="yes"/>
      <point x="564.118164062" y="423.545898438"/>
      <point x="516.040039062" y="400.081054688"/>
    </contour>
    <contour>
      <point x="734.040039062" y="208.0" type="curve" smooth="yes"/>
      <point x="734.040039062" y="738.0" type="line" smooth="yes"/>
      <point x="734.040039062" y="778.0"/>
      <point x="714.040039062" y="805.0"/>
      <point x="649.040039062" y="805.0" type="curve" smooth="yes"/>
      <point x="580.293945312" y="805.0"/>
      <point x="567.36328125" y="754.200195312"/>
      <point x="564.17578125" y="702.0" type="curve" smooth="yes"/>
      <point x="563.809719457" y="696.005177386"/>
      <point x="560.903320312" y="693.0"/>
      <point x="554.040039062" y="693.0" type="curve" smooth="yes"/>
      <point x="104.040039062" y="693.0" type="line" smooth="yes"/>
      <point x="96.9736328125" y="693.0"/>
      <point x="94.0244140625" y="695.9921875"/>
      <point x="94.8935546875" y="702.0" type="curve" smooth="yes"/>
      <point x="128.569335938" y="934.799804688"/>
      <point x="338.421875" y="1085.0"/>
      <point x="684.040039062" y="1085.0" type="curve" smooth="yes"/>
      <point x="1044.04003906" y="1085.0"/>
      <point x="1214.04003906" y="961.0"/>
      <point x="1214.04003906" y="693.0" type="curve" smooth="yes"/>
      <point x="1214.04003906" y="208.0" type="line" smooth="yes"/>
      <point x="1214.04003906" y="113.612304688"/>
      <point x="1235.51269531" y="48.6728515625"/>
      <point x="1271.45800781" y="7.0" type="curve" smooth="yes"/>
      <point x="1275.71972656" y="2.05859375"/>
      <point x="1274.65039062" y="0.0"/>
      <point x="1268.04003906" y="0.0" type="curve" smooth="yes"/>
      <point x="834.040039062" y="0.0" type="line" smooth="yes"/>
      <point x="826.723632812" y="0.0"/>
      <point x="821.786132812" y="2.0537109375"/>
      <point x="818.376953125" y="6.0" type="curve" smooth="yes"/>
      <point x="781.4375" y="48.76171875"/>
      <point x="734.040039062" y="112.8359375"/>
    </contour>
  </outline>
</glyph>
<glyph name="b" format="2">
  <advance height="1920" width="1315"/>
  <unicode hex="0062"/>
  <outline>
    <contour>
      <point x="60.0" y="1450.0" type="curve" smooth="yes"/>
      <point x="530.0" y="1450.0" type="line" smooth="yes"/>
      <point x="537.0" y="1450.0"/>
      <point x="540.0" y="1447.0"/>
      <point x="540.0" y="1440.0" type="curve" smooth="yes"/>
      <point x="540.0" y="325.0" type="line"/>
      <point x="197.0" y="-25.0" type="line" smooth="yes"/>
      <point x="189.966796875" y="-32.1767578125"/>
      <point x="177.0" y="-35.0"/>
      <point x="170.0" y="-35.0" type="curve" smooth="yes"/>
      <point x="60.0" y="-35.0" type="line" smooth="yes"/>
      <point x="53.0" y="-35.0"/>
      <point x="50.0" y="-32.0"/>
      <point x="50.0" y="-25.0" type="curve" smooth="yes"/>
      <point x="50.0" y="1440.0" type="line" smooth="yes"/>
      <point x="50.0" y="1447.0"/>
      <point x="53.0" y="1450.0"/>
    </contour>
    <contour>
      <point x="480.0" y="633.0" type="line"/>
      <point x="480.0" y="923.0"/>
      <point x="617.0" y="1085.0"/>
      <point x="874.0" y="1085.0" type="curve" smooth="yes"/>
      <point x="1141.0" y="1085.0"/>
      <point x="1290.0" y="943.0"/>
      <point x="1290.0" y="603.0" type="curve" smooth="yes"/>
      <point x="1290.0" y="447.0" type="line" smooth="yes"/>
      <point x="1290.0" y="127.0"/>
      <point x="1101.0" y="-35.0"/>
      <point x="784.0" y="-35.0" type="curve" smooth="yes"/>
      <point x="497.0" y="-35.0"/>
      <point x="290.0" y="127.0"/>
      <point x="290.0" y="417.0" type="curve"/>
      <point x="540.0" y="487.0" type="line"/>
      <point x="540.0" y="347.0"/>
      <point x="587.0" y="305.0"/>
      <point x="664.0" y="305.0" type="curve" smooth="yes"/>
      <point x="751.0" y="305.0"/>
      <point x="800.0" y="357.0"/>
      <point x="800.0" y="467.0" type="curve" smooth="yes"/>
      <point x="800.0" y="583.0" type="line" smooth="yes"/>
      <point x="800.0" y="693.0"/>
      <point x="751.0" y="745.0"/>
      <point x="664.0" y="745.0" type="curve" smooth="yes"/>
      <point x="587.0" y="745.0"/>
      <point x="540.0" y="673.0"/>
      <point x="540.0" y="563.0" type="curve"/>
    </contour>
  </outline>
</glyph>
<glyph name="c" format="2">
  <advance height="1920" width="1130"/>
  <unicode hex="0063"/>
  <anchor x="640.393" y="0.0" name="bottom"/>
  <anchor x="634.393" y="1050.0" name="top"/>
  <outline>
    <contour>
      <point x="1114.98046875" y="430.0" type="curve" smooth="yes"/>
      <point x="1111.14302766" y="363.319549717"/>
      <point x="1097.30555396" y="300.103379978"/>
      <point x="1072.79989109" y="243.00000829" type="curve" smooth="yes"/>
      <point x="1002.28977334" y="78.6965375805"/>
      <point x="843.459326527" y="-35.0"/>
      <point x="580.392578125" y="-35.0" type="curve" smooth="yes"/>
      <point x="200.392578125" y="-35.0"/>
      <point x="25.392578125" y="151.0"/>
      <point x="25.392578125" y="448.0" type="curve" smooth="yes"/>
      <point x="25.392578125" y="603.0" type="line" smooth="yes"/>
      <point x="25.392578125" y="900.0"/>
      <point x="205.392578125" y="1085.0"/>
      <point x="585.392578125" y="1085.0" type="curve" smooth="yes"/>
      <point x="852.779354344" y="1085.0"/>
      <point x="1007.0480844" y="984.502682698"/>
      <point x="1071.00000275" y="806.469673056" type="curve" smooth="yes"/>
      <point x="1090.65638714" y="751.749105441"/>
      <point x="1101.78042044" y="689.703636322"/>
      <point x="1105.03417969" y="621.0" type="curve" smooth="yes"/>
      <point x="1105.27148438" y="615.989257812"/>
      <point x="1102.43457031" y="613.0"/>
      <point x="1095.39257812" y="613.0" type="curve" smooth="yes"/>
      <point x="805.392578125" y="613.0" type="line" smooth="yes"/>
      <point x="798.434570312" y="613.0"/>
      <point x="795.047851562" y="615.975585938"/>
      <point x="794.982421875" y="620.0" type="curve" smooth="yes"/>
      <point x="794.448495938" y="652.818946222"/>
      <point x="788.66787354" y="681.204023747"/>
      <point x="778.641821964" y="704.999980568" type="curve" smooth="yes"/>
      <point x="753.697549824" y="764.203029574"/>
      <point x="702.474606331" y="795.0"/>
      <point x="640.392578125" y="795.0" type="curve" smooth="yes"/>
      <point x="556.392578125" y="795.0"/>
      <point x="515.392578125" y="733.0"/>
      <point x="515.392578125" y="583.0" type="curve" smooth="yes"/>
      <point x="515.392578125" y="468.0" type="line" smooth="yes"/>
      <point x="515.392578125" y="325.0"/>
      <point x="566.392578125" y="255.0"/>
      <point x="655.392578125" y="255.0" type="curve" smooth="yes"/>
      <point x="710.597429635" y="255.0"/>
      <point x="754.737250291" y="285.777305582"/>
      <point x="780.383224998" y="332.999997194" type="curve" smooth="yes"/>
      <point x="795.5400592" y="360.908724216"/>
      <point x="804.237290568" y="394.561559982"/>
      <point x="804.94140625" y="431.0" type="curve" smooth="yes"/>
      <point x="805.01953125" y="435.030273438"/>
      <point x="808.439453125" y="438.0"/>
      <point x="815.392578125" y="438.0" type="curve" smooth="yes"/>
      <point x="1105.39257812" y="438.0" type="line" smooth="yes"/>
      <point x="1112.44140625" y="438.0"/>
      <point x="1115.26855469" y="435.012695312"/>
    </contour>
  </outline>
</glyph>
<glyph name="d" format="2">
  <advance height="1920" width="1315"/>
  <unicode hex="0064"/>
  <outline>
    <contour>
      <point x="835.0" y="417.0" type="line"/>
      <point x="835.0" y="127.0"/>
      <point x="698.0" y="-35.0"/>
      <point x="441.0" y="-35.0" type="curve" smooth="yes"/>
      <point x="174.0" y="-35.0"/>
      <point x="25.0" y="107.0"/>
      <point x="25.0" y="447.0" type="curve" smooth="yes"/>
      <point x="25.0" y="603.0" type="line" smooth="yes"/>
      <point x="25.0" y="943.0"/>
      <point x="174.0" y="1085.0"/>
      <point x="441.0" y="1085.0" type="curve" smooth="yes"/>
      <point x="698.0" y="1085.0"/>
      <point x="835.0" y="923.0"/>
      <point x="835.0" y="633.0" type="curve"/>
      <point x="775.0" y="563.0" type="line"/>
      <point x="775.0" y="673.0"/>
      <point x="728.0" y="745.0"/>
      <point x="651.0" y="745.0" type="curve" smooth="yes"/>
      <point x="564.0" y="745.0"/>
      <point x="515.0" y="693.0"/>
      <point x="515.0" y="583.0" type="curve" smooth="yes"/>
      <point x="515.0" y="467.0" type="line" smooth="yes"/>
      <point x="515.0" y="357.0"/>
      <point x="564.0" y="305.0"/>
      <point x="651.0" y="305.0" type="curve" smooth="yes"/>
      <point x="728.0" y="305.0"/>
      <point x="775.0" y="377.0"/>
      <point x="775.0" y="487.0" type="curve"/>
    </contour>
    <contour>
      <point x="1265.0" y="1440.0" type="curve" smooth="yes"/>
      <point x="1265.0" y="10.0" type="line" smooth="yes"/>
      <point x="1265.0" y="3.0"/>
      <point x="1262.0" y="0.0"/>
      <point x="1255.0" y="0.0" type="curve" smooth="yes"/>
      <point x="800.0" y="0.0" type="line" smooth="yes"/>
      <point x="793.0" y="0.0"/>
      <point x="790.0" y="3.0"/>
      <point x="790.0" y="10.0" type="curve" smooth="yes"/>
      <point x="790.0" y="220.0" type="line"/>
      <point x="775.0" y="252.0" type="line"/>
      <point x="775.0" y="1440.0" type="line" smooth="yes"/>
      <point x="775.0" y="1447.0"/>
      <point x="778.0" y="1450.0"/>
      <point x="785.0" y="1450.0" type="curve" smooth="yes"/>
      <point x="1255.0" y="1450.0" type="line" smooth="yes"/>
      <point x="1262.0" y="1450.0"/>
      <point x="1265.0" y="1447.0"/>
    </contour>
  </outline>
</glyph>
<glyph name="e" format="2">
  <advance height="1920" width="1258"/>
  <unicode hex="0065"/>
  <anchor x="633.0" y="0.0" name="bottom"/>
  <anchor x="839.0" y="60.0" name="ogonek"/>
  <anchor x="644.0" y="1050.0" name="top"/>
  <outline>
    <contour>
      <point x="1233.0" y="329.0" type="curve" smooth="yes"/>
      <point x="1220.0" y="270.0"/>
      <point x="1197.0" y="218.0"/>
      <point x="1164.0" y="173.0" type="curve" smooth="yes"/>
      <point x="1065.0" y="38.0"/>
      <point x="879.0" y="-35.0"/>
      <point x="631.0" y="-35.0" type="curve" smooth="yes"/>
      <point x="262.0" y="-35.0"/>
      <point x="25.0" y="138.0"/>
      <point x="25.0" y="448.0" type="curve" smooth="yes"/>
      <point x="25.0" y="603.0" type="line" smooth="yes"/>
      <point x="25.0" y="903.0"/>
      <point x="262.0" y="1085.0"/>
      <point x="639.0" y="1085.0" type="curve" smooth="yes"/>
      <point x="1006.0" y="1085.0"/>
      <point x="1211.0" y="889.0"/>
      <point x="1235.0" y="624.0" type="curve" smooth="yes"/>
      <point x="1241.0" y="553.0"/>
      <point x="1243.0" y="527.0"/>
      <point x="1243.0" y="443.0" type="curve" smooth="yes"/>
      <point x="1243.0" y="438.0"/>
      <point x="1240.0" y="435.0"/>
      <point x="1233.0" y="435.0" type="curve" smooth="yes"/>
      <point x="299.0" y="435.0" type="line"/>
      <point x="299.0" y="605.0" type="line"/>
      <point x="759.0" y="605.0" type="line"/>
      <point x="754.0" y="747.0"/>
      <point x="707.0" y="805.0"/>
      <point x="634.0" y="805.0" type="curve" smooth="yes"/>
      <point x="567.0" y="805.0"/>
      <point x="515.0" y="753.0"/>
      <point x="515.0" y="633.0" type="curve" smooth="yes"/>
      <point x="515.0" y="418.0" type="line" smooth="yes"/>
      <point x="515.0" y="268.0"/>
      <point x="562.0" y="245.0"/>
      <point x="639.0" y="245.0" type="curve" smooth="yes"/>
      <point x="721.0" y="245.0"/>
      <point x="752.0" y="274.0"/>
      <point x="764.0" y="332.0" type="curve" smooth="yes"/>
      <point x="765.0" y="336.0"/>
      <point x="768.0" y="338.0"/>
      <point x="775.0" y="338.0" type="curve" smooth="yes"/>
      <point x="1225.0" y="338.0" type="line" smooth="yes"/>
      <point x="1232.0" y="338.0"/>
      <point x="1234.0" y="335.0"/>
    </contour>
  </outline>
</glyph>
<glyph name="f" format="2">
  <advance height="1920" width="770"/>
  <unicode hex="0066"/>
  <outline>
    <contour>
      <point x="750.0" y="810.0" type="curve" smooth="yes"/>
      <point x="20.0" y="810.0" type="line" smooth="yes"/>
      <point x="13.0" y="810.0"/>
      <point x="10.0" y="813.0"/>
      <point x="10.0" y="820.0" type="curve" smooth="yes"/>
      <point x="10.0" y="1040.0" type="line" smooth="yes"/>
      <point x="10.0" y="1047.0"/>
      <point x="13.0" y="1050.0"/>
      <point x="20.0" y="1050.0" type="curve" smooth="yes"/>
      <point x="750.0" y="1050.0" type="line" smooth="yes"/>
      <point x="757.0" y="1050.0"/>
      <point x="760.0" y="1047.0"/>
      <point x="760.0" y="1040.0" type="curve" smooth="yes"/>
      <point x="760.0" y="820.0" type="line" smooth="yes"/>
      <point x="760.0" y="813.0"/>
      <point x="757.0" y="810.0"/>
    </contour>
    <contour>
      <point x="130.0" y="1188.0" type="line" smooth="yes"/>
      <point x="130.0" y="1425.14550781"/>
      <point x="360.911132812" y="1468.85058594"/>
      <point x="748.0" y="1441.16601562" type="curve" smooth="yes"/>
      <point x="757.045898438" y="1440.51855469"/>
      <point x="760.0" y="1437.046875"/>
      <point x="760.0" y="1430.0" type="curve" smooth="yes"/>
      <point x="760.0" y="1170.0" type="line" smooth="yes"/>
      <point x="760.0" y="1163.15625"/>
      <point x="756.849609375" y="1159.265625"/>
      <point x="744.0" y="1161.88964844" type="curve" smooth="yes"/>
      <point x="668.801757812" y="1177.24707031"/>
      <point x="615.0" y="1153.49511719"/>
      <point x="615.0" y="1068.0" type="curve" smooth="yes"/>
      <point x="615.0" y="10.0" type="line" smooth="yes"/>
      <point x="615.0" y="3.0"/>
      <point x="612.0" y="0.0"/>
      <point x="605.0" y="0.0" type="curve" smooth="yes"/>
      <point x="140.0" y="0.0" type="line" smooth="yes"/>
      <point x="133.0" y="0.0"/>
      <point x="130.0" y="3.0"/>
      <point x="130.0" y="10.0" type="curve" smooth="yes"/>
    </contour>
  </outline>
</glyph>
<glyph name="i" format="2">
  <advance height="1920" width="590"/>
  <unicode hex="0069"/>
  <anchor x="296.0" y="0.0" name="bottom"/>
  <anchor x="296.0" y="0.0" name="ogonek"/>
  <outline>
    <contour>
      <point x="470.0" y="1500.0" type="curve" smooth="yes"/>
      <point x="470.0" y="1170.0" type="line" smooth="yes"/>
      <point x="470.0" y="1163.0"/>
      <point x="467.0" y="1160.0"/>
      <point x="460.0" y="1160.0" type="curve" smooth="yes"/>
      <point x="130.0" y="1160.0" type="line" smooth="yes"/>
      <point x="123.0" y="1160.0"/>
      <point x="120.0" y="1163.0"/>
      <point x="120.0" y="1170.0" type="curve" smooth="yes"/>
      <point x="120.0" y="1500.0" type="line" smooth="yes"/>
      <point x="120.0" y="1507.0"/>
      <point x="123.0" y="1510.0"/>
      <point x="130.0" y="1510.0" type="curve" smooth="yes"/>
      <point x="460.0" y="1510.0" type="line" smooth="yes"/>
      <point x="467.0" y="1510.0"/>
      <point x="470.0" y="1507.0"/>
    </contour>
    <contour>
      <point x="540.0" y="1040.0" type="curve" smooth="yes"/>
      <point x="540.0" y="10.0" type="line" smooth="yes"/>
      <point x="540.0" y="3.0"/>
      <point x="537.0" y="0.0"/>
      <point x="530.0" y="0.0" type="curve" smooth="yes"/>
      <point x="60.0" y="0.0" type="line" smooth="yes"/>
      <point x="53.0" y="0.0"/>
      <point x="50.0" y="3.0"/>
      <point x="50.0" y="10.0" type="curve" smooth="yes"/>
      <point x="50.0" y="1040.0" type="line" smooth="yes"/>
      <point x="50.0" y="1047.0"/>
      <point x="53.0" y="1050.0"/>
      <point x="60.0" y="1050.0" type="curve" smooth="yes"/>
      <point x="530.0" y="1050.0" type="line" smooth="yes"/>
      <point x="537.0" y="1050.0"/>
      <point x="540.0" y="1047.0"/>
    </contour>
  </outline>
</glyph>
<glyph name="l" format="2">
  <advance height="1920" width="590"/>
  <unicode hex="006C"/>
  <outline>
    <contour>
      <point x="60.0" y="1450.0" type="curve" smooth="yes"/>
      <point x="530.0" y="1450.0" type="line" smooth="yes"/>
      <point x="537.0" y="1450.0"/>
      <point x="540.0" y="1447.0"/>
      <point x="540.0" y="1440.0" type="curve" smooth="yes"/>
      <point x="540.0" y="10.0" type="line" smooth="yes"/>
      <point x="540.0" y="3.0"/>
      <point x="536.595703125" y="0.0"/>
      <point x="530.0" y="0.0" type="curve" smooth="yes"/>
      <point x="60.0" y="0.0" type="line" smooth="yes"/>
      <point x="53.0" y="0.0"/>
      <point x="50.0" y="3.0"/>
      <point x="50.0" y="10.0" type="curve" smooth="yes"/>
      <point x="50.0" y="1440.0" type="line" smooth="yes"/>
      <point x="50.0" y="1447.0"/>
      <point x="53.0" y="1450.0"/>
    </contour>
  </outline>
</glyph>
<glyph name="m" format="2">
  <advance height="1920" width="1625"/>
  <unicode hex="006D"/>
  <outline>
    <contour>
      <point x="940.0" y="703.0" type="line"/>
      <point x="940.0" y="943.0"/>
      <point x="1088.0" y="1085.0"/>
      <point x="1285.0" y="1085.0" type="curve" smooth="yes"/>
      <point x="1492.0" y="1085.0"/>
      <point x="1580.0" y="972.995117188"/>
      <point x="1580.0" y="663.0" type="curve" smooth="yes"/>
      <point x="1580.0" y="10.0" type="line" smooth="yes"/>
      <point x="1580.0" y="3.0"/>
      <point x="1577.0" y="0.0"/>
      <point x="1570.0" y="0.0" type="curve" smooth="yes"/>
      <point x="1120.0" y="0.0" type="line" smooth="yes"/>
      <point x="1113.0" y="0.0"/>
      <point x="1110.0" y="3.0"/>
      <point x="1110.0" y="10.0" type="curve" smooth="yes"/>
      <point x="1110.0" y="613.0" type="line" smooth="yes"/>
      <point x="1110.0" y="713.0"/>
      <point x="1102.0" y="755.0"/>
      <point x="1065.0" y="755.0" type="curve" smooth="yes"/>
      <point x="1028.0" y="755.0"/>
      <point x="1010.0" y="683.0"/>
      <point x="1010.0" y="473.0" type="curve"/>
    </contour>
    <contour>
      <point x="60.0" y="1050.0" type="curve" smooth="yes"/>
      <point x="500.0" y="1050.0" type="line" smooth="yes"/>
      <point x="507.0" y="1050.0"/>
      <point x="510.0" y="1047.0"/>
      <point x="510.0" y="1040.0" type="curve" smooth="yes"/>
      <point x="510.0" y="687.0" type="line"/>
      <point x="520.0" y="660.0" type="line"/>
      <point x="520.0" y="10.0" type="line" smooth="yes"/>
      <point x="520.0" y="3.0"/>
      <point x="517.0" y="0.0"/>
      <point x="510.0" y="0.0" type="curve" smooth="yes"/>
      <point x="60.0" y="0.0" type="line" smooth="yes"/>
      <point x="53.0" y="0.0"/>
      <point x="50.0" y="3.0"/>
      <point x="50.0" y="10.0" type="curve" smooth="yes"/>
      <point x="50.0" y="1040.0" type="line" smooth="yes"/>
      <point x="50.0" y="1047.0"/>
      <point x="53.0" y="1050.0"/>
    </contour>
    <contour>
      <point x="470.0" y="703.0" type="line"/>
      <point x="470.0" y="943.0"/>
      <point x="568.0" y="1085.0"/>
      <point x="755.0" y="1085.0" type="curve" smooth="yes"/>
      <point x="942.0" y="1085.0"/>
      <point x="1010.0" y="972.995117188"/>
      <point x="1010.0" y="663.0" type="curve" smooth="yes"/>
      <point x="1010.0" y="10.0" type="line" smooth="yes"/>
      <point x="1010.0" y="3.0"/>
      <point x="1007.0" y="0.0"/>
      <point x="1000.0" y="0.0" type="curve" smooth="yes"/>
      <point x="630.0" y="0.0" type="line" smooth="yes"/>
      <point x="623.0" y="0.0"/>
      <point x="620.0" y="3.0"/>
      <point x="620.0" y="10.0" type="curve" smooth="yes"/>
      <point x="620.0" y="613.0" type="line" smooth="yes"/>
      <point x="620.0" y="713.0"/>
      <point x="612.0" y="755.0"/>
      <point x="575.0" y="755.0" type="curve" smooth="yes"/>
      <point x="538.0" y="755.0"/>
      <point x="520.0" y="683.0"/>
      <point x="520.0" y="473.0" type="curve"/>
    </contour>
  </outline>
</glyph>
<glyph name="n" format="2">
  <advance height="1920" width="1255"/>
  <unicode hex="006E"/>
  <anchor x="629.0" y="0.0" name="bottom"/>
  <anchor x="630.0" y="1050.0" name="top"/>
  <outline>
    <contour>
      <point x="60.0" y="1050.0" type="curve" smooth="yes"/>
      <point x="520.0" y="1050.0" type="line" smooth="yes"/>
      <point x="527.0" y="1050.0"/>
      <point x="530.0" y="1047.0"/>
      <point x="530.0" y="1040.0" type="curve" smooth="yes"/>
      <point x="530.0" y="687.0" type="line"/>
      <point x="540.0" y="660.0" type="line"/>
      <point x="540.0" y="10.0" type="line" smooth="yes"/>
      <point x="540.0" y="3.0"/>
      <point x="537.0" y="0.0"/>
      <point x="530.0" y="0.0" type="curve" smooth="yes"/>
      <point x="60.0" y="0.0" type="line" smooth="yes"/>
      <point x="53.0" y="0.0"/>
      <point x="50.0" y="3.0"/>
      <point x="50.0" y="10.0" type="curve" smooth="yes"/>
      <point x="50.0" y="1040.0" type="line" smooth="yes"/>
      <point x="50.0" y="1047.0"/>
      <point x="53.0" y="1050.0"/>
    </contour>
    <contour>
      <point x="490.0" y="703.0" type="line"/>
      <point x="490.0" y="943.0"/>
      <point x="648.0" y="1085.0"/>
      <point x="865.0" y="1085.0" type="curve" smooth="yes"/>
      <point x="1092.0" y="1085.0"/>
      <point x="1210.0" y="972.995117188"/>
      <point x="1210.0" y="663.0" type="curve" smooth="yes"/>
      <point x="1210.0" y="10.0" type="line" smooth="yes"/>
      <point x="1210.0" y="3.0"/>
      <point x="1207.0" y="0.0"/>
      <point x="1200.0" y="0.0" type="curve" smooth="yes"/>
      <point x="730.0" y="0.0" type="line" smooth="yes"/>
      <point x="723.0" y="0.0"/>
      <point x="720.0" y="3.0"/>
      <point x="720.0" y="10.0" type="curve" smooth="yes"/>
      <point x="720.0" y="613.0" type="line" smooth="yes"/>
      <point x="720.0" y="713.0"/>
      <point x="702.0" y="755.0"/>
      <point x="645.0" y="755.0" type="curve" smooth="yes"/>
      <point x="588.0" y="755.0"/>
      <point x="540.0" y="683.0"/>
      <point x="540.0" y="473.0" type="curve"/>
    </contour>
  </outline>
</glyph>
<glyph name="p" format="2">
  <advance height="1920" width="1315"/>
  <unicode hex="0070"/>
  <outline>
    <contour>
      <point x="480.0" y="633.0" type="line"/>
      <point x="480.0" y="923.0"/>
      <point x="617.0" y="1085.0"/>
      <point x="874.0" y="1085.0" type="curve" smooth="yes"/>
      <point x="1141.0" y="1085.0"/>
      <point x="1290.0" y="943.0"/>
      <point x="1290.0" y="603.0" type="curve" smooth="yes"/>
      <point x="1290.0" y="447.0" type="line" smooth="yes"/>
      <point x="1290.0" y="107.0"/>
      <point x="1141.0" y="-35.0"/>
      <point x="874.0" y="-35.0" type="curve" smooth="yes"/>
      <point x="617.0" y="-35.0"/>
      <point x="480.0" y="127.0"/>
      <point x="480.0" y="417.0" type="curve"/>
      <point x="540.0" y="487.0" type="line"/>
      <point x="540.0" y="377.0"/>
      <point x="587.0" y="305.0"/>
      <point x="664.0" y="305.0" type="curve" smooth="yes"/>
      <point x="751.0" y="305.0"/>
      <point x="800.0" y="357.0"/>
      <point x="800.0" y="467.0" type="curve" smooth="yes"/>
      <point x="800.0" y="583.0" type="line" smooth="yes"/>
      <point x="800.0" y="693.0"/>
      <point x="751.0" y="745.0"/>
      <point x="664.0" y="745.0" type="curve" smooth="yes"/>
      <point x="587.0" y="745.0"/>
      <point x="540.0" y="673.0"/>
      <point x="540.0" y="563.0" type="curve"/>
    </contour>
    <contour>
      <point x="50.0" y="-350.0" type="curve" smooth="yes"/>
      <point x="50.0" y="1040.0" type="line" smooth="yes"/>
      <point x="50.0" y="1047.0"/>
      <point x="53.0" y="1050.0"/>
      <point x="60.0" y="1050.0" type="curve" smooth="yes"/>
      <point x="515.0" y="1050.0" type="line" smooth="yes"/>
      <point x="522.0" y="1050.0"/>
      <point x="525.0" y="1047.0"/>
      <point x="525.0" y="1040.0" type="curve" smooth="yes"/>
      <point x="525.0" y="830.0" type="line"/>
      <point x="540.0" y="798.0" type="line"/>
      <point x="540.0" y="-350.0" type="line" smooth="yes"/>
      <point x="540.0" y="-357.0"/>
      <point x="537.0" y="-360.0"/>
      <point x="530.0" y="-360.0" type="curve" smooth="yes"/>
      <point x="60.0" y="-360.0" type="line" smooth="yes"/>
      <point x="53.0" y="-360.0"/>
      <point x="50.0" y="-357.0"/>
    </contour>
  </outline>
</glyph>
<glyph name="q" format="2">
  <advance height="1920" width="1335"/>
  <unicode hex="0071"/>
  <outline>
    <contour>
      <point x="1255.0" y="-360.0" type="curve" smooth="yes"/>
      <point x="785.0" y="-360.0" type="line" smooth="yes"/>
      <point x="778.0" y="-360.0"/>
      <point x="775.0" y="-357.0"/>
      <point x="775.0" y="-350.0" type="curve" smooth="yes"/>
      <point x="775.0" y="725.0" type="line"/>
      <point x="1118.0" y="1075.0" type="line" smooth="yes"/>
      <point x="1125.03320312" y="1082.17675781"/>
      <point x="1138.0" y="1085.0"/>
      <point x="1145.0" y="1085.0" type="curve" smooth="yes"/>
      <point x="1255.0" y="1085.0" type="line" smooth="yes"/>
      <point x="1262.0" y="1085.0"/>
      <point x="1265.0" y="1082.0"/>
      <point x="1265.0" y="1075.0" type="curve" smooth="yes"/>
      <point x="1265.0" y="-350.0" type="line" smooth="yes"/>
      <point x="1265.0" y="-357.0"/>
      <point x="1262.0" y="-360.0"/>
    </contour>
    <contour>
      <point x="835.0" y="417.0" type="line"/>
      <point x="835.0" y="127.0"/>
      <point x="698.0" y="-35.0"/>
      <point x="441.0" y="-35.0" type="curve" smooth="yes"/>
      <point x="174.0" y="-35.0"/>
      <point x="25.0" y="107.0"/>
      <point x="25.0" y="447.0" type="curve" smooth="yes"/>
      <point x="25.0" y="603.0" type="line" smooth="yes"/>
      <point x="25.0" y="923.0"/>
      <point x="214.0" y="1085.0"/>
      <point x="531.0" y="1085.0" type="curve" smooth="yes"/>
      <point x="818.0" y="1085.0"/>
      <point x="1025.0" y="923.0"/>
      <point x="1025.0" y="633.0" type="curve"/>
      <point x="775.0" y="563.0" type="line"/>
      <point x="775.0" y="703.0"/>
      <point x="728.0" y="745.0"/>
      <point x="651.0" y="745.0" type="curve" smooth="yes"/>
      <point x="564.0" y="745.0"/>
      <point x="515.0" y="693.0"/>
      <point x="515.0" y="583.0" type="curve" smooth="yes"/>
      <point x="515.0" y="467.0" type="line" smooth="yes"/>
      <point x="515.0" y="357.0"/>
      <point x="564.0" y="305.0"/>
      <point x="651.0" y="305.0" type="curve" smooth="yes"/>
      <point x="728.0" y="305.0"/>
      <point x="775.0" y="377.0"/>
      <point x="775.0" y="487.0" type="curve"/>
    </contour>
  </outline>
</glyph>
<glyph name="r" format="2">
  <advance height="1920" width="935"/>
  <unicode hex="0072"/>
  <anchor x="324.0" y="0.0" name="bottom"/>
  <anchor x="475.0" y="1050.0" name="top"/>
  <outline>
    <contour>
      <point x="80.0" y="1050.0" type="curve" smooth="yes"/>
      <point x="515.0" y="1050.0" type="line" smooth="yes"/>
      <point x="523.283277544" y="1049.4516908"/>
      <point x="525.0" y="1046.57611145"/>
      <point x="525.0" y="1040.0" type="curve" smooth="yes"/>
      <point x="525.0" y="724.0" type="line"/>
      <point x="560.0" y="715.0" type="line"/>
      <point x="560.0" y="10.0" type="line" smooth="yes"/>
      <point x="560.0" y="1.71641391964"/>
      <point x="556.575747962" y="0.0"/>
      <point x="550.0" y="0.0" type="curve" smooth="yes"/>
      <point x="80.0" y="0.0" type="line" smooth="yes"/>
      <point x="73.5132661147" y="0.0"/>
      <point x="70.0" y="3.50249416124"/>
      <point x="70.0" y="10.0" type="curve" smooth="yes"/>
      <point x="70.0" y="1040.0" type="line" smooth="yes"/>
      <point x="70.1799327814" y="1046.48673389"/>
      <point x="73.5024941612" y="1049.83083917"/>
    </contour>
    <contour>
      <point x="500.0" y="623.0" type="line"/>
      <point x="500.0" y="818.681640625"/>
      <point x="540.590820312" y="1107.69042969"/>
      <point x="901.0" y="1076.02832031" type="curve" smooth="yes"/>
      <point x="911.984375" y="1075.06347656"/>
      <point x="915.0" y="1072.26171875"/>
      <point x="915.0" y="1065.0" type="curve" smooth="yes"/>
      <point x="915.0" y="685.0" type="line" smooth="yes"/>
      <point x="915.0" y="678.345703125"/>
      <point x="911.86328125" y="672.571289062"/>
      <point x="898.0" y="674.64453125" type="curve" smooth="yes"/>
      <point x="672.557617188" y="708.360351562"/>
      <point x="560.0" y="596.54296875"/>
      <point x="560.0" y="383.0" type="curve"/>
    </contour>
  </outline>
</glyph>
<glyph name="t" format="2">
  <advance height="1920" width="815"/>
  <unicode hex="0074"/>
  <anchor x="559.0" y="0.0" name="bottom"/>
  <outline>
    <contour>
      <point x="775.0" y="810.0" type="curve" smooth="yes"/>
      <point x="-5.0" y="810.0" type="line" smooth="yes"/>
      <point x="-12.0" y="810.0"/>
      <point x="-15.0" y="813.0"/>
      <point x="-15.0" y="820.0" type="curve" smooth="yes"/>
      <point x="-15.0" y="1040.0" type="line" smooth="yes"/>
      <point x="-15.0" y="1047.0"/>
      <point x="-12.0" y="1050.0"/>
      <point x="-5.0" y="1050.0" type="curve" smooth="yes"/>
      <point x="775.0" y="1050.0" type="line" smooth="yes"/>
      <point x="782.0" y="1050.0"/>
      <point x="785.0" y="1047.0"/>
      <point x="785.0" y="1040.0" type="curve" smooth="yes"/>
      <point x="785.0" y="820.0" type="line" smooth="yes"/>
      <point x="785.0" y="813.0"/>
      <point x="782.0" y="810.0"/>
    </contour>
    <contour>
      <point x="790.0" y="320.0" type="curve" smooth="yes"/>
      <point x="790.0" y="10.0" type="line" smooth="yes"/>
      <point x="790.0" y="2.9619140625"/>
      <point x="787.06640625" y="-0.4794921875"/>
      <point x="780.0" y="-1.30859375" type="curve" smooth="yes"/>
      <point x="292.491210938" y="-58.482421875"/>
      <point x="115.0" y="44.3720703125"/>
      <point x="115.0" y="352.0" type="curve" smooth="yes"/>
      <point x="115.0" y="1290.0" type="line" smooth="yes"/>
      <point x="115.0" y="1297.0"/>
      <point x="118.0" y="1300.0"/>
      <point x="125.0" y="1300.0" type="curve" smooth="yes"/>
      <point x="590.0" y="1300.0" type="line" smooth="yes"/>
      <point x="597.0" y="1300.0"/>
      <point x="600.0" y="1297.0"/>
      <point x="600.0" y="1290.0" type="curve" smooth="yes"/>
      <point x="600.0" y="422.0" type="line" smooth="yes"/>
      <point x="600.0" y="314.506835938"/>
      <point x="681.08203125" y="310.674804688"/>
      <point x="781.0" y="328.901367188" type="curve" smooth="yes"/>
      <point x="786.9921875" y="329.994140625"/>
      <point x="790.0" y="326.951171875"/>
    </contour>
  </outline>
</glyph>
<glyph name="u" format="2">
  <advance height="1920" width="1255"/>
  <unicode hex="0075"/>
  <anchor x="568.0" y="0.0" name="bottom"/>
  <anchor x="954.0" y="0.0" name="ogonek"/>
  <anchor x="619.0" y="1050.0" name="top"/>
  <outline>
    <contour>
      <point x="1195.0" y="0.0" type="curve" smooth="yes"/>
      <point x="735.0" y="0.0" type="line" smooth="yes"/>
      <point x="728.0" y="0.0"/>
      <point x="725.0" y="3.0"/>
      <point x="725.0" y="10.0" type="curve" smooth="yes"/>
      <point x="725.0" y="363.0" type="line"/>
      <point x="715.0" y="390.0" type="line"/>
      <point x="715.0" y="1040.0" type="line" smooth="yes"/>
      <point x="715.0" y="1047.0"/>
      <point x="718.0" y="1050.0"/>
      <point x="725.0" y="1050.0" type="curve" smooth="yes"/>
      <point x="1195.0" y="1050.0" type="line" smooth="yes"/>
      <point x="1202.0" y="1050.0"/>
      <point x="1205.0" y="1047.0"/>
      <point x="1205.0" y="1040.0" type="curve" smooth="yes"/>
      <point x="1205.0" y="10.0" type="line" smooth="yes"/>
      <point x="1205.0" y="3.0"/>
      <point x="1202.0" y="0.0"/>
    </contour>
    <contour>
      <point x="765.0" y="347.0" type="line"/>
      <point x="765.0" y="107.0"/>
      <point x="607.0" y="-35.0"/>
      <point x="390.0" y="-35.0" type="curve" smooth="yes"/>
      <point x="163.0" y="-35.0"/>
      <point x="45.0" y="77.0048828125"/>
      <point x="45.0" y="387.0" type="curve" smooth="yes"/>
      <point x="45.0" y="1040.0" type="line" smooth="yes"/>
      <point x="45.0" y="1047.0"/>
      <point x="48.0" y="1050.0"/>
      <point x="55.0" y="1050.0" type="curve" smooth="yes"/>
      <point x="525.0" y="1050.0" type="line" smooth="yes"/>
      <point x="532.0" y="1050.0"/>
      <point x="535.0" y="1047.0"/>
      <point x="535.0" y="1040.0" type="curve" smooth="yes"/>
      <point x="535.0" y="437.0" type="line" smooth="yes"/>
      <point x="535.0" y="337.0"/>
      <point x="553.0" y="295.0"/>
      <point x="610.0" y="295.0" type="curve" smooth="yes"/>
      <point x="667.0" y="295.0"/>
      <point x="715.0" y="367.0"/>
      <point x="715.0" y="577.0" type="curve"/>
    </contour>
  </outline>
</glyph>
<glyph name="v" format="2">
  <advance height="1920" width="1218"/>
  <unicode hex="0076"/>
  <outline>
    <contour>
      <point x="668.650390625" y="338.0" type="line"/>
      <point x="816.650390625" y="1040.0" type="line" smooth="yes"/>
      <point x="818.650390625" y="1047.0"/>
      <point x="823.650390625" y="1050.0"/>
      <point x="830.650390625" y="1050.0" type="curve" smooth="yes"/>
      <point x="1230.65039062" y="1050.0" type="line" smooth="yes"/>
      <point x="1237.65039062" y="1050.0"/>
      <point x="1239.65039062" y="1047.0"/>
      <point x="1236.65039062" y="1040.0" type="curve" smooth="yes"/>
      <point x="934.650390625" y="10.0" type="line" smooth="yes"/>
      <point x="931.650390625" y="2.0"/>
      <point x="927.650390625" y="0.0"/>
      <point x="920.650390625" y="0.0" type="curve" smooth="yes"/>
      <point x="336.650390625" y="0.0" type="line" smooth="yes"/>
      <point x="329.650390625" y="0.0"/>
      <point x="325.650390625" y="3.0"/>
      <point x="322.650390625" y="10.0" type="curve" smooth="yes"/>
      <point x="-29.349609375" y="1040.0" type="line" smooth="yes"/>
      <point x="-31.349609375" y="1047.0"/>
      <point x="-30.349609375" y="1050.0"/>
      <point x="-23.349609375" y="1050.0" type="curve" smooth="yes"/>
      <point x="506.650390625" y="1050.0" type="line" smooth="yes"/>
      <point x="513.650390625" y="1050.0"/>
      <point x="517.650390625" y="1047.0"/>
      <point x="519.650390625" y="1040.0" type="curve" smooth="yes"/>
    </contour>
  </outline>
</glyph>
<glyph name="w" format="2">
  <advance height="1920" width="1530"/>
  <unicode hex="0077"/>
  <outline>
    <contour>
      <point x="1122.26464844" y="468.0" type="line"/>
      <point x="1200.26464844" y="1040.0" type="line" smooth="yes"/>
      <point x="1202.26464844" y="1047.0"/>
      <point x="1205.26464844" y="1050.0"/>
      <point x="1212.26464844" y="1050.0" type="curve" smooth="yes"/>
      <point x="1522.26464844" y="1050.0" type="line" smooth="yes"/>
      <point x="1529.26464844" y="1050.0"/>
      <point x="1531.26464844" y="1047.0"/>
      <point x="1529.26464844" y="1040.0" type="curve" smooth="yes"/>
      <point x="1345.26464844" y="10.0" type="line" smooth="yes"/>
      <point x="1343.26464844" y="3.0"/>
      <point x="1339.26464844" y="0.0"/>
      <point x="1332.26464844" y="0.0" type="curve" smooth="yes"/>
      <point x="857.264648438" y="0.0" type="line" smooth="yes"/>
      <point x="850.264648438" y="0.0"/>
      <point x="846.264648438" y="2.0"/>
      <point x="844.264648438" y="10.0" type="curve" smooth="yes"/>
      <point x="767.264648438" y="358.0" type="line"/>
      <point x="705.264648438" y="10.0" type="line" smooth="yes"/>
      <point x="703.264648438" y="2.0"/>
      <point x="699.264648438" y="0.0"/>
      <point x="692.264648438" y="0.0" type="curve" smooth="yes"/>
      <point x="207.264648438" y="0.0" type="line" smooth="yes"/>
      <point x="200.264648438" y="0.0"/>
      <point x="196.264648438" y="2.0"/>
      <point x="194.264648438" y="10.0" type="curve" smooth="yes"/>
      <point x="0.2646484375" y="1040.0" type="line" smooth="yes"/>
      <point x="-1.7353515625" y="1047.0"/>
      <point x="0.2646484375" y="1050.0"/>
      <point x="7.2646484375" y="1050.0" type="curve" smooth="yes"/>
      <point x="467.264648438" y="1050.0" type="line" smooth="yes"/>
      <point x="474.264648438" y="1050.0"/>
      <point x="478.264648438" y="1047.0"/>
      <point x="480.264648438" y="1040.0" type="curve" smooth="yes"/>
      <point x="562.264648438" y="498.0" type="line"/>
      <point x="679.264648438" y="1040.0" type="line" smooth="yes"/>
      <point x="681.264648438" y="1047.0"/>
      <point x="685.264648438" y="1050.0"/>
      <point x="692.264648438" y="1050.0" type="curve" smooth="yes"/>
      <point x="987.264648438" y="1050.0" type="line" smooth="yes"/>
      <point x="994.264648438" y="1050.0"/>
      <point x="998.264648438" y="1047.0"/>
      <point x="1000.26464844" y="1040.0" type="curve" smooth="yes"/>
    </contour>
  </outline>
</glyph>
<glyph name="x" format="2">
  <advance height="1920" width="1277"/>
  <unicode hex="0078"/>
  <outline>
    <contour>
      <point x="395.868164062" y="0.0" type="curve" smooth="yes"/>
      <point x="-54.1318359375" y="0.0" type="line" smooth="yes"/>
      <point x="-61.1318359375" y="0.0"/>
      <point x="-62.203125" y="2.666015625"/>
      <point x="-57.1318359375" y="10.0" type="curve" smooth="yes"/>
      <point x="340.868164062" y="505.0" type="line"/>
      <point x="-32.1318359375" y="1040.0" type="line" smooth="yes"/>
      <point x="-37.5107421875" y="1047.80566406"/>
      <point x="-36.1318359375" y="1050.0"/>
      <point x="-29.1318359375" y="1050.0" type="curve" smooth="yes"/>
      <point x="570.868164062" y="1050.0" type="line" smooth="yes"/>
      <point x="577.926757812" y="1050.0"/>
      <point x="581.97265625" y="1047.70214844"/>
      <point x="586.868164062" y="1040.0" type="curve" smooth="yes"/>
      <point x="678.868164062" y="865.0" type="line"/>
      <point x="789.868164062" y="1040.0" type="line" smooth="yes"/>
      <point x="794.579101562" y="1047.78027344"/>
      <point x="798.758789062" y="1050.0"/>
      <point x="805.868164062" y="1050.0" type="curve" smooth="yes"/>
      <point x="1255.86816406" y="1050.0" type="line" smooth="yes"/>
      <point x="1262.86816406" y="1050.0"/>
      <point x="1264.07714844" y="1047.38085938"/>
      <point x="1258.86816406" y="1040.0" type="curve" smooth="yes"/>
      <point x="895.868164062" y="624.0" type="line"/>
      <point x="1313.86816406" y="10.0" type="line" smooth="yes"/>
      <point x="1318.88378906" y="2.3779296875"/>
      <point x="1317.86816406" y="0.0"/>
      <point x="1310.86816406" y="0.0" type="curve" smooth="yes"/>
      <point x="720.868164062" y="0.0" type="line" smooth="yes"/>
      <point x="712.809570312" y="0.0"/>
      <point x="709.782226562" y="2.306640625"/>
      <point x="704.868164062" y="10.0" type="curve" smooth="yes"/>
      <point x="568.868164062" y="233.0" type="line"/>
      <point x="411.868164062" y="10.0" type="line" smooth="yes"/>
      <point x="407.368164062" y="2.6923828125"/>
      <point x="402.977539062" y="0.0"/>
    </contour>
  </outline>
</glyph>
<glyph name="y" format="2">
  <advance height="1920" width="1209"/>
  <unicode hex="0079"/>
  <anchor x="616.894" y="1050.0" name="top"/>
  <outline>
    <contour>
      <point x="660.893554688" y="338.0" type="line"/>
      <point x="808.893554688" y="1040.0" type="line" smooth="yes"/>
      <point x="811.321289062" y="1046.84863281"/>
      <point x="814.865234375" y="1050.0"/>
      <point x="821.893554688" y="1050.0" type="curve" smooth="yes"/>
      <point x="1221.89355469" y="1050.0" type="line" smooth="yes"/>
      <point x="1228.89355469" y="1050.0"/>
      <point x="1230.33984375" y="1046.578125"/>
      <point x="1227.89355469" y="1040.0" type="curve" smooth="yes"/>
      <point x="954.893554688" y="139.0" type="line" smooth="yes"/>
      <point x="792.80078125" y="-416.305664062"/>
      <point x="533.048828125" y="-439.63671875"/>
      <point x="17.8935546875" y="-352.859375" type="curve" smooth="yes"/>
      <point x="5.7392578125" y="-350.811523438"/>
      <point x="2.8935546875" y="-347.043945312"/>
      <point x="2.8935546875" y="-340.0" type="curve" smooth="yes"/>
      <point x="2.8935546875" y="-30.0" type="line" smooth="yes"/>
      <point x="2.8935546875" y="-23.0888671875"/>
      <point x="6.02734375" y="-19.7861328125"/>
      <point x="13.8935546875" y="-23.4189453125" type="curve" smooth="yes"/>
      <point x="132.430664062" y="-78.1650390625"/>
      <point x="270.670898438" y="-104.548828125"/>
      <point x="323.893554688" y="-10.0" type="curve"/>
      <point x="-29.1064453125" y="1040.0" type="line" smooth="yes"/>
      <point x="-31.3974609375" y="1046.62792969"/>
      <point x="-30.1064453125" y="1050.0"/>
      <point x="-23.1064453125" y="1050.0" type="curve" smooth="yes"/>
      <point x="496.893554688" y="1050.0" type="line" smooth="yes"/>
      <point x="503.893554688" y="1050.0"/>
      <point x="507.844726562" y="1046.33789062"/>
      <point x="509.893554688" y="1040.0" type="curve" smooth="yes"/>
    </contour>
  </outline>
</glyph>
<glyph name="z" format="2">
  <advance height="1920" width="1130"/>
  <unicode hex="007A"/>
  <anchor x="555.001" y="1050.0" name="top"/>
  <outline>
    <contour>
      <point x="-40.9990234375" y="10.0" type="curve" smooth="yes"/>
      <point x="399.000976562" y="700.0" type="line"/>
      <point x="72.0009765625" y="700.0" type="line" smooth="yes"/>
      <point x="63.4814453125" y="700.0"/>
      <point x="62.0009765625" y="701.404296875"/>
      <point x="62.0009765625" y="710.0" type="curve" smooth="yes"/>
      <point x="62.0009765625" y="1040.0" type="line" smooth="yes"/>
      <point x="62.0009765625" y="1048.52050781"/>
      <point x="63.4052734375" y="1050.0"/>
      <point x="72.0009765625" y="1050.0" type="curve" smooth="yes"/>
      <point x="1142.00097656" y="1050.0" type="line" smooth="yes"/>
      <point x="1149.00097656" y="1050.0"/>
      <point x="1150.55078125" y="1047.85253906"/>
      <point x="1145.00097656" y="1040.0" type="curve" smooth="yes"/>
      <point x="706.000976562" y="350.0" type="line"/>
      <point x="1082.00097656" y="350.0" type="line" smooth="yes"/>
      <point x="1089.00097656" y="350.0"/>
      <point x="1092.00097656" y="347.0"/>
      <point x="1092.00097656" y="340.0" type="curve" smooth="yes"/>
      <point x="1092.00097656" y="10.0" type="line" smooth="yes"/>
      <point x="1092.00097656" y="3.015625"/>
      <point x="1089.00097656" y="0.0"/>
      <point x="1082.00097656" y="0.0" type="curve" smooth="yes"/>
      <point x="-37.9990234375" y="0.0" type="line" smooth="yes"/>
      <point x="-44.9990234375" y="0.0"/>
      <point x="-46.8330078125" y="1.7587890625"/>
    </contour>
  </outline>
</glyph>
<glyph name="braceleft" format="2">
  <advance height="2048" width="775"/>
  <unicode hex="007B"/>
  <outline>
    <contour>
      <point x="155.0" y="1278.0" type="line" smooth="yes"/>
      <point x="155.0" y="1505.0"/>
      <point x="247.0" y="1598.0"/>
      <point x="665.0" y="1600.0" type="curve" smooth="yes"/>
      <point x="671.999919875" y="1600.03349244"/>
      <point x="675.0" y="1597.0"/>
      <point x="675.0" y="1590.0" type="curve" smooth="yes"/>
      <point x="675.0" y="1380.0" type="line" smooth="yes"/>
      <point x="675.0" y="1373.0"/>
      <point x="672.0" y="1370.0"/>
      <point x="664.0" y="1370.0" type="curve" smooth="yes"/>
      <point x="565.0" y="1366.0"/>
      <point x="530.0" y="1312.0"/>
      <point x="530.0" y="1138.0" type="curve" smooth="yes"/>
      <point x="530.0" y="956.0" type="line" smooth="yes"/>
      <point x="530.0" y="771.0"/>
      <point x="442.0" y="668.0"/>
      <point x="286.0" y="620.0" type="curve"/>
      <point x="442.0" y="572.0"/>
      <point x="530.0" y="469.0"/>
      <point x="530.0" y="284.0" type="curve" smooth="yes"/>
      <point x="530.0" y="112.0" type="line" smooth="yes"/>
      <point x="530.0" y="-61.0"/>
      <point x="565.0" y="-114.0"/>
      <point x="662.0" y="-120.0" type="curve" smooth="yes"/>
      <point x="672.0" y="-121.0"/>
      <point x="675.0" y="-123.0"/>
      <point x="675.0" y="-130.0" type="curve" smooth="yes"/>
      <point x="675.0" y="-350.0" type="line" smooth="yes"/>
      <point x="675.0" y="-357.0"/>
      <point x="671.999583979" y="-360.086534461"/>
      <point x="663.0" y="-360.0" type="curve" smooth="yes"/>
      <point x="247.0" y="-356.0"/>
      <point x="155.0" y="-265.0"/>
      <point x="155.0" y="-38.0" type="curve" smooth="yes"/>
      <point x="155.0" y="284.0" type="line" smooth="yes"/>
      <point x="155.0" y="417.0"/>
      <point x="119.0" y="471.0"/>
      <point x="22.0" y="502.0" type="curve" smooth="yes"/>
      <point x="13.0" y="505.0"/>
      <point x="10.0" y="509.0"/>
      <point x="10.0" y="516.0" type="curve" smooth="yes"/>
      <point x="10.0" y="724.0" type="line" smooth="yes"/>
      <point x="10.0" y="731.0"/>
      <point x="13.0" y="735.0"/>
      <point x="20.0" y="737.0" type="curve" smooth="yes"/>
      <point x="121.0" y="770.0"/>
      <point x="155.0" y="822.0"/>
      <point x="155.0" y="956.0" type="curve" smooth="yes"/>
    </contour>
  </outline>
</glyph>
<glyph name="bar" format="2">
  <advance height="1920" width="515"/>
  <unicode hex="007C"/>
  <outline>
    <contour>
      <point x="88.0" y="1600.0" type="curve" smooth="yes"/>
      <point x="428.0" y="1600.0" type="line" smooth="yes"/>
      <point x="435.0" y="1600.0"/>
      <point x="438.0" y="1597.0"/>
      <point x="438.0" y="1590.0" type="curve" smooth="yes"/>
      <point x="438.0" y="-350.0" type="line" smooth="yes"/>
      <point x="438.0" y="-357.0"/>
      <point x="435.0" y="-360.0"/>
      <point x="428.0" y="-360.0" type="curve" smooth="yes"/>
      <point x="88.0" y="-360.0" type="line" smooth="yes"/>
      <point x="81.0" y="-360.0"/>
      <point x="78.0" y="-357.0"/>
      <point x="78.0" y="-350.0" type="curve" smooth="yes"/>
      <point x="78.0" y="1590.0" type="line" smooth="yes"/>
      <point x="78.0" y="1597.0"/>
      <point x="81.0" y="1600.0"/>
    </contour>
  </outline>
</glyph>
<glyph name="braceright" format="2">
  <advance height="2048" width="775"/>
  <unicode hex="007D"/>
  <outline>
    <contour>
      <point x="620.0" y="-38.0" type="line" smooth="yes"/>
      <point x="620.0" y="-265.0"/>
      <point x="528.0" y="-358.0"/>
      <point x="110.0" y="-360.0" type="curve" smooth="yes"/>
      <point x="103.000080125" y="-360.03349244"/>
      <point x="100.0" y="-357.0"/>
      <point x="100.0" y="-350.0" type="curve" smooth="yes"/>
      <point x="100.0" y="-130.0" type="line" smooth="yes"/>
      <point x="100.0" y="-123.0"/>
      <point x="103.0" y="-120.0"/>
      <point x="111.0" y="-120.0" type="curve" smooth="yes"/>
      <point x="210.0" y="-116.0"/>
      <point x="245.0" y="-62.0"/>
      <point x="245.0" y="112.0" type="curve" smooth="yes"/>
      <point x="245.0" y="284.0" type="line" smooth="yes"/>
      <point x="245.0" y="469.0"/>
      <point x="323.0" y="572.0"/>
      <point x="479.0" y="620.0" type="curve"/>
      <point x="323.0" y="668.0"/>
      <point x="245.0" y="771.0"/>
      <point x="245.0" y="956.0" type="curve" smooth="yes"/>
      <point x="245.0" y="1128.0" type="line" smooth="yes"/>
      <point x="245.0" y="1301.0"/>
      <point x="210.0" y="1354.0"/>
      <point x="113.0" y="1360.0" type="curve" smooth="yes"/>
      <point x="103.0" y="1361.0"/>
      <point x="100.0" y="1363.0"/>
      <point x="100.0" y="1370.0" type="curve" smooth="yes"/>
      <point x="100.0" y="1590.0" type="line" smooth="yes"/>
      <point x="100.0" y="1597.0"/>
      <point x="103.000416021" y="1600.08653446"/>
      <point x="112.0" y="1600.0" type="curve" smooth="yes"/>
      <point x="528.0" y="1596.0"/>
      <point x="620.0" y="1505.0"/>
      <point x="620.0" y="1278.0" type="curve" smooth="yes"/>
      <point x="620.0" y="956.0" type="line" smooth="yes"/>
      <point x="620.0" y="823.0"/>
      <point x="656.0" y="769.0"/>
      <point x="753.0" y="738.0" type="curve" smooth="yes"/>
      <point x="762.0" y="735.0"/>
      <point x="765.0" y="731.0"/>
      <point x="765.0" y="724.0" type="curve" smooth="yes"/>
      <point x="765.0" y="516.0" type="line" smooth="yes"/>
      <point x="765.0" y="509.0"/>
      <point x="762.0" y="505.0"/>
      <point x="755.0" y="503.0" type="curve" smooth="yes"/>
      <point x="654.0" y="470.0"/>
      <point x="620.0" y="418.0"/>
      <point x="620.0" y="284.0" type="curve" smooth="yes"/>
    </contour>
  </outline>
</glyph>
<glyph name="asciitilde" format="2">
  <advance height="2048" width="1330"/>
  <unicode hex="007E"/>
  <outline>
    <contour>
      <point x="422.0" y="519.0" type="curve" smooth="yes"/>
      <point x="369.913085938" y="519.0"/>
      <point x="363.124023438" y="469.868164062"/>
      <point x="360.083984375" y="417.0" type="curve" smooth="yes"/>
      <point x="359.739257812" y="411.0078125"/>
      <point x="356.9140625" y="408.0"/>
      <point x="350.0" y="408.0" type="curve" smooth="yes"/>
      <point x="10.0" y="408.0" type="line" smooth="yes"/>
      <point x="2.9111328125" y="408.0"/>
      <point x="-0.03125" y="410.999023438"/>
      <point x="0.0888671875" y="417.0" type="curve" smooth="yes"/>
      <point x="4.2802734375" y="625.384765625"/>
      <point x="151.4453125" y="879.0"/>
      <point x="422.0" y="879.0" type="curve" smooth="yes"/>
      <point x="711.0" y="879.0"/>
      <point x="807.0" y="682.0"/>
      <point x="909.0" y="682.0" type="curve" smooth="yes"/>
      <point x="960.872070312" y="682.0"/>
      <point x="967.62890625" y="750.809570312"/>
      <point x="970.895507812" y="793.0" type="curve" smooth="yes"/>
      <point x="971.436523438" y="799.982421875"/>
      <point x="974.106445312" y="803.0"/>
      <point x="981.0" y="803.0" type="curve" smooth="yes"/>
      <point x="1320.0" y="803.0" type="line" smooth="yes"/>
      <point x="1327.109375" y="803.0"/>
      <point x="1330.04199219" y="800.001953125"/>
      <point x="1329.890625" y="793.0" type="curve" smooth="yes"/>
      <point x="1325.39453125" y="585.125"/>
      <point x="1179.28125" y="332.0"/>
      <point x="909.0" y="332.0" type="curve" smooth="yes"/>
      <point x="620.0" y="332.0"/>
      <point x="524.0" y="519.0"/>
    </contour>
  </outline>
</glyph>
<glyph name="exclamdown" format="2">
  <advance height="1920" width="740"/>
  <unicode hex="00A1"/>
  <outline>
    <contour>
      <point x="125.0" y="1050.0" type="curve" smooth="yes"/>
      <point x="615.0" y="1050.0" type="line" smooth="yes"/>
      <point x="622.0" y="1050.0"/>
      <point x="625.0" y="1047.0"/>
      <point x="625.0" y="1040.0" type="curve" smooth="yes"/>
      <point x="625.0" y="600.0" type="line" smooth="yes"/>
      <point x="625.0" y="593.0"/>
      <point x="622.0" y="590.0"/>
      <point x="615.0" y="590.0" type="curve" smooth="yes"/>
      <point x="125.0" y="590.0" type="line" smooth="yes"/>
      <point x="118.0" y="590.0"/>
      <point x="115.0" y="593.0"/>
      <point x="115.0" y="600.0" type="curve" smooth="yes"/>
      <point x="115.0" y="1040.0" type="line" smooth="yes"/>
      <point x="115.0" y="1047.0"/>
      <point x="118.0" y="1050.0"/>
    </contour>
    <contour>
      <point x="675.0" y="0.0" type="curve" smooth="yes"/>
      <point x="675.0" y="-390.0" type="line" smooth="yes"/>
      <point x="675.0" y="-397.0"/>
      <point x="672.0" y="-400.0"/>
      <point x="665.0" y="-400.0" type="curve" smooth="yes"/>
      <point x="75.0" y="-400.0" type="line" smooth="yes"/>
      <point x="68.0" y="-400.0"/>
      <point x="65.0" y="-397.0"/>
      <point x="65.0" y="-390.0" type="curve" smooth="yes"/>
      <point x="65.0" y="0.0" type="line" smooth="yes"/>
      <point x="65.0" y="7.0"/>
      <point x="65.1826171875" y="13.0966796875"/>
      <point x="66.0" y="20.0" type="curve" smooth="yes"/>
      <point x="264.0" y="510.0" type="line" smooth="yes"/>
      <point x="264.817382812" y="516.903320312"/>
      <point x="268.0" y="520.0"/>
      <point x="275.0" y="520.0" type="curve" smooth="yes"/>
      <point x="465.0" y="520.0" type="line" smooth="yes"/>
      <point x="472.0" y="520.0"/>
      <point x="475.182617188" y="516.903320312"/>
      <point x="476.0" y="510.0" type="curve" smooth="yes"/>
      <point x="674.0" y="20.0" type="line" smooth="yes"/>
      <point x="674.817382812" y="13.0966796875"/>
      <point x="675.0" y="7.0"/>
    </contour>
  </outline>
</glyph>
<glyph name="cent" format="2">
  <advance height="1920" width="1130"/>
  <unicode hex="00A2"/>
  <outline>
    <contour>
      <point x="630.392578125" y="1240.0" type="curve" smooth="yes"/>
      <point x="690.392578125" y="1240.0" type="line" smooth="yes"/>
      <point x="697.392578125" y="1240.0"/>
      <point x="700.392578125" y="1237.0"/>
      <point x="700.392578125" y="1230.0" type="curve" smooth="yes"/>
      <point x="700.392578125" y="-180.0" type="line" smooth="yes"/>
      <point x="700.392578125" y="-187.0"/>
      <point x="697.392578125" y="-190.0"/>
      <point x="690.392578125" y="-190.0" type="curve" smooth="yes"/>
      <point x="630.392578125" y="-190.0" type="line" smooth="yes"/>
      <point x="623.392578125" y="-190.0"/>
      <point x="620.392578125" y="-187.0"/>
      <point x="620.392578125" y="-180.0" type="curve" smooth="yes"/>
      <point x="620.392578125" y="1230.0" type="line" smooth="yes"/>
      <point x="620.392578125" y="1237.0"/>
      <point x="623.392578125" y="1240.0"/>
    </contour>
    <component base="c"/>
  </outline>
</glyph>
<glyph name="sterling" format="2">
  <advance height="1920" width="1420"/>
  <unicode hex="00A3"/>
  <outline>
    <contour>
      <point x="40.0" y="545.0" type="curve" smooth="yes"/>
      <point x="40.0" y="840.0" type="line" smooth="yes"/>
      <point x="40.0" y="847.0"/>
      <point x="43.0" y="850.0"/>
      <point x="50.0" y="850.0" type="curve" smooth="yes"/>
      <point x="1040.0" y="850.0" type="line" smooth="yes"/>
      <point x="1047.0" y="850.0"/>
      <point x="1050.0" y="847.0"/>
      <point x="1050.0" y="840.0" type="curve" smooth="yes"/>
      <point x="1050.0" y="545.0" type="line" smooth="yes"/>
      <point x="1050.0" y="538.0"/>
      <point x="1047.0" y="535.0"/>
      <point x="1040.0" y="535.0" type="curve" smooth="yes"/>
      <point x="50.0" y="535.0" type="line" smooth="yes"/>
      <point x="43.0" y="535.0"/>
      <point x="40.0" y="538.0"/>
    </contour>
    <contour>
      <point x="74.0" y="354.0" type="curve" smooth="yes"/>
      <point x="190.069335938" y="410.069335938"/>
      <point x="318.0" y="465.0"/>
      <point x="318.0" y="614.35546875" type="curve" smooth="yes"/>
      <point x="318.0" y="792.5078125"/>
      <point x="130.0" y="794.966796875"/>
      <point x="130.0" y="1043.0" type="curve" smooth="yes"/>
      <point x="130.0" y="1273.0"/>
      <point x="378.0" y="1435.0"/>
      <point x="715.0" y="1435.0" type="curve" smooth="yes"/>
      <point x="1059.171875" y="1435.0"/>
      <point x="1306.63476562" y="1266.05566406"/>
      <point x="1319.68945312" y="971.0" type="curve" smooth="yes"/>
      <point x="1320.04394531" y="963.0"/>
      <point x="1317.04394531" y="963.0"/>
      <point x="1310.0" y="963.0" type="curve" smooth="yes"/>
      <point x="860.0" y="963.0" type="line" smooth="yes"/>
      <point x="853.072265625" y="963.0"/>
      <point x="850.272460938" y="963.006835938"/>
      <point x="849.927734375" y="971.0" type="curve" smooth="yes"/>
      <point x="846.21484375" y="1057.09472656"/>
      <point x="809.612304688" y="1095.0"/>
      <point x="735.0" y="1095.0" type="curve" smooth="yes"/>
      <point x="658.0" y="1095.0"/>
      <point x="610.0" y="1063.0"/>
      <point x="610.0" y="993.0" type="curve" smooth="yes"/>
      <point x="610.0" y="871.723632812"/>
      <point x="778.0" y="850.0"/>
      <point x="778.0" y="644.35546875" type="curve" smooth="yes"/>
      <point x="778.0" y="472.653320312"/>
      <point x="647.922851562" y="411.385742188"/>
      <point x="528.950195312" y="355.0" type="curve"/>
      <point x="1320.0" y="355.0" type="line" smooth="yes"/>
      <point x="1327.0" y="355.0"/>
      <point x="1330.0" y="352.0"/>
      <point x="1330.0" y="345.0" type="curve" smooth="yes"/>
      <point x="1330.0" y="10.0" type="line" smooth="yes"/>
      <point x="1330.0" y="3.0"/>
      <point x="1327.0" y="0.0"/>
      <point x="1320.0" y="0.0" type="curve" smooth="yes"/>
      <point x="80.0" y="0.0" type="line" smooth="yes"/>
      <point x="73.0" y="0.0"/>
      <point x="70.0" y="3.0"/>
      <point x="70.0" y="10.0" type="curve" smooth="yes"/>
      <point x="70.0" y="345.0" type="line" smooth="yes"/>
      <point x="70.0" y="349.28125"/>
      <point x="68.90625" y="351.5390625"/>
    </contour>
  </outline>
</glyph>
<glyph name="currency" format="2">
  <advance width="1112"/>
  <unicode hex="00A4"/>
  <outline>
    <contour>
      <point x="888.354492188" y="1274.2421875" type="curve" smooth="yes"/>
      <point x="1116.7421875" y="1045.85449219" type="line" smooth="yes"/>
      <point x="1121.69238281" y="1040.90429688"/>
      <point x="1121.69238281" y="1036.66210938"/>
      <point x="1116.7421875" y="1031.71191406" type="curve" smooth="yes"/>
      <point x="954.108398438" y="869.077148438" type="line" smooth="yes"/>
      <point x="949.158203125" y="864.127929688"/>
      <point x="944.916015625" y="864.127929688"/>
      <point x="939.965820312" y="869.077148438" type="curve" smooth="yes"/>
      <point x="711.577148438" y="1097.46582031" type="line" smooth="yes"/>
      <point x="706.627929688" y="1102.41601562"/>
      <point x="706.627929688" y="1106.65820312"/>
      <point x="711.577148438" y="1111.60839844" type="curve" smooth="yes"/>
      <point x="874.211914062" y="1274.2421875" type="line" smooth="yes"/>
      <point x="879.162109375" y="1279.19238281"/>
      <point x="883.404296875" y="1279.19238281"/>
    </contour>
    <contour>
      <point x="160.034179688" y="545.922851562" type="curve" smooth="yes"/>
      <point x="388.422851562" y="317.534179688" type="line" smooth="yes"/>
      <point x="393.372070312" y="312.583984375"/>
      <point x="393.372070312" y="308.341796875"/>
      <point x="388.422851562" y="303.391601562" type="curve" smooth="yes"/>
      <point x="225.788085938" y="140.7578125" type="line" smooth="yes"/>
      <point x="220.837890625" y="135.807617188"/>
      <point x="216.595703125" y="135.807617188"/>
      <point x="211.645507812" y="140.7578125" type="curve" smooth="yes"/>
      <point x="-16.7421875" y="369.145507812" type="line" smooth="yes"/>
      <point x="-21.6923828125" y="374.095703125"/>
      <point x="-21.6923828125" y="378.337890625"/>
      <point x="-16.7421875" y="383.288085938" type="curve" smooth="yes"/>
      <point x="145.891601562" y="545.922851562" type="line" smooth="yes"/>
      <point x="150.841796875" y="550.872070312"/>
      <point x="155.083984375" y="550.872070312"/>
    </contour>
    <contour>
      <point x="-16.7421875" y="1045.85449219" type="curve" smooth="yes"/>
      <point x="211.645507812" y="1274.2421875" type="line" smooth="yes"/>
      <point x="216.595703125" y="1279.19238281"/>
      <point x="220.837890625" y="1279.19238281"/>
      <point x="225.788085938" y="1274.2421875" type="curve" smooth="yes"/>
      <point x="388.422851562" y="1111.60839844" type="line" smooth="yes"/>
      <point x="393.372070312" y="1106.65820312"/>
      <point x="393.372070312" y="1102.41601562"/>
      <point x="388.422851562" y="1097.46582031" type="curve" smooth="yes"/>
      <point x="160.034179688" y="869.077148438" type="line" smooth="yes"/>
      <point x="155.083984375" y="864.127929688"/>
      <point x="150.841796875" y="864.127929688"/>
      <point x="145.891601562" y="869.077148438" type="curve" smooth="yes"/>
      <point x="-16.7421875" y="1031.71191406" type="line" smooth="yes"/>
      <point x="-21.6923828125" y="1036.66210938"/>
      <point x="-21.6923828125" y="1040.90429688"/>
    </contour>
    <contour>
      <point x="711.577148438" y="317.534179688" type="curve" smooth="yes"/>
      <point x="869.965820312" y="475.922851562" type="line" smooth="yes"/>
      <point x="874.916015625" y="480.872070312"/>
      <point x="949.158203125" y="550.872070312"/>
      <point x="954.108398438" y="545.922851562" type="curve" smooth="yes"/>
      <point x="1116.7421875" y="383.288085938" type="line" smooth="yes"/>
      <point x="1121.69238281" y="378.337890625"/>
      <point x="1121.69238281" y="374.095703125"/>
      <point x="1116.7421875" y="369.145507812" type="curve" smooth="yes"/>
      <point x="888.354492188" y="140.7578125" type="line" smooth="yes"/>
      <point x="883.404296875" y="135.807617188"/>
      <point x="879.162109375" y="135.807617188"/>
      <point x="874.211914062" y="140.7578125" type="curve" smooth="yes"/>
      <point x="711.577148438" y="303.391601562" type="line" smooth="yes"/>
      <point x="706.627929688" y="308.341796875"/>
      <point x="706.627929688" y="312.583984375"/>
    </contour>
    <contour>
      <point x="63.0" y="710.0" type="curve" smooth="yes"/>
      <point x="63.0" y="979.0"/>
      <point x="284.0" y="1200.0"/>
      <point x="553.0" y="1200.0" type="curve" smooth="yes"/>
      <point x="822.0" y="1200.0"/>
      <point x="1043.0" y="979.0"/>
      <point x="1043.0" y="710.0" type="curve" smooth="yes"/>
      <point x="1043.0" y="441.0"/>
      <point x="822.0" y="220.0"/>
      <point x="553.0" y="220.0" type="curve" smooth="yes"/>
      <point x="284.0" y="220.0"/>
      <point x="63.0" y="441.0"/>
    </contour>
    <contour>
      <point x="423.0" y="710.0" type="curve" smooth="yes"/>
      <point x="423.0" y="621.0"/>
      <point x="464.0" y="570.0"/>
      <point x="553.0" y="570.0" type="curve" smooth="yes"/>
      <point x="642.0" y="570.0"/>
      <point x="683.0" y="621.0"/>
      <point x="683.0" y="710.0" type="curve" smooth="yes"/>
      <point x="683.0" y="799.0"/>
      <point x="642.0" y="850.0"/>
      <point x="553.0" y="850.0" type="curve" smooth="yes"/>
      <point x="464.0" y="850.0"/>
      <point x="423.0" y="799.0"/>
    </contour>
  </outline>
</glyph>
<glyph name="yen" format="2">
  <advance height="1920" width="1490"/>
  <unicode hex="00A5"/>
  <outline>
    <contour>
      <point x="145.0390625" y="285.0" type="curve" smooth="yes"/>
      <point x="145.0390625" y="390.0" type="line" smooth="yes"/>
      <point x="145.0390625" y="397.0"/>
      <point x="148.0390625" y="400.0"/>
      <point x="155.0390625" y="400.0" type="curve" smooth="yes"/>
      <point x="1325.0390625" y="400.0" type="line" smooth="yes"/>
      <point x="1332.0390625" y="400.0"/>
      <point x="1335.0390625" y="397.0"/>
      <point x="1335.0390625" y="390.0" type="curve" smooth="yes"/>
      <point x="1335.0390625" y="285.0" type="line" smooth="yes"/>
      <point x="1335.0390625" y="278.0"/>
      <point x="1332.0390625" y="275.0"/>
      <point x="1325.0390625" y="275.0" type="curve" smooth="yes"/>
      <point x="155.0390625" y="275.0" type="line" smooth="yes"/>
      <point x="148.0390625" y="275.0"/>
      <point x="145.0390625" y="278.0"/>
    </contour>
    <contour>
      <point x="145.0390625" y="555.0" type="curve" smooth="yes"/>
      <point x="145.0390625" y="660.0" type="line" smooth="yes"/>
      <point x="145.0390625" y="667.0"/>
      <point x="148.0390625" y="670.0"/>
      <point x="155.0390625" y="670.0" type="curve" smooth="yes"/>
      <point x="1325.0390625" y="670.0" type="line" smooth="yes"/>
      <point x="1332.0390625" y="670.0"/>
      <point x="1335.0390625" y="667.0"/>
      <point x="1335.0390625" y="660.0" type="curve" smooth="yes"/>
      <point x="1335.0390625" y="555.0" type="line" smooth="yes"/>
      <point x="1335.0390625" y="548.0"/>
      <point x="1332.0390625" y="545.0"/>
      <point x="1325.0390625" y="545.0" type="curve" smooth="yes"/>
      <point x="155.0390625" y="545.0" type="line" smooth="yes"/>
      <point x="148.0390625" y="545.0"/>
      <point x="145.0390625" y="548.0"/>
    </contour>
    <component base="Y"/>
  </outline>
</glyph>
<glyph name="section" format="2">
  <advance height="1920" width="1186"/>
  <unicode hex="00A7"/>
  <outline>
    <contour>
      <point x="533.0" y="850.0" type="line"/>
      <point x="458.0" y="850.0"/>
      <point x="395.0" y="786.0"/>
      <point x="395.0" y="668.0" type="curve" smooth="yes"/>
      <point x="395.0" y="531.0"/>
      <point x="458.229492188" y="474.002929688"/>
      <point x="640.0" y="371.0" type="curve" smooth="yes"/>
      <point x="880.0" y="235.0"/>
      <point x="1025.0" y="187.0"/>
      <point x="1025.0" y="-43.0" type="curve" smooth="yes"/>
      <point x="1025.0" y="-265.0"/>
      <point x="850.0" y="-400.0"/>
      <point x="573.0" y="-400.0" type="curve" smooth="yes"/>
      <point x="319.0" y="-400.0"/>
      <point x="174.0" y="-267.0"/>
      <point x="160.0" y="-57.0" type="curve" smooth="yes"/>
      <point x="160.0" y="-51.0"/>
      <point x="163.0" y="-48.0"/>
      <point x="170.0" y="-48.0" type="curve" smooth="yes"/>
      <point x="409.0" y="-48.0" type="line" smooth="yes"/>
      <point x="416.0" y="-48.0"/>
      <point x="418.61328125" y="-51.06640625"/>
      <point x="420.0" y="-58.0" type="curve" smooth="yes"/>
      <point x="434.0" y="-128.0"/>
      <point x="458.0" y="-165.0"/>
      <point x="521.0" y="-165.0" type="curve" smooth="yes"/>
      <point x="569.0" y="-165.0"/>
      <point x="605.0" y="-140.0"/>
      <point x="605.0" y="-100.0" type="curve" smooth="yes"/>
      <point x="605.0" y="-62.0"/>
      <point x="555.0" y="-39.0"/>
      <point x="440.0" y="12.0" type="curve" smooth="yes"/>
      <point x="144.400390625" y="143.091796875"/>
      <point x="25.0" y="306.0"/>
      <point x="25.0" y="563.0" type="curve" smooth="yes"/>
      <point x="25.0" y="835.0"/>
      <point x="280.0" y="930.0"/>
      <point x="544.0" y="930.0" type="curve"/>
    </contour>
    <contour>
      <point x="653.0" y="185.0" type="line"/>
      <point x="728.0" y="185.0"/>
      <point x="791.0" y="249.0"/>
      <point x="791.0" y="367.0" type="curve" smooth="yes"/>
      <point x="791.0" y="504.0"/>
      <point x="727.770507812" y="560.997070312"/>
      <point x="546.0" y="664.0" type="curve" smooth="yes"/>
      <point x="306.0" y="800.0"/>
      <point x="161.0" y="848.0"/>
      <point x="161.0" y="1078.0" type="curve" smooth="yes"/>
      <point x="161.0" y="1300.0"/>
      <point x="336.0" y="1435.0"/>
      <point x="613.0" y="1435.0" type="curve" smooth="yes"/>
      <point x="867.0" y="1435.0"/>
      <point x="1012.0" y="1302.0"/>
      <point x="1026.0" y="1092.0" type="curve" smooth="yes"/>
      <point x="1026.0" y="1086.0"/>
      <point x="1023.0" y="1083.0"/>
      <point x="1016.0" y="1083.0" type="curve" smooth="yes"/>
      <point x="777.0" y="1083.0" type="line" smooth="yes"/>
      <point x="770.0" y="1083.0"/>
      <point x="767.38671875" y="1086.06640625"/>
      <point x="766.0" y="1093.0" type="curve" smooth="yes"/>
      <point x="752.0" y="1163.0"/>
      <point x="728.0" y="1200.0"/>
      <point x="665.0" y="1200.0" type="curve" smooth="yes"/>
      <point x="617.0" y="1200.0"/>
      <point x="581.0" y="1175.0"/>
      <point x="581.0" y="1135.0" type="curve" smooth="yes"/>
      <point x="581.0" y="1097.0"/>
      <point x="631.0" y="1074.0"/>
      <point x="746.0" y="1023.0" type="curve" smooth="yes"/>
      <point x="1041.59960938" y="891.908203125"/>
      <point x="1161.0" y="729.0"/>
      <point x="1161.0" y="472.0" type="curve" smooth="yes"/>
      <point x="1161.0" y="200.0"/>
      <point x="906.0" y="105.0"/>
      <point x="642.0" y="105.0" type="curve"/>
    </contour>
  </outline>
</glyph>
<glyph name="copyright" format="2">
  <advance width="1484"/>
  <unicode hex="00A9"/>
  <outline>
    <contour>
      <point x="1156.0" y="609.0" type="curve" smooth="yes"/>
      <point x="1143.0" y="410.0"/>
      <point x="1031.0" y="229.0"/>
      <point x="751.0" y="229.0" type="curve" smooth="yes"/>
      <point x="459.0" y="229.0"/>
      <point x="334.0" y="393.0"/>
      <point x="334.0" y="621.0" type="curve" smooth="yes"/>
      <point x="334.0" y="720.0" type="line" smooth="yes"/>
      <point x="334.0" y="948.0"/>
      <point x="459.0" y="1111.0"/>
      <point x="751.0" y="1111.0" type="curve" smooth="yes"/>
      <point x="1031.0" y="1111.0"/>
      <point x="1133.0" y="937.0"/>
      <point x="1138.0" y="774.0" type="curve" smooth="yes"/>
      <point x="1138.0" y="769.0"/>
      <point x="1136.0" y="768.0"/>
      <point x="1132.0" y="768.0" type="curve" smooth="yes"/>
      <point x="923.0" y="768.0" type="line" smooth="yes"/>
      <point x="919.0" y="768.0"/>
      <point x="916.0" y="769.0"/>
      <point x="916.0" y="774.0" type="curve" smooth="yes"/>
      <point x="915.0" y="849.0"/>
      <point x="869.0" y="907.0"/>
      <point x="781.0" y="907.0" type="curve" smooth="yes"/>
      <point x="693.0" y="907.0"/>
      <point x="634.0" y="852.0"/>
      <point x="634.0" y="726.0" type="curve" smooth="yes"/>
      <point x="634.0" y="615.0" type="line" smooth="yes"/>
      <point x="634.0" y="483.0"/>
      <point x="687.0" y="433.0"/>
      <point x="787.0" y="433.0" type="curve" smooth="yes"/>
      <point x="887.0" y="433.0"/>
      <point x="936.0" y="499.0"/>
      <point x="934.0" y="609.0" type="curve" smooth="yes"/>
      <point x="934.0" y="614.0"/>
      <point x="936.0" y="615.0"/>
      <point x="940.0" y="615.0" type="curve" smooth="yes"/>
      <point x="1150.0" y="615.0" type="line" smooth="yes"/>
      <point x="1154.0" y="615.0"/>
      <point x="1156.0" y="614.0"/>
    </contour>
    <contour>
      <point x="1439.0" y="668.0" type="curve" smooth="yes"/>
      <point x="1439.0" y="284.0"/>
      <point x="1125.0" y="-28.0"/>
      <point x="741.0" y="-28.0" type="curve" smooth="yes"/>
      <point x="357.0" y="-28.0"/>
      <point x="45.0" y="284.0"/>
      <point x="45.0" y="668.0" type="curve" smooth="yes"/>
      <point x="45.0" y="1052.0"/>
      <point x="357.0" y="1366.0"/>
      <point x="741.0" y="1366.0" type="curve" smooth="yes"/>
      <point x="1125.0" y="1366.0"/>
      <point x="1439.0" y="1052.0"/>
    </contour>
    <contour>
      <point x="1353.0" y="668.0" type="curve" smooth="yes"/>
      <point x="1353.0" y="1006.0"/>
      <point x="1079.0" y="1280.0"/>
      <point x="741.0" y="1280.0" type="curve" smooth="yes"/>
      <point x="403.0" y="1280.0"/>
      <point x="131.0" y="1006.0"/>
      <point x="131.0" y="668.0" type="curve" smooth="yes"/>
      <point x="131.0" y="330.0"/>
      <point x="403.0" y="58.0"/>
      <point x="741.0" y="58.0" type="curve" smooth="yes"/>
      <point x="1079.0" y="58.0"/>
      <point x="1353.0" y="330.0"/>
    </contour>
  </outline>
</glyph>
<glyph name="ordfeminine" format="2">
  <advance height="1920" width="948"/>
  <unicode hex="00AA"/>
  <outline>
    <contour>
      <point x="389.0" y="892.0" type="curve" smooth="yes"/>
      <point x="389.0" y="854.0"/>
      <point x="408.0" y="821.0"/>
      <point x="457.0" y="821.0" type="curve" smooth="yes"/>
      <point x="507.0" y="821.0"/>
      <point x="530.0" y="865.0"/>
      <point x="530.0" y="933.0" type="curve"/>
      <point x="608.0" y="827.0" type="line"/>
      <point x="608.0" y="705.0"/>
      <point x="486.0" y="609.0"/>
      <point x="317.0" y="609.0" type="curve" smooth="yes"/>
      <point x="143.0" y="609.0"/>
      <point x="25.0" y="693.0"/>
      <point x="25.0" y="852.0" type="curve" smooth="yes"/>
      <point x="25.0" y="1047.0"/>
      <point x="197.0" y="1115.0"/>
      <point x="401.0" y="1139.0" type="curve" smooth="yes"/>
      <point x="511.0" y="1152.0"/>
      <point x="530.0" y="1175.0"/>
      <point x="530.0" y="1201.0" type="curve"/>
      <point x="554.0" y="1023.0" type="line"/>
      <point x="554.0" y="985.0"/>
      <point x="502.717773438" y="973.237304688"/>
      <point x="465.0" y="964.0" type="curve" smooth="yes"/>
      <point x="416.0" y="952.0"/>
      <point x="389.0" y="930.0"/>
    </contour>
    <contour>
      <point x="530.0" y="769.0" type="curve" smooth="yes"/>
      <point x="530.0" y="1221.0" type="line" smooth="yes"/>
      <point x="530.0" y="1245.0"/>
      <point x="508.0" y="1271.0"/>
      <point x="469.0" y="1271.0" type="curve" smooth="yes"/>
      <point x="428.0" y="1271.0"/>
      <point x="410.0" y="1253.0"/>
      <point x="408.0" y="1222.0" type="curve" smooth="yes"/>
      <point x="407.7421875" y="1218.0078125"/>
      <point x="406.0" y="1217.0"/>
      <point x="402.0" y="1217.0" type="curve" smooth="yes"/>
      <point x="102.0" y="1217.0" type="line" smooth="yes"/>
      <point x="98.0" y="1217.0"/>
      <point x="95.0" y="1218.0"/>
      <point x="96.0" y="1222.0" type="curve" smooth="yes"/>
      <point x="116.0" y="1362.0"/>
      <point x="253.0" y="1489.0"/>
      <point x="510.0" y="1489.0" type="curve" smooth="yes"/>
      <point x="796.0" y="1489.0"/>
      <point x="888.0" y="1375.0"/>
      <point x="888.0" y="1214.0" type="curve" smooth="yes"/>
      <point x="888.0" y="769.0" type="line" smooth="yes"/>
      <point x="888.0" y="712.0"/>
      <point x="900.0" y="673.0"/>
      <point x="922.0" y="648.0" type="curve" smooth="yes"/>
      <point x="925.0" y="645.0"/>
      <point x="924.0" y="644.0"/>
      <point x="920.0" y="644.0" type="curve" smooth="yes"/>
      <point x="590.0" y="644.0" type="line" smooth="yes"/>
      <point x="586.0" y="644.0"/>
      <point x="583.0" y="646.0"/>
      <point x="581.0" y="648.0" type="curve" smooth="yes"/>
      <point x="559.0" y="674.0"/>
      <point x="530.0" y="712.0"/>
    </contour>
  </outline>
</glyph>
<glyph name="logicalnot" format="2">
  <advance height="2048" width="1150"/>
  <unicode hex="00AC"/>
  <outline>
    <contour>
      <point x="80.0" y="505.0" type="curve" smooth="yes"/>
      <point x="80.0" y="840.0" type="line" smooth="yes"/>
      <point x="80.0" y="847.0"/>
      <point x="83.0" y="850.0"/>
      <point x="90.0" y="850.0" type="curve" smooth="yes"/>
      <point x="1070.0" y="850.0" type="line" smooth="yes"/>
      <point x="1077.0" y="850.0"/>
      <point x="1080.0" y="847.0"/>
      <point x="1080.0" y="840.0" type="curve" smooth="yes"/>
      <point x="1080.0" y="325.0" type="line" smooth="yes"/>
      <point x="1080.0" y="318.0"/>
      <point x="1077.0" y="315.0"/>
      <point x="1070.0" y="315.0" type="curve" smooth="yes"/>
      <point x="700.0" y="315.0" type="line" smooth="yes"/>
      <point x="693.0" y="315.0"/>
      <point x="690.0" y="318.0"/>
      <point x="690.0" y="325.0" type="curve" smooth="yes"/>
      <point x="690.0" y="495.0" type="line"/>
      <point x="90.0" y="495.0" type="line" smooth="yes"/>
      <point x="83.0" y="495.0"/>
      <point x="80.0" y="498.0"/>
    </contour>
  </outline>
</glyph>
<glyph name="registered" format="2">
  <advance width="1484"/>
  <unicode hex="00AE"/>
  <outline>
    <contour>
      <point x="662.0" y="890.0" type="line"/>
      <point x="662.0" y="704.0" type="line"/>
      <point x="722.0" y="704.0" type="line" smooth="yes"/>
      <point x="798.0" y="704.0"/>
      <point x="815.0" y="742.0"/>
      <point x="815.0" y="796.0" type="curve" smooth="yes"/>
      <point x="815.0" y="798.0" type="line" smooth="yes"/>
      <point x="815.0" y="846.0"/>
      <point x="798.0" y="890.0"/>
      <point x="722.0" y="890.0" type="curve" smooth="yes"/>
    </contour>
    <contour>
      <point x="782.0" y="1100.0" type="line" smooth="yes"/>
      <point x="1026.0" y="1100.0"/>
      <point x="1115.0" y="987.0"/>
      <point x="1115.0" y="849.0" type="curve" smooth="yes"/>
      <point x="1115.0" y="835.0" type="line" smooth="yes"/>
      <point x="1115.0" y="691.0"/>
      <point x="978.0" y="608.0"/>
      <point x="782.0" y="608.0" type="curve"/>
      <point x="782.0" y="644.0" type="line"/>
      <point x="996.0" y="644.0"/>
      <point x="1121.0" y="627.0"/>
      <point x="1121.0" y="483.0" type="curve" smooth="yes"/>
      <point x="1121.0" y="457.0" type="line" smooth="yes"/>
      <point x="1121.0" y="389.0"/>
      <point x="1139.0" y="338.0"/>
      <point x="1167.0" y="297.0" type="curve" smooth="yes"/>
      <point x="1172.0" y="290.0"/>
      <point x="1172.0" y="288.0"/>
      <point x="1172.0" y="284.0" type="curve" smooth="yes"/>
      <point x="1172.0" y="266.0" type="line" smooth="yes"/>
      <point x="1172.0" y="262.0"/>
      <point x="1170.0" y="260.0"/>
      <point x="1166.0" y="260.0" type="curve" smooth="yes"/>
      <point x="866.0" y="260.0" type="line" smooth="yes"/>
      <point x="862.0" y="260.0"/>
      <point x="860.0" y="260.0"/>
      <point x="857.0" y="265.0" type="curve" smooth="yes"/>
      <point x="824.0" y="324.0"/>
      <point x="815.0" y="405.0"/>
      <point x="815.0" y="457.0" type="curve" smooth="yes"/>
      <point x="815.0" y="483.0" type="line" smooth="yes"/>
      <point x="815.0" y="531.0"/>
      <point x="798.0" y="554.0"/>
      <point x="734.0" y="554.0" type="curve" smooth="yes"/>
      <point x="662.0" y="554.0" type="line"/>
      <point x="662.0" y="266.0" type="line" smooth="yes"/>
      <point x="662.0" y="262.0"/>
      <point x="660.0" y="260.0"/>
      <point x="656.0" y="260.0" type="curve" smooth="yes"/>
      <point x="374.0" y="260.0" type="line" smooth="yes"/>
      <point x="370.0" y="260.0"/>
      <point x="368.0" y="262.0"/>
      <point x="368.0" y="266.0" type="curve" smooth="yes"/>
      <point x="368.0" y="1094.0" type="line" smooth="yes"/>
      <point x="368.0" y="1098.0"/>
      <point x="370.0" y="1100.0"/>
      <point x="374.0" y="1100.0" type="curve" smooth="yes"/>
    </contour>
    <contour>
      <point x="1439.0" y="668.0" type="curve" smooth="yes"/>
      <point x="1439.0" y="284.0"/>
      <point x="1125.0" y="-28.0"/>
      <point x="741.0" y="-28.0" type="curve" smooth="yes"/>
      <point x="357.0" y="-28.0"/>
      <point x="45.0" y="284.0"/>
      <point x="45.0" y="668.0" type="curve" smooth="yes"/>
      <point x="45.0" y="1052.0"/>
      <point x="357.0" y="1366.0"/>
      <point x="741.0" y="1366.0" type="curve" smooth="yes"/>
      <point x="1125.0" y="1366.0"/>
      <point x="1439.0" y="1052.0"/>
    </contour>
    <contour>
      <point x="1353.0" y="668.0" type="curve" smooth="yes"/>
      <point x="1353.0" y="1006.0"/>
      <point x="1079.0" y="1280.0"/>
      <point x="741.0" y="1280.0" type="curve" smooth="yes"/>
      <point x="403.0" y="1280.0"/>
      <point x="131.0" y="1006.0"/>
      <point x="131.0" y="668.0" type="curve" smooth="yes"/>
      <point x="131.0" y="330.0"/>
      <point x="403.0" y="58.0"/>
      <point x="741.0" y="58.0" type="curve" smooth="yes"/>
      <point x="1079.0" y="58.0"/>
      <point x="1353.0" y="330.0"/>
    </contour>
  </outline>
</glyph>
<glyph name="degree" format="2">
  <advance height="2048" width="980"/>
  <unicode hex="00B0"/>
  <outline>
    <contour>
      <point x="50.0" y="983.0" type="curve" smooth="yes"/>
      <point x="50.0" y="1018.0" type="line" smooth="yes"/>
      <point x="50.0" y="1278.0"/>
      <point x="238.0" y="1435.0"/>
      <point x="485.0" y="1435.0" type="curve" smooth="yes"/>
      <point x="732.0" y="1435.0"/>
      <point x="930.0" y="1278.0"/>
      <point x="930.0" y="1018.0" type="curve" smooth="yes"/>
      <point x="930.0" y="983.0" type="line" smooth="yes"/>
      <point x="930.0" y="723.0"/>
      <point x="732.0" y="565.0"/>
      <point x="485.0" y="565.0" type="curve" smooth="yes"/>
      <point x="238.0" y="565.0"/>
      <point x="50.0" y="723.0"/>
    </contour>
    <contour>
      <point x="405.0" y="983.0" type="line" smooth="yes"/>
      <point x="405.0" y="913.0"/>
      <point x="443.0" y="885.0"/>
      <point x="490.0" y="885.0" type="curve" smooth="yes"/>
      <point x="537.0" y="885.0"/>
      <point x="575.0" y="913.0"/>
      <point x="575.0" y="983.0" type="curve" smooth="yes"/>
      <point x="575.0" y="1018.0" type="line" smooth="yes"/>
      <point x="575.0" y="1088.0"/>
      <point x="537.0" y="1115.0"/>
      <point x="490.0" y="1115.0" type="curve" smooth="yes"/>
      <point x="443.0" y="1115.0"/>
      <point x="405.0" y="1088.0"/>
      <point x="405.0" y="1018.0" type="curve" smooth="yes"/>
    </contour>
  </outline>
</glyph>
<glyph name="plusminus" format="2">
  <advance width="1168"/>
  <unicode hex="00B1"/>
  <outline>
    <contour>
      <point x="105.0" y="110.0" type="curve" smooth="yes"/>
      <point x="105.0" y="445.0" type="line" smooth="yes"/>
      <point x="105.0" y="452.0"/>
      <point x="108.0" y="455.0"/>
      <point x="115.0" y="455.0" type="curve" smooth="yes"/>
      <point x="1045.0" y="455.0" type="line" smooth="yes"/>
      <point x="1052.0" y="455.0"/>
      <point x="1055.0" y="452.0"/>
      <point x="1055.0" y="445.0" type="curve" smooth="yes"/>
      <point x="1055.0" y="110.0" type="line" smooth="yes"/>
      <point x="1055.0" y="103.0"/>
      <point x="1052.0" y="100.0"/>
      <point x="1045.0" y="100.0" type="curve" smooth="yes"/>
      <point x="115.0" y="100.0" type="line" smooth="yes"/>
      <point x="108.0" y="100.0"/>
      <point x="105.0" y="103.0"/>
    </contour>
    <contour>
      <point x="105.0" y="875.0" type="curve" smooth="yes"/>
      <point x="105.0" y="1210.0" type="line" smooth="yes"/>
      <point x="105.0" y="1217.0"/>
      <point x="108.0" y="1220.0"/>
      <point x="115.0" y="1220.0" type="curve" smooth="yes"/>
      <point x="1045.0" y="1220.0" type="line" smooth="yes"/>
      <point x="1052.0" y="1220.0"/>
      <point x="1055.0" y="1217.0"/>
      <point x="1055.0" y="1210.0" type="curve" smooth="yes"/>
      <point x="1055.0" y="875.0" type="line" smooth="yes"/>
      <point x="1055.0" y="868.0"/>
      <point x="1052.0" y="865.0"/>
      <point x="1045.0" y="865.0" type="curve" smooth="yes"/>
      <point x="115.0" y="865.0" type="line" smooth="yes"/>
      <point x="108.0" y="865.0"/>
      <point x="105.0" y="868.0"/>
    </contour>
    <contour>
      <point x="415.0" y="1490.0" type="curve" smooth="yes"/>
      <point x="745.0" y="1490.0" type="line" smooth="yes"/>
      <point x="752.0" y="1490.0"/>
      <point x="755.0" y="1487.0"/>
      <point x="755.0" y="1480.0" type="curve" smooth="yes"/>
      <point x="755.0" y="580.0" type="line" smooth="yes"/>
      <point x="755.0" y="573.0"/>
      <point x="752.0" y="570.0"/>
      <point x="745.0" y="570.0" type="curve" smooth="yes"/>
      <point x="415.0" y="570.0" type="line" smooth="yes"/>
      <point x="408.0" y="570.0"/>
      <point x="405.0" y="573.0"/>
      <point x="405.0" y="580.0" type="curve" smooth="yes"/>
      <point x="405.0" y="1480.0" type="line" smooth="yes"/>
      <point x="405.0" y="1487.0"/>
      <point x="408.0" y="1490.0"/>
    </contour>
  </outline>
</glyph>
